<?xml version="1.0" standalone="no"?>
<!DOCTYPE svg PUBLIC "-//W3C//DTD SVG 20010904//EN"
 "http://www.w3.org/TR/2001/REC-SVG-20010904/DTD/svg10.dtd">
<svg version="1.0" xmlns="http://www.w3.org/2000/svg"
 width="512.000000pt" height="512.000000pt" viewBox="0 0 512.000000 512.000000"
 preserveAspectRatio="xMidYMid meet">

<g transform="translate(0.000000,512.000000) scale(0.100000,-0.100000)"
fill="#000000" stroke="none">
<path d="M1160 4850 l0 -270 620 0 620 0 0 270 0 270 -620 0 -620 0 0 -270z"/>
<path d="M1160 4220 c0 -76 24 -193 52 -257 68 -155 211 -286 368 -338 l50
-17 0 -89 0 -89 -535 0 -535 0 0 -100 0 -100 -280 0 -280 0 0 -445 0 -445 280
0 280 0 0 -95 0 -95 151 0 c139 0 150 -1 145 -17 -4 -10 -109 -310 -234 -668
l-228 -650 231 -3 232 -2 6 -93 c7 -100 21 -160 58 -252 70 -172 232 -334 404
-404 149 -60 -7 -55 1978 -58 l1817 -3 0 150 0 150 -1764 0 c-1157 0 -1782 4
-1817 10 -216 41 -379 240 -379 461 l0 39 149 0 149 0 52 147 c28 82 81 232
117 336 l66 187 352 0 353 0 77 228 c43 125 95 274 115 332 l36 105 107 3 107
3 0 639 0 640 -455 0 -455 0 0 89 0 89 63 21 c234 78 407 320 407 568 l0 83
-620 0 -620 0 0 -60z m1140 -2082 c0 -7 -26 -90 -57 -185 l-58 -173 -192 0
c-106 0 -193 1 -193 3 0 4 104 302 119 340 l11 27 185 0 c139 0 185 -3 185
-12z"/>
<path d="M4787 3524 c-109 -35 -201 -66 -206 -69 -7 -4 72 -270 83 -282 2 -2
408 126 413 130 2 3 -85 279 -89 282 -2 1 -92 -26 -201 -61z"/>
<path d="M3140 2790 l0 -640 305 0 305 0 0 240 0 240 200 0 200 0 0 150 0 150
-200 0 -200 0 0 250 0 250 -305 0 -305 0 0 -640z"/>
<path d="M4333 3379 c-71 -23 -123 -45 -123 -52 0 -10 62 -203 84 -264 4 -8
42 0 128 29 68 22 125 42 127 44 6 5 -81 284 -88 283 -3 0 -61 -18 -128 -40z"/>
<path d="M4300 2790 l0 -150 135 0 135 0 0 150 0 150 -135 0 -135 0 0 -150z"/>
<path d="M4680 2790 l0 -150 220 0 220 0 0 150 0 150 -220 0 -220 0 0 -150z"/>
<path d="M4250 2380 c-24 -77 -41 -142 -39 -144 6 -6 233 -76 245 -76 15 0 99
269 88 279 -7 7 -233 81 -246 81 -2 0 -24 -63 -48 -140z"/>
<path d="M4620 2268 c-23 -73 -43 -137 -43 -141 -2 -9 392 -139 406 -134 12 4
98 270 89 278 -7 7 -391 129 -404 129 -4 0 -25 -60 -48 -132z"/>
</g>
</svg>
