<?xml version="1.0" encoding="UTF-8"?>
<svg version="1.1" xmlns="http://www.w3.org/2000/svg" width="512" height="512">
<path d="M0 0 C1.5234094 -0.00668677 1.5234094 -0.00668677 3.07759476 -0.01350862 C4.18642895 -0.01332426 5.29526314 -0.01313989 6.43769836 -0.01294994 C7.62111187 -0.01662663 8.80452538 -0.02030332 10.0237999 -0.02409142 C13.30526943 -0.03320014 16.58670958 -0.03782398 19.86818957 -0.04048073 C23.40895024 -0.04439164 26.94969653 -0.05396948 30.490448 -0.0626936 C39.04022181 -0.08243671 47.58999677 -0.09252187 56.13978767 -0.10142139 C60.16971539 -0.10580816 64.1996418 -0.11117399 68.22956848 -0.11641026 C81.63257067 -0.13342103 95.03557205 -0.14791383 108.43858337 -0.155159 C111.91509502 -0.15706878 115.39160666 -0.15898913 118.86811829 -0.16094494 C119.73214964 -0.16142868 120.596181 -0.16191242 121.48639512 -0.16241082 C135.47413242 -0.17070603 149.46178407 -0.196035 163.44948399 -0.22852562 C177.82233449 -0.26163764 192.19514153 -0.27961153 206.56803036 -0.28280324 C214.63298799 -0.28496459 222.69782073 -0.29365816 230.76274109 -0.31926441 C237.63316108 -0.34102817 244.50342584 -0.34899409 251.37387639 -0.33929763 C254.87530378 -0.33476915 258.37641127 -0.33655344 261.87779427 -0.35605907 C265.68522001 -0.37381242 269.49184349 -0.36665357 273.29927063 -0.35352612 C274.93575325 -0.36997998 274.93575325 -0.36997998 276.60529613 -0.38676625 C294.04379033 -0.24239343 308.51369177 7.43821337 321.00141907 19.12250233 C325.20694277 23.48409039 328.29676229 28.22385467 331.18891907 33.50922108 C331.51456848 34.09711414 331.8402179 34.68500721 332.17573547 35.29071522 C337.17958859 44.90680424 338.31898856 54.50070773 338.26409912 65.21426868 C338.27217743 67.12571067 338.27217743 67.12571067 338.28041893 69.07576764 C338.29477929 72.58318259 338.29065862 76.09036069 338.28325212 79.5977881 C338.27849923 83.39203854 338.29104896 87.18623929 338.30126953 90.98047352 C338.31842158 98.4022524 338.31930502 105.82394649 338.31405663 113.24574004 C338.31000693 119.28132077 338.31146796 125.31687654 338.31680489 131.35245609 C338.31755331 132.21312501 338.31830173 133.07379393 338.31907283 133.96054373 C338.32060439 135.70927635 338.32214274 137.45800897 338.3236878 139.20674159 C338.33739987 155.58752131 338.33198428 171.9682532 338.32050259 188.34903182 C338.31057188 203.316073 338.32351035 218.28299052 338.34743678 233.25001262 C338.37185301 248.64007537 338.38142943 264.0300806 338.37478405 279.42016232 C338.3712974 288.05175156 338.37348723 296.68324575 338.39103508 305.31482029 C338.40578867 312.66270962 338.40635141 320.01043694 338.38896417 327.3583232 C338.38047761 331.10280432 338.37824664 334.84699643 338.39361572 338.59146214 C338.41011256 342.66127548 338.39525695 346.73039758 338.37762451 350.80020618 C338.38722952 351.9688118 338.39683452 353.13741741 338.40673059 354.34143531 C338.24965186 372.04178889 330.77585211 386.55408046 318.88813782 399.25922108 C314.54586498 403.44612069 309.81847948 406.55092795 304.56391907 409.44672108 C303.98440491 409.77237049 303.40489075 410.09801991 302.80781555 410.43353748 C292.19284956 415.98722531 281.07590383 416.57310342 269.31562805 416.515172 C267.77114501 416.5186351 266.22666445 416.52340401 264.68218899 416.52935374 C260.46821165 416.54180397 256.2544398 416.5357208 252.04046202 416.52639508 C247.48414989 416.51958027 242.927872 416.53009783 238.37156677 416.53833485 C229.45765613 416.5516485 220.54382142 416.54880501 211.62990785 416.54009692 C204.3829602 416.53331146 197.13603378 416.53240739 189.88908386 416.53566837 C188.85618931 416.53612807 187.82329476 416.53658777 186.75910038 416.5370614 C184.66054956 416.53802061 182.56199874 416.53899325 180.46344793 416.53997917 C160.80262402 416.54852614 141.14184212 416.53870983 121.4810251 416.52257808 C104.62484632 416.50917553 87.76872954 416.51150382 70.91255188 416.52533436 C51.32027828 416.54140243 31.72804148 416.54770223 12.13576221 416.53849757 C10.04509291 416.53754196 7.95442359 416.53659884 5.86375427 416.53566837 C4.83520543 416.53520555 3.80665659 416.53474272 2.7469396 416.53426587 C-4.4881587 416.53167966 -11.72323358 416.536039 -18.95832825 416.54310703 C-27.77999012 416.55153586 -36.60157194 416.54921283 -45.42322469 416.5332648 C-49.92093131 416.5254007 -54.41850465 416.52225864 -58.91621017 416.53221226 C-63.03919454 416.54119835 -67.16192296 416.53616234 -71.28488433 416.5202796 C-72.77059487 416.51694829 -74.25632734 416.51858839 -75.74202359 416.52590697 C-94.54823402 416.61138853 -110.35717952 411.42621564 -124.11210632 398.41351795 C-136.32872245 386.17801988 -142.31294164 370.44417604 -142.40574646 353.42455006 C-142.40345321 352.00705398 -142.40094359 350.58955823 -142.39823914 349.17206287 C-142.40259199 347.66165383 -142.40777704 346.15124699 -142.41372681 344.64084339 C-142.42706793 340.55597299 -142.42770083 336.4711954 -142.42516351 332.38630748 C-142.42409025 328.96712374 -142.42898632 325.54795851 -142.43376893 322.12877876 C-142.44484769 314.05644129 -142.44531102 305.98415035 -142.43925476 297.91180897 C-142.43321873 289.60595435 -142.44552028 281.30026929 -142.46682483 272.9944436 C-142.48448546 265.84426477 -142.49043508 258.6941397 -142.48718709 251.54393989 C-142.48538084 247.28194554 -142.48794403 243.0200721 -142.50190163 238.75809765 C-142.51454786 234.74673707 -142.51247223 230.73563917 -142.49949074 226.72428226 C-142.49713994 225.25985529 -142.49980538 223.79540943 -142.50811386 222.33100414 C-142.56956463 210.64920033 -140.82083739 200.81106659 -135.68608093 190.32172108 C-135.3446405 189.61072254 -135.00320007 188.89972401 -134.65141296 188.16718006 C-130.3410184 179.33115565 -125.53617664 170.75668708 -120.78276062 162.15424061 C-117.85982371 156.83394491 -114.99456181 151.48267611 -112.12358093 146.13422108 C-107.33550631 137.22573425 -102.51468293 128.33612955 -97.66264343 119.46234608 C-93.7875851 112.36832394 -89.95092471 105.25408329 -86.12358093 98.13422108 C-81.33786321 89.23153222 -76.52606594 80.34402752 -71.66923523 71.4799242 C-68.94208917 66.49531478 -66.24588549 61.49597281 -63.58061218 56.47797108 C-50.28966025 31.47815371 -38.71357835 10.31032104 -10.12358093 1.13422108 C-6.6911606 0.33459165 -3.52112417 0.0071971 0 0 Z M-16.87748718 42.86859608 C-22.21791843 49.0200437 -25.6966341 56.12000014 -29.37358093 63.32172108 C-30.12047007 64.7599923 -30.86886085 66.19748465 -31.61869812 67.63422108 C-33.10763808 70.48800256 -34.59180148 73.34418232 -36.07279968 76.20209217 C-38.7671275 81.38592772 -41.55897121 86.51488432 -44.37358093 91.63422108 C-45.32819485 93.37630621 -46.28262271 95.11849331 -47.23686218 96.86078358 C-47.7068866 97.71833241 -48.17691101 98.57588123 -48.66117859 99.45941639 C-51.30860553 104.30168843 -53.93431463 109.15571952 -56.56108093 114.00922108 C-57.10152039 115.00759998 -57.64195984 116.00597889 -58.19877625 117.0346117 C-59.29343355 119.05702203 -60.38799708 121.07948312 -61.48246765 123.10199451 C-64.7329233 129.10774566 -67.98586389 135.11215189 -71.23954773 141.11615467 C-74.00171302 146.21380593 -76.7607121 151.31313004 -79.51420593 156.41547108 C-80.63381521 158.48848626 -81.75360442 160.56140427 -82.87358093 162.63422108 C-83.41071716 163.62889393 -83.94785339 164.62356678 -84.50126648 165.64838123 C-88.10972644 172.31245911 -91.78416278 178.93539452 -95.585495 185.49164295 C-97.50824795 188.61113293 -97.50824795 188.61113293 -98.12358093 192.13422108 C-55.22358093 192.13422108 -12.32358093 192.13422108 31.87641907 192.13422108 C41.11502284 175.20740753 41.11502284 175.20740753 50.31391907 158.25922108 C50.84630188 157.27639149 51.37868469 156.2935619 51.92720032 155.28094959 C54.66766618 150.22097851 57.40293322 145.15828284 60.13032532 140.09125233 C62.81733962 135.10252534 65.51947131 130.12227576 68.23384094 125.14838123 C69.34833861 123.10325813 70.45888832 121.05597958 71.56587219 119.00677967 C83.89112665 96.24185072 83.89112665 96.24185072 91.87641907 89.13422108 C92.66403625 88.4149242 93.45165344 87.69562733 94.26313782 86.95453358 C107.6055614 75.51817051 122.61208151 72.67083757 139.71406555 72.74603748 C141.28240828 72.74196405 142.85074814 72.73661787 144.41908264 72.73010731 C148.64851355 72.71651839 152.87772306 72.72169754 157.10715747 72.73124456 C161.55247223 72.73888647 165.99776914 72.73178292 170.44308472 72.72708607 C177.90665559 72.72164107 185.37013717 72.72878647 192.83369446 72.7431078 C201.43668196 72.7594259 210.03945603 72.75414684 218.64243835 72.73762858 C226.05511903 72.72397065 233.46773583 72.7221152 240.88042504 72.72994459 C245.29609645 72.73459828 249.71166788 72.73531002 254.12733269 72.72533512 C258.28156286 72.71660496 262.43552063 72.72279655 266.58972168 72.74001789 C268.10532748 72.74395094 269.6209566 72.74290398 271.13655281 72.7362299 C283.70890846 72.68601336 294.55822219 74.50370394 305.87641907 80.13422108 C306.20383298 65.63706046 306.41748907 52.84472854 296.27876282 41.31781483 C286.97666406 32.54349472 275.05823249 31.98199547 262.9723053 32.00050831 C261.33951295 31.99710997 261.33951295 31.99710997 259.6737349 31.99364299 C256.03132452 31.98731994 252.38895151 31.98813127 248.74653625 31.98895741 C246.13284253 31.98596485 243.51914925 31.9825621 240.90545654 31.97877979 C234.54528876 31.97048656 228.18513025 31.96772555 221.82495752 31.96716741 C216.6526391 31.9666916 211.48032374 31.96463355 206.30800629 31.96146679 C191.62996399 31.95266359 176.95192899 31.94804685 162.27388403 31.94879726 C161.48320399 31.94883722 160.69252395 31.94887718 159.87788391 31.94891834 C158.69040858 31.94897966 158.69040858 31.94897966 157.47894385 31.94904222 C144.65398572 31.94944853 131.82905697 31.939882 119.00410733 31.92577998 C105.82223586 31.91140035 92.6403787 31.90451067 79.45849919 31.90537375 C72.06325492 31.90570519 64.66804145 31.90298155 57.27280426 31.8921957 C50.31576037 31.88211366 43.35878243 31.88244226 36.40173531 31.88971233 C33.85205808 31.89075698 31.30237679 31.88840244 28.75270653 31.88235188 C25.26455084 31.87461206 21.77661843 31.87929011 18.28846741 31.88698292 C16.78536676 31.87926757 16.78536676 31.87926757 15.25190043 31.87139636 C2.95181103 31.93108667 -8.16976522 33.51043419 -16.87748718 42.86859608 Z M173.87641907 262.19672108 C170.44926087 267.23035968 170.21873247 271.11314659 170.87641907 277.13422108 C173.22434565 282.01068398 176.16402761 284.53759721 180.87641907 287.13422108 C184.67130601 288.11759529 188.26548403 288.27105022 192.17622375 288.29535389 C193.428125 288.30496143 194.68002625 288.31456898 195.96986389 288.32446766 C197.32933875 288.32931698 198.68881574 288.33359548 200.04829407 288.33734608 C201.08369198 288.34158714 201.08369198 288.34158714 202.14000702 288.34591389 C205.79433572 288.36087093 209.44862531 288.37012183 213.10298157 288.37445545 C216.85634935 288.3799289 220.60935233 288.40394274 224.36260605 288.43242741 C227.26760363 288.45115733 230.17251522 288.45626489 233.07756805 288.45779133 C234.46011088 288.46079608 235.84265298 288.46874998 237.2251358 288.48197651 C249.64574754 288.89886144 249.64574754 288.89886144 260.48695374 283.68213367 C264.56640652 278.95398249 265.23235294 275.7334549 265.15376282 269.67328358 C264.74265463 265.90961705 263.39355547 263.9163192 260.87641907 261.13422108 C255.19516546 256.66174483 250.65036759 256.01704878 243.57661438 255.97308826 C241.69876251 255.95867695 241.69876251 255.95867695 239.78297424 255.94397449 C238.42349939 255.93912517 237.0640224 255.93484667 235.70454407 255.93109608 C234.66914616 255.92685501 234.66914616 255.92685501 233.61283112 255.92252827 C229.95850242 255.90757123 226.30421283 255.89832032 222.64985657 255.8939867 C218.89648879 255.88851325 215.14348581 255.86449941 211.39023209 255.83601475 C208.48523451 255.81728482 205.58032291 255.81217726 202.67527008 255.81065083 C201.29272726 255.80764607 199.91018515 255.79969217 198.52770233 255.78646564 C184.93304124 255.3857748 184.93304124 255.3857748 173.87641907 262.19672108 Z " fill="#000000" transform="translate(158.1235809326172,47.86577892303467)"/>
</svg>
