<?xml version="1.0" standalone="no"?>
<!DOCTYPE svg PUBLIC "-//W3C//DTD SVG 20010904//EN"
 "http://www.w3.org/TR/2001/REC-SVG-20010904/DTD/svg10.dtd">
<svg version="1.0" xmlns="http://www.w3.org/2000/svg"
 width="512.000000pt" height="512.000000pt" viewBox="0 0 512.000000 512.000000"
 preserveAspectRatio="xMidYMid meet">

<g transform="translate(0.000000,512.000000) scale(0.100000,-0.100000)"
fill="#000000" stroke="none">
<path d="M1320 4349 c-301 -38 -593 -170 -810 -366 -255 -230 -409 -497 -481
-833 -33 -151 -33 -429 0 -580 114 -535 483 -957 986 -1128 171 -59 278 -75
498 -76 l198 -1 64 136 c123 266 217 540 265 773 131 640 41 1310 -261 1943
l-68 143 -163 -1 c-90 -1 -192 -5 -228 -10z"/>
<path d="M2053 4343 c3 -10 28 -68 56 -130 129 -284 226 -646 273 -1013 19
-156 16 -562 -6 -725 -47 -347 -144 -697 -267 -968 -28 -62 -53 -120 -56 -129
-5 -17 14 -18 295 -18 277 0 300 1 305 18 3 9 28 67 56 129 123 271 220 621
267 968 22 163 25 569 6 725 -47 367 -144 729 -273 1013 -28 62 -53 120 -56
130 -5 16 -28 17 -305 17 -281 0 -300 -1 -295 -17z"/>
<path d="M3345 4340 c-4 -6 -26 -69 -50 -141 l-44 -130 22 -8 c100 -37 1750
-591 1752 -589 1 2 23 65 48 141 l46 138 -27 10 c-30 12 -1734 589 -1738 589
-2 0 -6 -5 -9 -10z"/>
<path d="M3345 3440 c-4 -6 -26 -69 -50 -141 l-44 -130 22 -8 c100 -37 1750
-591 1752 -589 1 2 23 65 48 141 l46 138 -27 10 c-30 12 -1734 589 -1738 589
-2 0 -6 -5 -9 -10z"/>
<path d="M3345 2540 c-4 -6 -26 -69 -50 -141 l-44 -130 22 -8 c100 -37 1750
-591 1752 -589 1 2 23 65 48 141 l46 138 -27 10 c-30 12 -1734 589 -1738 589
-2 0 -6 -5 -9 -10z"/>
<path d="M3345 1640 c-4 -6 -26 -69 -50 -141 l-44 -130 22 -8 c100 -37 1750
-591 1752 -589 1 2 23 65 48 141 l46 138 -27 10 c-30 12 -1734 589 -1738 589
-2 0 -6 -5 -9 -10z"/>
</g>
</svg>
