<?xml version="1.0" standalone="no"?>
<!DOCTYPE svg PUBLIC "-//W3C//DTD SVG 20010904//EN"
 "http://www.w3.org/TR/2001/REC-SVG-20010904/DTD/svg10.dtd">
<svg version="1.0" xmlns="http://www.w3.org/2000/svg"
 width="512.000000pt" height="512.000000pt" viewBox="0 0 512.000000 512.000000"
 preserveAspectRatio="xMidYMid meet">

<g transform="translate(0.000000,512.000000) scale(0.100000,-0.100000)"
fill="#000000" stroke="none">
<path d="M2350 4844 c-14 -2 -65 -9 -115 -15 -123 -15 -367 -78 -499 -129
-735 -285 -1270 -922 -1425 -1695 -29 -148 -41 -275 -41 -454 0 -605 240
-1181 670 -1611 337 -338 750 -552 1239 -641 140 -26 456 -36 612 -20 869 90
1600 653 1916 1476 41 109 97 315 118 445 23 133 31 438 15 585 -75 731 -478
1365 -1110 1745 -276 166 -585 269 -930 310 -78 9 -393 12 -450 4z m916 -445
c55 -22 140 -59 188 -84 184 -94 417 -266 444 -328 53 -124 87 -386 63 -496
-6 -30 -37 -111 -67 -180 -124 -280 -124 -416 1 -659 106 -208 234 -376 317
-415 67 -32 103 -22 179 48 25 24 65 53 89 65 l43 22 -7 -64 c-11 -98 -54
-280 -93 -392 -199 -571 -648 -1020 -1221 -1220 -76 -26 -102 -32 -102 -22 0
28 100 213 152 281 29 39 134 153 233 255 200 205 227 244 233 346 5 69 -10
108 -62 162 -67 71 -222 135 -395 161 -155 24 -190 57 -291 268 -64 133 -76
151 -147 222 -139 138 -220 158 -509 126 -180 -20 -294 -16 -379 14 -118 41
-165 110 -189 273 -16 115 -37 161 -111 248 -32 37 -60 82 -66 104 -35 130 80
254 209 225 24 -5 107 -42 184 -81 115 -59 151 -73 198 -76 75 -5 130 22 169
83 38 60 48 125 56 350 7 215 23 312 66 403 53 110 113 157 309 243 74 33 138
85 184 151 l38 56 91 -25 c51 -14 137 -42 193 -64z m-2536 -1348 c72 -312 255
-573 531 -756 36 -24 141 -85 235 -135 93 -50 179 -101 191 -113 19 -19 24
-39 33 -137 5 -63 10 -197 10 -296 0 -179 0 -182 28 -235 37 -71 107 -126 272
-214 165 -88 249 -155 284 -227 38 -78 56 -162 56 -256 l0 -85 -62 7 c-184 20
-420 92 -613 186 -215 105 -378 223 -551 401 -268 277 -437 599 -521 994 -25
120 -27 148 -28 365 0 259 8 327 67 540 36 129 29 132 68 -39z"/>
</g>
</svg>
