<?xml version="1.0" standalone="no"?>
<!DOCTYPE svg PUBLIC "-//W3C//DTD SVG 20010904//EN"
 "http://www.w3.org/TR/2001/REC-SVG-20010904/DTD/svg10.dtd">
<svg version="1.0" xmlns="http://www.w3.org/2000/svg"
 width="512.000000pt" height="512.000000pt" viewBox="0 0 512.000000 512.000000"
 preserveAspectRatio="xMidYMid meet">

<g transform="translate(0.000000,512.000000) scale(0.100000,-0.100000)"
fill="#000000" stroke="none">
<path d="M763 4690 c-196 -42 -272 -92 -332 -219 l-26 -56 -3 -392 c-4 -535
-9 -516 217 -791 l140 -170 3 -1119 3 -1118 23 -59 c81 -215 256 -348 477
-363 209 -14 419 105 510 290 67 136 65 96 65 1292 l0 1080 137 165 c149 181
194 259 213 369 7 44 10 192 8 437 -3 358 -4 371 -26 426 -27 68 -99 147 -161
178 -40 20 -295 80 -340 80 -10 0 -29 -9 -42 -19 l-24 -19 -5 -353 -5 -352
-148 -104 -147 -104 -148 103 -147 104 -5 344 c-3 190 -9 352 -13 361 -9 19
-50 39 -75 38 -9 0 -76 -13 -149 -29z"/>
<path d="M2081 3104 l-81 -97 0 -279 0 -278 1051 0 1051 0 -7 38 c-3 20 -19
68 -35 105 -126 301 -380 512 -705 584 -57 13 -172 16 -632 20 l-561 5 -81
-98z"/>
<path d="M1997 1558 c-2 -403 -8 -748 -12 -766 l-7 -32 1346 0 1347 0 25 25
25 25 -4 443 c-4 476 -5 483 -61 612 -78 175 -244 329 -427 396 l-80 29 -1074
0 -1074 0 -4 -732z m2078 284 c94 -36 170 -108 214 -202 23 -48 26 -68 26
-155 0 -90 -3 -106 -28 -158 -37 -74 -110 -147 -184 -184 -52 -25 -68 -28
-158 -28 -88 0 -107 3 -157 27 -155 73 -247 241 -219 402 36 201 208 337 406
319 33 -3 78 -12 100 -21z"/>
<path d="M3610 556 c0 -48 27 -96 73 -130 28 -20 39 -21 402 -21 362 0 374 1
401 21 46 34 67 70 72 123 l5 51 -477 0 -476 0 0 -44z"/>
</g>
</svg>
