<?xml version="1.0" standalone="no"?>
<!DOCTYPE svg PUBLIC "-//W3C//DTD SVG 20010904//EN"
 "http://www.w3.org/TR/2001/REC-SVG-20010904/DTD/svg10.dtd">
<svg version="1.0" xmlns="http://www.w3.org/2000/svg"
 width="512.000000pt" height="512.000000pt" viewBox="0 0 512.000000 512.000000"
 preserveAspectRatio="xMidYMid meet">

<g transform="translate(0.000000,512.000000) scale(0.100000,-0.100000)"
fill="#000000" stroke="none">
<path d="M1173 3864 c-225 -49 -425 -199 -548 -409 -78 -134 -534 -1007 -561
-1074 -46 -115 -58 -179 -58 -316 0 -105 4 -145 22 -210 89 -311 330 -538 638
-600 70 -14 214 -15 1314 -13 l1235 3 70 24 c288 97 478 288 567 571 l23 75 0
645 0 645 -23 75 c-89 283 -279 474 -567 571 l-70 24 -990 2 c-810 1 -1001 -1
-1052 -13z m2047 -177 c234 -71 415 -258 471 -487 20 -80 20 -1200 0 -1280
-45 -184 -180 -353 -346 -436 -123 -61 -154 -66 -437 -71 l-258 -5 0 91 0 91
219 0 c250 0 299 7 397 55 127 62 228 195 254 334 13 71 13 1091 0 1162 -15
81 -72 188 -131 248 -60 59 -167 116 -248 131 -33 6 -377 10 -892 10 l-839 0
0 90 0 91 878 -4 c786 -3 883 -5 932 -20z m-1995 -19 c33 -146 33 -144 -12
-158 -78 -25 -155 -74 -211 -135 -49 -53 -95 -134 -332 -585 -151 -288 -283
-549 -294 -580 -24 -72 -25 -207 -1 -279 39 -118 129 -228 231 -283 107 -58
102 -58 1022 -58 l842 0 0 -90 0 -91 -877 3 -878 3 -80 28 c-118 42 -181 81
-266 167 -89 89 -148 196 -174 316 -23 101 -16 252 15 344 20 58 527 1036 588
1135 68 108 205 217 329 261 84 29 91 29 98 2z m1145 -551 c0 -5 -172 -178
-382 -385 -211 -207 -491 -483 -623 -614 l-241 -238 -62 63 -63 64 627 617
628 617 58 -58 c32 -31 58 -61 58 -66z m253 -619 l-618 -618 -62 62 -63 63
617 617 618 618 62 -62 63 -63 -617 -617z"/>
<path d="M5054 3775 c-232 -63 -413 -261 -454 -497 -7 -43 -10 -288 -8 -758 3
-687 3 -696 25 -760 45 -130 137 -253 250 -331 45 -31 168 -83 221 -93 l32 -5
0 1229 c0 677 -3 1230 -7 1229 -5 0 -31 -7 -59 -14z m-114 -420 l0 -85 -85 0
-85 0 0 85 0 85 85 0 85 0 0 -85z m0 -795 l0 -530 -85 0 -85 0 0 530 0 530 85
0 85 0 0 -530z m0 -795 l0 -85 -85 0 -85 0 0 85 0 85 85 0 85 0 0 -85z"/>
<path d="M4060 2560 l0 -350 175 0 175 0 0 350 0 350 -175 0 -175 0 0 -350z"/>
</g>
</svg>
