<?xml version="1.0" standalone="no"?>
<!DOCTYPE svg PUBLIC "-//W3C//DTD SVG 20010904//EN"
 "http://www.w3.org/TR/2001/REC-SVG-20010904/DTD/svg10.dtd">
<svg version="1.0" xmlns="http://www.w3.org/2000/svg"
 width="512.000000pt" height="512.000000pt" viewBox="0 0 512.000000 512.000000"
 preserveAspectRatio="xMidYMid meet">

<g transform="translate(0.000000,512.000000) scale(0.100000,-0.100000)"
fill="#000000" stroke="none">
<path d="M1520 4945 c-336 -68 -587 -329 -639 -665 -9 -56 -11 -512 -9 -1765
3 -1845 -1 -1700 58 -1857 66 -177 261 -372 438 -438 154 -58 89 -55 1192 -55
1103 0 1038 -3 1192 55 186 69 368 257 444 455 54 144 53 112 54 1567 l0 1346
-342 4 c-316 5 -349 7 -423 27 -141 40 -265 111 -365 211 -72 72 -112 131
-160 233 -66 142 -72 190 -78 565 l-4 332 -647 -1 c-491 -1 -662 -4 -711 -14z
m593 -1793 c104 -46 173 -163 164 -277 -18 -242 -307 -354 -480 -187 -58 55
-80 105 -85 192 -4 70 -2 79 29 139 39 74 86 116 161 143 65 23 145 19 211
-10z m1020 -218 c32 -23 67 -90 67 -129 0 -68 -34 -106 -538 -602 -273 -270
-507 -495 -519 -501 -81 -44 -204 25 -220 122 -13 80 -6 88 529 623 375 374
511 503 533 508 17 4 34 8 40 9 21 5 83 -12 108 -30z m75 -899 c75 -23 131
-70 169 -144 87 -168 0 -359 -186 -406 -70 -18 -131 -11 -199 24 -45 23 -103
83 -127 131 -22 43 -30 143 -16 196 24 90 103 171 196 200 55 17 102 17 163
-1z"/>
<path d="M3202 4639 c5 -352 10 -388 71 -491 39 -67 138 -155 212 -189 92 -41
163 -49 484 -49 l283 0 -5 193 c-6 246 -32 345 -126 489 -114 174 -268 285
-481 345 -38 11 -116 17 -249 20 l-193 5 4 -323z"/>
</g>
</svg>
