<?xml version="1.0" standalone="no"?>
<!DOCTYPE svg PUBLIC "-//W3C//DTD SVG 20010904//EN"
 "http://www.w3.org/TR/2001/REC-SVG-20010904/DTD/svg10.dtd">
<svg version="1.0" xmlns="http://www.w3.org/2000/svg"
 width="512.000000pt" height="512.000000pt" viewBox="0 0 512.000000 512.000000"
 preserveAspectRatio="xMidYMid meet">

<g transform="translate(0.000000,512.000000) scale(0.100000,-0.100000)"
fill="#000000" stroke="none">
<path d="M1491 4830 c-568 -159 -1046 -294 -1063 -301 -37 -15 -73 -63 -87
-114 -13 -51 -38 -309 -51 -540 -14 -232 -14 -746 0 -945 50 -713 197 -1250
444 -1620 277 -418 691 -791 1161 -1047 228 -124 579 -263 665 -263 56 0 268
75 475 167 522 234 1037 669 1351 1143 247 370 394 907 444 1620 23 328 12
892 -26 1285 -21 225 -38 276 -102 309 -42 22 -2115 596 -2148 595 -16 0 -494
-130 -1063 -289z m2153 -1161 c29 -8 67 -38 143 -112 57 -55 113 -116 125
-134 25 -41 27 -117 5 -159 -23 -43 -1457 -1471 -1490 -1484 -39 -14 -92 -13
-130 4 -41 18 -942 921 -956 959 -31 81 -2 143 127 270 132 129 187 151 276
107 26 -12 148 -127 331 -310 l290 -290 570 569 c630 629 605 609 709 580z"/>
</g>
</svg>
