<?xml version="1.0" encoding="UTF-8"?>
<!DOCTYPE svg PUBLIC "-//W3C//DTD SVG 1.1//EN" "http://www.w3.org/Graphics/SVG/1.1/DTD/svg11.dtd">
<svg xmlns="http://www.w3.org/2000/svg" version="1.1" width="512px" height="512px" style="shape-rendering:geometricPrecision; text-rendering:geometricPrecision; image-rendering:optimizeQuality; fill-rule:evenodd; clip-rule:evenodd" xmlns:xlink="http://www.w3.org/1999/xlink">
<g><path style="opacity:0.99" fill="#000000" d="M 242.5,-0.5 C 251.167,-0.5 259.833,-0.5 268.5,-0.5C 317.082,11.282 341.249,42.282 341,92.5C 336.735,126.423 319.068,150.423 288,164.5C 287.5,180.497 287.333,196.497 287.5,212.5C 328.835,212.333 370.168,212.5 411.5,213C 430.445,216.611 442.278,227.778 447,246.5C 447.667,323.833 447.667,401.167 447,478.5C 441.984,495.349 431.15,506.349 414.5,511.5C 308.5,511.5 202.5,511.5 96.5,511.5C 79.8497,506.349 69.0164,495.349 64,478.5C 63.3333,401.167 63.3333,323.833 64,246.5C 68.7219,227.778 80.5552,216.611 99.5,213C 131.5,212.333 163.5,212.333 195.5,213C 198.333,214.5 200.5,216.667 202,219.5C 202.667,250.5 202.667,281.5 202,312.5C 201.214,315.583 199.381,317.749 196.5,319C 189.833,319.667 183.167,319.667 176.5,319C 174.376,317.878 172.543,316.378 171,314.5C 169.738,300.555 169.071,286.555 169,272.5C 164.302,258.567 154.802,253.733 140.5,258C 134.508,260.659 130.675,265.159 129,271.5C 127.357,330.135 127.024,388.802 128,447.5C 130.577,463.422 139.744,469.922 155.5,467C 161.272,464.894 165.438,461.061 168,455.5C 169.3,434.564 169.966,413.564 170,392.5C 170.628,388.533 172.795,385.699 176.5,384C 193.833,383.333 211.167,383.333 228.5,384C 231.381,385.251 233.214,387.417 234,390.5C 234.045,411.884 234.712,433.217 236,454.5C 244.166,469 255.333,471.833 269.5,463C 271.727,460.436 273.561,457.603 275,454.5C 276.288,433.217 276.955,411.884 277,390.5C 277.786,387.417 279.619,385.251 282.5,384C 299.833,383.333 317.167,383.333 334.5,384C 338.205,385.699 340.372,388.533 341,392.5C 341.333,412.5 341.667,432.5 342,452.5C 345.144,462.469 351.977,467.802 362.5,468.5C 374.58,466.587 381.413,459.587 383,447.5C 383.667,390.833 383.667,334.167 383,277.5C 380.422,260.123 370.589,253.623 353.5,258C 347.641,261.212 343.808,266.045 342,272.5C 341.667,285.167 341.333,297.833 341,310.5C 340.768,313.738 339.268,316.238 336.5,318C 320.262,319.47 303.929,319.97 287.5,319.5C 290.411,334.603 286.078,347.103 274.5,357C 257.324,366.337 242.157,363.837 229,349.5C 227.059,345.952 225.393,342.286 224,338.5C 223.667,280.5 223.333,222.5 223,164.5C 186.716,146.946 169.049,117.946 170,77.5C 176.214,34.6946 200.381,8.69465 242.5,-0.5 Z M 223.5,32.5 C 232.264,30.8021 238.764,33.8021 243,41.5C 245.655,49.5365 243.488,56.0365 236.5,61C 219.193,64.692 212.026,57.8587 215,40.5C 217.157,37.0241 219.99,34.3575 223.5,32.5 Z"/></g>
</svg>
