<?xml version="1.0" standalone="no"?>
<!DOCTYPE svg PUBLIC "-//W3C//DTD SVG 20010904//EN"
 "http://www.w3.org/TR/2001/REC-SVG-20010904/DTD/svg10.dtd">
<svg version="1.0" xmlns="http://www.w3.org/2000/svg"
 width="479.000000pt" height="480.000000pt" viewBox="0 0 479.000000 480.000000"
 preserveAspectRatio="xMidYMid meet">

<g transform="translate(0.000000,480.000000) scale(0.100000,-0.100000)"
fill="#000000" stroke="none">
<path d="M2630 4780 c-139 -13 -295 -38 -378 -61 -102 -27 -175 -62 -368 -177
-593 -351 -576 -343 -804 -387 -273 -53 -530 -150 -642 -242 -189 -154 -297
-448 -243 -656 21 -81 50 -132 107 -193 70 -74 133 -104 221 -104 56 0 68 3
64 14 -17 44 -28 148 -22 206 17 155 77 282 185 391 138 138 323 204 507 180
263 -33 472 -217 538 -472 17 -65 17 -244 0 -296 l-7 -23 676 0 677 0 -8 38
c-17 78 -9 243 14 317 62 196 209 344 404 410 105 35 257 40 354 11 271 -80
454 -312 458 -581 l2 -92 24 16 c37 24 107 125 131 189 29 77 36 181 17 257
-8 33 -49 159 -92 280 -83 237 -145 462 -145 524 0 22 7 74 16 116 18 89 14
131 -16 180 -50 80 -106 93 -590 136 -263 23 -912 34 -1080 19z m180 -405 l0
-244 -32 -5 c-69 -11 -1002 -97 -1069 -99 -38 -1 -61 8 -123 43 -42 24 -76 46
-76 49 0 3 53 37 118 75 64 38 214 127 332 197 171 102 232 133 300 152 123
36 331 66 523 76 l27 1 0 -245z m607 229 l71 -6 46 -191 c25 -105 43 -194 38
-199 -7 -7 -485 -58 -549 -58 l-33 0 0 236 0 237 178 -7 c97 -3 209 -9 249
-12z"/>
<path d="M1107 3570 c-176 -30 -318 -178 -350 -365 -33 -194 90 -405 277 -472
215 -77 453 19 546 220 119 255 -26 555 -296 612 -75 16 -105 17 -177 5z"/>
<path d="M3654 3565 c-202 -44 -334 -211 -334 -424 0 -138 41 -233 140 -325
121 -111 294 -140 463 -76 77 29 176 121 216 200 129 259 -17 566 -296 625
-82 18 -109 18 -189 0z"/>
<path d="M2860 2014 c-108 -29 -203 -118 -232 -218 -17 -61 -15 -163 6 -223
22 -65 93 -146 157 -178 93 -48 222 -49 312 -4 151 76 221 267 158 433 -34 88
-125 165 -226 191 -72 18 -103 18 -175 -1z m181 -157 c18 -12 44 -38 57 -57
21 -31 23 -44 20 -117 -2 -63 -8 -88 -24 -109 -37 -51 -70 -68 -137 -72 -53
-3 -67 0 -97 20 -19 13 -44 38 -56 55 -59 88 -29 239 56 284 51 28 137 25 181
-4z"/>
<path d="M4280 2014 c-108 -29 -203 -118 -232 -218 -17 -61 -15 -163 6 -223
22 -65 93 -146 157 -178 93 -48 222 -49 312 -4 151 76 221 267 158 433 -34 88
-125 165 -226 191 -72 18 -103 18 -175 -1z m181 -157 c18 -12 44 -38 57 -57
21 -31 23 -44 20 -117 -2 -63 -8 -88 -24 -109 -37 -51 -70 -68 -137 -72 -53
-3 -67 0 -97 20 -19 13 -44 38 -56 55 -59 88 -29 239 56 284 51 28 137 25 181
-4z"/>
<path d="M76 1893 c25 -71 77 -219 117 -331 l72 -203 99 3 98 3 114 320 c63
176 114 324 114 328 0 4 -36 7 -81 5 l-81 -3 -80 -244 c-44 -134 -83 -239 -88
-235 -4 5 -43 116 -86 247 l-79 237 -82 0 -83 0 46 -127z"/>
<path d="M770 1690 l0 -330 200 0 200 0 0 65 0 65 -120 0 -120 0 0 70 0 70
105 0 105 0 0 65 0 65 -105 0 -105 0 0 65 0 65 120 0 120 0 0 65 0 65 -200 0
-200 0 0 -330z"/>
<path d="M1270 1691 l0 -331 80 0 80 0 0 125 c0 117 1 125 19 125 15 0 37 -31
88 -125 l68 -125 88 0 88 0 -15 28 c-8 15 -41 73 -75 130 l-60 102 32 14 c62
25 117 111 117 182 0 34 -29 106 -53 133 -49 53 -98 65 -284 69 l-173 4 0
-331z m304 188 c50 -23 58 -112 13 -144 -14 -10 -45 -15 -89 -15 l-68 0 0 85
0 85 60 0 c32 0 70 -5 84 -11z"/>
<path d="M2040 1955 l0 -65 90 0 90 0 0 -265 0 -265 80 0 80 0 0 265 0 265 85
0 85 0 0 65 0 65 -255 0 -255 0 0 -65z"/>
<path d="M3380 1690 l0 -332 168 4 c141 4 176 8 222 26 79 31 124 73 162 150
30 60 33 76 33 152 0 76 -4 93 -33 152 -37 76 -85 119 -165 151 -43 17 -81 21
-219 25 l-168 4 0 -332z m324 176 c74 -31 114 -112 103 -208 -13 -104 -81
-158 -200 -158 l-67 0 0 190 0 190 65 0 c36 0 81 -6 99 -14z"/>
<path d="M293 1010 c-81 -11 -141 -38 -197 -90 -56 -52 -80 -112 -80 -199 1
-150 69 -218 294 -291 150 -49 190 -77 190 -134 0 -19 -3 -42 -6 -51 -16 -41
-118 -59 -173 -30 -17 8 -35 30 -45 55 l-16 40 -126 0 -126 0 7 -42 c17 -103
90 -189 194 -230 47 -18 76 -22 181 -23 114 0 130 2 180 26 118 56 170 128
178 245 6 97 -13 149 -77 206 -46 41 -98 65 -273 128 -31 12 -71 31 -90 43
-28 19 -33 29 -36 68 -4 61 28 92 93 92 55 0 96 -26 110 -71 l9 -32 128 0
c145 0 140 -4 113 86 -43 147 -223 231 -432 204z"/>
<path d="M2160 1014 c-143 -23 -227 -60 -311 -140 -202 -194 -199 -544 7 -733
98 -90 208 -131 349 -131 199 0 363 98 447 267 126 252 32 561 -208 681 -82
41 -215 67 -284 56z m165 -242 c113 -58 167 -200 131 -343 -29 -113 -94 -179
-197 -200 -122 -24 -230 27 -284 136 -26 53 -30 71 -30 145 0 111 21 165 85
223 27 24 63 49 82 55 51 17 166 9 213 -16z"/>
<path d="M3173 995 c-225 -49 -373 -244 -373 -490 0 -229 128 -413 332 -476
71 -22 214 -27 292 -9 153 34 288 160 331 308 l6 22 -129 0 -129 0 -27 -38
c-42 -62 -97 -87 -186 -87 -64 0 -82 4 -123 28 -88 52 -135 159 -124 287 6 73
38 149 79 187 97 90 286 78 351 -23 l22 -34 132 0 133 0 -20 51 c-80 213 -319
328 -567 274z"/>
<path d="M860 905 l0 -94 128 -3 127 -3 3 -397 2 -398 115 0 115 0 2 398 3
397 133 3 132 3 0 94 0 95 -380 0 -380 0 0 -95z"/>
<path d="M3920 505 l0 -495 120 0 120 0 2 215 3 214 163 -214 164 -215 145 0
c115 0 143 3 136 13 -6 6 -94 119 -197 250 -103 130 -186 241 -184 245 2 5 84
111 183 236 99 125 182 231 183 237 3 6 -46 9 -134 7 l-138 -3 -160 -212 -161
-212 -3 214 -2 215 -120 0 -120 0 0 -495z"/>
</g>
</svg>
