<?xml version="1.0" standalone="no"?>
<!DOCTYPE svg PUBLIC "-//W3C//DTD SVG 20010904//EN"
 "http://www.w3.org/TR/2001/REC-SVG-20010904/DTD/svg10.dtd">
<svg version="1.0" xmlns="http://www.w3.org/2000/svg"
 width="512.000000pt" height="512.000000pt" viewBox="0 0 512.000000 512.000000"
 preserveAspectRatio="xMidYMid meet">

<g transform="translate(0.000000,512.000000) scale(0.100000,-0.100000)"
fill="#000000" stroke="none">
<path d="M2380 4794 c-196 -18 -455 -78 -628 -145 -673 -264 -1188 -845 -1361
-1535 -53 -211 -65 -318 -65 -554 0 -236 12 -343 65 -554 195 -778 820 -1407
1599 -1610 221 -57 327 -70 570 -70 236 0 343 12 554 65 779 195 1407 819
1610 1599 57 221 70 327 70 570 0 243 -13 349 -70 570 -223 858 -945 1507
-1829 1645 -97 15 -425 27 -515 19z m908 -981 c14 -10 35 -32 46 -47 21 -27
21 -40 24 -551 l3 -523 57 -28 c71 -34 171 -132 206 -202 96 -189 65 -400 -81
-553 -187 -197 -499 -197 -686 0 -146 153 -177 364 -81 553 35 70 135 168 207
202 l57 28 0 154 c0 118 -3 152 -12 149 -7 -2 -242 -59 -522 -125 -281 -66
-510 -121 -511 -123 -1 -1 -11 -78 -24 -172 -12 -93 -25 -179 -27 -190 -4 -16
6 -26 50 -48 228 -119 312 -408 189 -651 -36 -71 -126 -156 -205 -195 -313
-154 -678 74 -678 424 0 82 20 160 58 225 54 93 163 188 255 221 23 8 40 21
42 34 3 11 27 128 55 261 42 208 52 275 69 500 20 274 30 322 73 345 12 7 313
86 668 175 684 173 713 178 768 137z"/>
<path d="M2537 3350 c-258 -65 -470 -119 -471 -121 -2 -2 -8 -34 -13 -72 -8
-59 -8 -67 6 -63 9 2 183 43 386 91 204 48 420 99 480 114 l110 27 3 72 c3 64
1 72 -15 71 -10 0 -229 -54 -486 -119z"/>
<path d="M3135 2386 c-101 -44 -125 -178 -46 -257 65 -65 157 -65 222 0 124
124 -15 327 -176 257z"/>
<path d="M1695 2066 c-101 -44 -125 -178 -46 -257 65 -65 157 -65 222 0 124
124 -15 327 -176 257z"/>
</g>
</svg>
