<?xml version="1.0" encoding="UTF-8"?>
<svg version="1.1" xmlns="http://www.w3.org/2000/svg" width="512" height="512">
<path d="M0 0 C2.56867378 2.27555185 5.12193721 4.56514283 7.65625 6.87890625 C9.79924312 8.81831503 11.98344638 10.69329299 14.1875 12.5625 C17.48484851 15.4377879 20.34568507 18.521053 23.16796875 21.859375 C25.13359951 24.15610348 27.18886063 26.35125989 29.25 28.5625 C39.247901 39.68070909 47.33651674 52.20545203 55 65 C55.37866211 65.61891113 55.75732422 66.23782227 56.14746094 66.87548828 C78.30463483 103.22439931 88.5008648 146.32954687 88.3125 188.625 C88.31034485 189.50117981 88.3081897 190.37735962 88.30596924 191.28009033 C88.25179341 205.0473269 87.68245116 218.46000841 85 232 C84.70198486 233.53188965 84.70198486 233.53188965 84.39794922 235.09472656 C75.36772648 280.21201919 55.1576889 320.69874633 24.08984375 354.6875 C22.31643159 356.64985514 20.61849755 358.64661409 18.9375 360.6875 C16.28345221 363.80564358 13.35299094 366.43208459 10.23046875 369.07421875 C8.6787405 370.41397712 7.16239731 371.79537062 5.67578125 373.20703125 C-6.22105859 384.48443379 -19.86299702 393.76053756 -34 402 C-35.17081822 402.71053345 -36.34138141 403.42148727 -37.51171875 404.1328125 C-73.51140159 425.61011019 -115.95594337 435.510702 -157.625 435.3125 C-158.44971802 435.31034485 -159.27443604 435.3081897 -160.12414551 435.30596924 C-191.3050113 435.17599262 -220.89345896 429.23250468 -250 418 C-250.71768555 417.72607422 -251.43537109 417.45214844 -252.17480469 417.16992188 C-278.6166691 406.89198335 -302.7729877 390.20991813 -323.62109375 371.15625 C-325.77510509 369.20384564 -327.97027726 367.31722641 -330.1875 365.4375 C-333.48484851 362.5622121 -336.34568507 359.478947 -339.16796875 356.140625 C-341.13359951 353.84389652 -343.18886063 351.64874011 -345.25 349.4375 C-355.247901 338.31929091 -363.33651674 325.79454797 -371 313 C-371.56799316 312.0716333 -371.56799316 312.0716333 -372.14746094 311.12451172 C-389.19499681 283.15797737 -398.40694984 251.2232007 -403 219 C-403.16798096 217.83343872 -403.16798096 217.83343872 -403.33935547 216.64331055 C-404.41796023 207.75779914 -404.24393321 198.74919218 -404.25 189.8125 C-404.25067474 188.92016663 -404.25134949 188.02783325 -404.25204468 187.10845947 C-404.2353532 173.19837588 -403.65419016 159.69003345 -401 146 C-400.83902832 145.12956055 -400.67805664 144.25912109 -400.51220703 143.36230469 C-391.9304625 98.07113806 -371.1181447 57.29545919 -340.12109375 23.34375 C-338.18168497 21.20075688 -336.30670701 19.01655362 -334.4375 16.8125 C-331.5622121 13.51515149 -328.478947 10.65431493 -325.140625 7.83203125 C-322.84389652 5.86640049 -320.64874011 3.81113937 -318.4375 1.75 C-307.31929091 -8.247901 -294.79454797 -16.33651674 -282 -24 C-281.38108887 -24.37866211 -280.76217773 -24.75732422 -280.12451172 -25.14746094 C-255.97983198 -39.86531224 -228.63419757 -48.65333058 -201 -54 C-200.14615723 -54.16661133 -199.29231445 -54.33322266 -198.41259766 -54.50488281 C-129.48642176 -67.25774355 -52.63293309 -46.16027465 0 0 Z M-217.5625 8.4375 C-224.47957795 17.48138066 -223.74286729 31.1574426 -222.57421875 41.921875 C-219.33918761 64.8506308 -207.87934713 84.84799111 -194 103 C-193.3797998 103.81186768 -193.3797998 103.81186768 -192.74707031 104.64013672 C-187.84218473 111.47362844 -187.84218473 111.47362844 -181 116 C-161.1659979 101.03522919 -142.79096136 85.12766904 -128 65 C-127.14083008 63.85922052 -126.28145453 62.71859587 -125.421875 61.578125 C-119.15007022 53.14395885 -113.90242558 44.28821781 -109 35 C-108.65195312 34.34241699 -108.30390625 33.68483398 -107.9453125 33.00732422 C-102.65390264 22.92430401 -98.19122387 12.58284028 -94 2 C-97.12958642 -0.08639095 -98.73519237 -0.45447043 -102.3828125 -1 C-103.45934082 -1.16395264 -104.53586914 -1.32790527 -105.64501953 -1.49682617 C-106.79341309 -1.66287354 -107.94180664 -1.8289209 -109.125 -2 C-110.30046387 -2.17442627 -111.47592773 -2.34885254 -112.68701172 -2.52856445 C-168.35031387 -11.95307737 -168.35031387 -11.95307737 -217.5625 8.4375 Z M-289 43 C-290.65495532 44.70793882 -292.17301253 46.42203939 -293.6875 48.25 C-294.40401733 49.10815308 -294.40401733 49.10815308 -295.13500977 49.98364258 C-331.12178513 92.88364158 -331.12178513 92.88364158 -345.26953125 145.40625 C-344.44344082 153.35587386 -342.0240054 157.94106448 -335.77734375 163.0234375 C-322.09602463 172.76007249 -307.54842722 178.28931834 -291 181 C-290.23558594 181.13277344 -289.47117187 181.26554688 -288.68359375 181.40234375 C-270.41923567 184.01153776 -250.98308126 181.37407113 -233 178 C-225.60120415 155.80361246 -242.92010826 115.69224238 -252.875 95.75 C-253.87485359 93.8197305 -254.89347218 91.90156976 -255.92724609 89.98925781 C-257.06156438 87.88583829 -258.16505001 85.76765795 -259.26953125 83.6484375 C-265.24330281 72.3722558 -272.31687638 62.17022172 -280 52 C-280.763125 50.96746094 -281.52625 49.93492188 -282.3125 48.87109375 C-284.54489457 45.84130322 -284.54489457 45.84130322 -287 43 C-287.66 43 -288.32 43 -289 43 Z M-77.625 74.1875 C-88.53157436 88.10617883 -106 112.58252115 -106 131 C-82.52429906 140.89632546 -59.30949998 148.56058527 -34 152 C-33.24195068 152.103125 -32.48390137 152.20625 -31.70288086 152.3125 C-23.60229931 153.26560971 -15.45755648 153.23966667 -7.3125 153.25 C-6.54419861 153.25200409 -5.77589722 153.25400818 -4.98431396 153.256073 C9.88385261 153.26554169 24.42759349 152.08839068 39 149 C27.63930216 114.29752708 11.15096827 66.33549046 -23.0625 47.625 C-43.1343855 38.61232984 -65.33671528 59.82960943 -77.625 74.1875 Z M-163.8125 132.875 C-165.39976148 135.71536265 -165.87195196 137.73477503 -166 141 C-164.40650019 146.1346105 -162.63279305 149.1987763 -158 152 C-154.12505417 153.26356929 -152.29685195 153.09212647 -148.375 151.875 C-144.28235174 149.60130652 -142.08027905 147.1605581 -140 143 C-139.39790277 137.70154435 -140.76846486 135.15483089 -144 131 C-146.2696632 128.31531268 -147.822213 127.50255346 -151.3125 127.0625 C-156.9885311 126.60103406 -159.9398835 128.868845 -163.8125 132.875 Z M-212 163 C-215.26204423 166.56786088 -215.52636807 170.1153386 -215.34765625 174.78515625 C-214.78975404 178.33943214 -213.38894889 180.3595828 -211 183 C-206.65559324 186.13201418 -203.24126524 186.3717532 -198.1171875 185.578125 C-194.25229708 184.52276747 -192.03797579 182.38396772 -189.6875 179.25 C-188.28978011 174.67564398 -188.31615673 170.58363705 -190.1875 166.25 C-193.20508749 162.50402932 -195.65736428 160.40532399 -200.3125 159 C-205.08303525 159 -208.13005604 160.27186383 -212 163 Z M-173 170 C-177.21989346 176.75182953 -178.82730753 183.06014579 -178 191 C-175.543162 199.47876157 -170.52123373 204.51926501 -163 209 C-156.21352378 211.13411202 -149.14197075 210.91573537 -142.6875 207.9375 C-135.77131169 204.04028278 -131.29583084 198.65276948 -129 191 C-127.88413203 182.95335211 -129.30686289 176.64955331 -134 170 C-138.68392568 164.80632471 -143.20404673 161.43746871 -150.3125 160.7890625 C-159.51948223 160.42415162 -166.82621543 162.98006222 -173 170 Z M-113 166 C-116.94282658 170.25410237 -118.37327621 173.02914554 -118.27734375 178.90234375 C-117.81370299 182.40903514 -116.30716755 184.38925777 -114 187 C-109.634442 189.910372 -106.20499921 190.6506249 -101 190 C-96.62021263 187.72587964 -94.03951736 185.50840679 -92 181 C-90.83011013 177.15607614 -90.92215273 175.26559657 -92.0625 171.375 C-94.79907862 166.6080566 -97.75381217 164.71686846 -102.9375 163.0625 C-107.02152243 162.9791526 -109.44200326 164.02333514 -113 166 Z M-59.5625 199.375 C-60.68076172 199.50100586 -61.79902344 199.62701172 -62.95117188 199.75683594 C-68.48836134 200.42603816 -73.69921443 201.25081681 -79 203 C-74.8498958 251.2722646 -57.51361551 292.87015059 -28.24365234 331.36328125 C-26.82072074 333.23594192 -25.40808068 335.11615145 -24 337 C-20.36581243 335.51402108 -18.54886658 333.55576954 -16.125 330.5 C-15.34253906 329.51515625 -14.56007813 328.5303125 -13.75390625 327.515625 C-13.31965332 326.96068359 -12.88540039 326.40574219 -12.43798828 325.83398438 C-10.85340193 323.81303146 -9.25281192 321.80527013 -7.65234375 319.796875 C-0.27983628 310.49185699 6.66482668 301.04080471 13 291 C13.38494629 290.39623535 13.76989258 289.7924707 14.16650391 289.17041016 C25.53586916 271.23758227 37.13290548 250.66398121 33.6328125 228.6953125 C31.16951919 220.0231703 22.59735022 215.08785424 15.25 210.8125 C1.23629873 202.99926806 -13.95334723 198.7775911 -30 198 C-31.07378906 197.94714844 -32.14757812 197.89429688 -33.25390625 197.83984375 C-42.11190389 197.62739959 -50.76102248 198.3760593 -59.5625 199.375 Z M-196 221 C-199.13112821 225.34317784 -199.37627412 228.76000726 -198.57421875 233.8828125 C-197.46183629 237.98424989 -195.35444083 240.20990951 -191.75 242.3125 C-186.43777868 243.64055533 -182.62436485 243.73556144 -177.6875 241.5 C-174.27703077 238.32747048 -172.73499953 235.60209933 -172 231 C-172.20410014 226.38223424 -173.48875329 223.61611783 -176.4375 220.0625 C-180.1372692 217.08463698 -183.22322665 216.64466276 -187.9375 216.72265625 C-191.42504073 217.1916248 -193.4041149 218.70596201 -196 221 Z M-137.875 225.0625 C-139.54369335 229.41964374 -139.79477062 233.40063301 -139 238 C-137.35998019 241.18241939 -135.03590658 243.21413983 -132.1875 245.375 C-127.09612445 246.82967873 -123.35397201 246.66421268 -118.6875 244.375 C-115.59516903 241.6422424 -114.26275508 239.93682468 -113 236 C-112.71232748 231.06598035 -113.2324246 227.94936957 -116.375 224.0625 C-120.44097348 220.86780655 -122.67382689 219.59518608 -127.9375 219.75 C-132.19956753 220.26661425 -135.02206894 221.92427584 -137.875 225.0625 Z M-350 231 C-338.78232189 264.98435815 -322.3595426 313.44200235 -289 332 C-282.55679985 335.01853499 -276.86207366 335.75073302 -270.03442383 333.29223633 C-268.04435171 332.4063885 -266.11673622 331.44889108 -264.1875 330.4375 C-263.49390381 330.08034912 -262.80030762 329.72319824 -262.08569336 329.35522461 C-233.61651787 314.33138261 -216.44610773 284.55539891 -206 255 C-205.63708544 253.33952359 -205.29590282 251.67371754 -205 250 C-251.43516783 229.56852615 -299.69688177 221.92419748 -350 231 Z M-135.6875 268.1875 C-136.54601562 268.85591919 -136.54601562 268.85591919 -137.421875 269.5378418 C-154.15043427 282.70074299 -169.30347011 296.87733197 -182 314 C-182.4237793 314.56299805 -182.84755859 315.12599609 -183.28417969 315.70605469 C-205.62513813 345.15148654 -205.62513813 345.15148654 -216 379 C-183.56666001 387.80614322 -133.56295943 395.32567197 -102.39453125 378.5078125 C-97.17543238 375.22139787 -91.26175349 371.48090755 -89.5 365.25 C-89.29293264 363.83867249 -89.12959293 362.42053789 -89 361 C-88.87109375 360.16210938 -88.7421875 359.32421875 -88.609375 358.4609375 C-86.71194528 343.48774211 -89.88598971 329.00016229 -95 315 C-95.55494141 313.44732422 -95.55494141 313.44732422 -96.12109375 311.86328125 C-102.58050603 295.12245151 -114.65026492 276.15065708 -128 264 C-131.20870861 264 -133.25158598 266.28030314 -135.6875 268.1875 Z " fill="#000000" transform="translate(414,67)"/>
</svg>
