<?xml version="1.0" standalone="no"?>
<!DOCTYPE svg PUBLIC "-//W3C//DTD SVG 20010904//EN"
 "http://www.w3.org/TR/2001/REC-SVG-20010904/DTD/svg10.dtd">
<svg version="1.0" xmlns="http://www.w3.org/2000/svg"
 width="512.000000pt" height="512.000000pt" viewBox="0 0 512.000000 512.000000"
 preserveAspectRatio="xMidYMid meet">

<g transform="translate(0.000000,512.000000) scale(0.100000,-0.100000)"
fill="#000000" stroke="none">
<path d="M2262 4150 c-593 -26 -980 -129 -1158 -309 -45 -46 -73 -91 -162
-268 l-107 -213 -142 0 c-78 0 -153 -4 -167 -10 -32 -12 -40 -42 -40 -140 1
-83 12 -113 53 -138 l29 -17 -145 -75 c-79 -40 -155 -84 -168 -96 -29 -27 -40
-66 -63 -219 -15 -104 -17 -193 -16 -655 1 -343 7 -598 15 -710 l14 -175 56
-3 c61 -3 69 -11 69 -74 0 -39 19 -75 44 -82 11 -3 208 -6 437 -6 487 0 459
-6 467 99 l4 61 1278 0 1278 0 4 -61 c8 -105 -21 -99 477 -99 328 0 431 3 444
13 11 7 22 37 29 80 l11 67 58 0 59 0 0 38 c0 20 5 99 10 174 50 697 16 1476
-69 1561 -10 11 -83 52 -160 91 l-141 72 29 22 c39 29 55 87 48 176 -9 101 -8
100 -196 104 l-159 3 -13 32 c-44 110 -163 341 -202 392 -152 200 -489 315
-1032 354 -213 15 -558 20 -773 11z m534 -320 c389 -23 682 -77 857 -160 133
-63 264 -248 380 -537 l26 -63 -1499 0 -1498 0 33 78 c53 126 134 283 180 347
86 121 177 182 340 230 305 88 763 129 1181 105z m-2101 -1121 c128 -16 304
-63 400 -108 96 -45 200 -113 215 -141 9 -17 6 -20 -22 -25 -149 -26 -711 -46
-760 -27 -21 9 -28 21 -37 62 -12 57 -14 135 -5 204 l7 46 56 0 c31 0 97 -5
146 -11z m3924 2 c17 -11 20 -101 7 -204 -12 -107 -13 -107 -213 -107 -160 0
-397 12 -511 26 -45 6 -53 10 -59 32 -5 21 0 31 28 55 91 77 352 172 538 196
90 12 193 13 210 2z m-1829 -641 c402 -37 854 -161 929 -256 27 -34 27 -40
-10 -134 l-30 -80 -1117 0 -1117 0 -33 73 c-17 39 -32 83 -32 96 0 13 14 37
33 56 27 27 63 43 192 85 437 141 818 193 1185 160z"/>
</g>
</svg>
