<?xml version="1.0" standalone="no"?>
<!DOCTYPE svg PUBLIC "-//W3C//DTD SVG 20010904//EN"
 "http://www.w3.org/TR/2001/REC-SVG-20010904/DTD/svg10.dtd">
<svg version="1.0" xmlns="http://www.w3.org/2000/svg"
 width="512.000000pt" height="512.000000pt" viewBox="0 0 512.000000 512.000000"
 preserveAspectRatio="xMidYMid meet">

<g transform="translate(0.000000,512.000000) scale(0.100000,-0.100000)"
fill="#000000" stroke="none">
<path d="M1890 4450 c-320 -45 -573 -167 -803 -390 -278 -268 -414 -558 -442
-942 l-7 -98 -62 -41 c-267 -181 -450 -430 -532 -726 -85 -308 -41 -672 113
-938 206 -357 560 -596 953 -645 55 -6 592 -10 1535 -10 1572 0 1536 -1 1712
55 170 54 313 146 456 294 168 174 258 353 292 581 54 351 -49 676 -294 932
-92 97 -180 165 -286 219 -44 23 -82 43 -84 45 -1 1 5 33 15 71 23 89 24 272
1 365 -54 220 -216 419 -421 518 -138 66 -224 84 -385 78 -106 -4 -139 -10
-211 -35 -47 -16 -92 -33 -100 -37 -12 -5 -22 4 -38 33 -41 72 -157 215 -234
286 -200 187 -436 310 -696 365 -111 24 -376 35 -482 20z m-108 -1781 c84 -18
177 -67 234 -124 42 -42 56 -65 73 -120 39 -125 20 -218 -49 -242 -69 -24
-171 -11 -204 26 -9 10 -21 44 -26 75 -5 31 -18 69 -29 85 -24 34 -86 61 -139
61 -53 0 -122 -38 -147 -80 -19 -33 -20 -52 -20 -355 0 -306 1 -322 21 -360
29 -56 73 -79 148 -79 106 1 147 39 166 160 5 31 15 63 22 72 21 25 74 42 128
42 115 0 157 -49 147 -173 -18 -209 -180 -341 -437 -354 -119 -6 -188 5 -270
43 -109 51 -174 129 -206 248 -17 62 -20 715 -4 784 34 144 134 244 290 288
57 16 232 17 302 3z m1209 -18 c124 -48 200 -123 236 -231 16 -49 18 -95 18
-435 0 -373 0 -381 -23 -437 -66 -163 -211 -246 -432 -247 -221 -2 -382 90
-441 251 -22 60 -23 79 -27 397 -4 361 2 431 43 517 45 93 140 166 256 199 83
23 296 15 370 -14z m833 -516 c198 -52 251 -251 109 -412 -15 -17 -79 -68
-141 -113 -105 -77 -132 -103 -132 -129 0 -7 49 -11 144 -11 80 0 156 -4 169
-9 41 -16 54 -96 21 -132 -16 -18 -34 -19 -241 -19 -220 0 -256 4 -275 34 -13
19 -9 155 5 189 22 52 60 90 182 182 64 48 127 103 140 123 51 75 19 152 -62
152 -41 0 -83 -37 -83 -74 0 -42 -40 -78 -88 -80 -61 -1 -87 27 -86 97 2 80
43 141 121 181 72 36 135 42 217 21z"/>
<path d="M2729 2421 c-50 -16 -71 -33 -90 -74 -17 -38 -19 -70 -19 -356 0
-293 1 -317 20 -356 27 -56 69 -79 146 -79 75 0 119 23 148 79 20 38 21 54 21
355 0 295 -1 318 -20 355 -33 66 -125 100 -206 76z"/>
</g>
</svg>
