<?xml version="1.0" standalone="no"?>
<!DOCTYPE svg PUBLIC "-//W3C//DTD SVG 20010904//EN"
 "http://www.w3.org/TR/2001/REC-SVG-20010904/DTD/svg10.dtd">
<svg version="1.0" xmlns="http://www.w3.org/2000/svg"
 width="512.000000pt" height="512.000000pt" viewBox="0 0 512.000000 512.000000"
 preserveAspectRatio="xMidYMid meet">

<g transform="translate(0.000000,512.000000) scale(0.100000,-0.100000)"
fill="#000000" stroke="none">
<path d="M1741 5104 c-173 -46 -308 -193 -340 -368 -16 -86 -14 -323 3 -378
19 -65 59 -113 119 -143 47 -23 61 -25 194 -25 l143 0 0 -113 0 -114 -112 -6
c-134 -8 -214 -26 -302 -67 -189 -89 -336 -270 -382 -467 -11 -49 -32 -377
-73 -1158 -32 -600 -56 -1093 -54 -1097 6 -12 503 -10 503 1 0 69 133 1936
140 1968 36 158 172 295 335 338 87 22 1192 23 1278 0 88 -23 156 -62 219
-126 75 -76 116 -163 129 -271 5 -46 34 -472 64 -948 30 -476 57 -889 61 -917
l5 -53 255 0 c140 0 254 3 254 8 0 4 -27 504 -59 1112 -58 1078 -60 1107 -85
1185 -14 44 -42 109 -63 145 -46 79 -169 203 -245 248 -112 66 -253 101 -410
102 l-68 0 0 115 0 115 143 0 c128 0 147 2 192 24 60 28 87 56 114 116 18 39
21 66 21 210 0 117 -4 183 -15 225 -45 171 -170 295 -342 340 -84 22 -1540 21
-1622 -1z m1279 -1029 l0 -115 -465 0 -465 0 0 115 0 115 465 0 465 0 0 -115z"/>
<path d="M1957 3246 c-59 -21 -103 -62 -131 -118 -24 -52 -26 -74 -89 -1003
-35 -522 -62 -953 -60 -958 2 -4 398 -7 879 -7 l874 0 0 40 c0 21 -27 454 -60
962 -57 881 -61 925 -83 968 -26 51 -91 104 -145 120 -60 16 -1137 13 -1185
-4z"/>
<path d="M713 916 c-189 -60 -283 -235 -239 -446 43 -205 178 -359 384 -439
l67 -26 1597 -3 c1758 -3 1670 -6 1805 59 92 43 216 167 261 260 117 242 62
475 -136 575 l-57 29 -1820 2 c-1486 1 -1828 -1 -1862 -11z"/>
</g>
</svg>
