<?xml version="1.0" standalone="no"?>
<!DOCTYPE svg PUBLIC "-//W3C//DTD SVG 20010904//EN"
 "http://www.w3.org/TR/2001/REC-SVG-20010904/DTD/svg10.dtd">
<svg version="1.0" xmlns="http://www.w3.org/2000/svg"
 width="512.000000pt" height="512.000000pt" viewBox="0 0 512.000000 512.000000"
 preserveAspectRatio="xMidYMid meet">

<g transform="translate(0.000000,512.000000) scale(0.100000,-0.100000)"
fill="#000000" stroke="none">
<path d="M2315 5109 c-800 -83 -1501 -518 -1927 -1196 -606 -964 -489 -2247
282 -3077 425 -457 947 -728 1575 -818 119 -17 512 -16 635 1 622 86 1148 360
1572 820 349 378 572 862 650 1406 17 118 17 512 0 630 -59 416 -191 769 -410
1099 -92 140 -185 254 -315 385 -399 404 -893 653 -1462 737 -123 18 -478 26
-600 13z m540 -614 c662 -100 1237 -545 1502 -1162 39 -91 53 -135 53 -170 0
-65 -28 -109 -87 -135 -42 -19 -53 -20 -108 -10 -106 20 -395 60 -580 81 -414
47 -580 55 -1075 55 -590 0 -925 -24 -1460 -107 -244 -37 -286 -38 -329 -8
-79 56 -81 126 -8 294 129 299 323 552 584 761 286 229 653 377 1028 416 116
11 353 4 480 -15z m-1522 -2198 c470 -124 820 -512 894 -992 27 -177 3 -439
-50 -544 -31 -61 -75 -84 -149 -78 -75 6 -294 95 -438 177 -437 251 -777 682
-910 1157 -34 121 -37 161 -14 209 37 79 144 105 399 100 143 -3 186 -8 268
-29z m2942 18 c98 -17 134 -33 164 -71 34 -43 37 -89 12 -189 -53 -210 -179
-472 -318 -660 -85 -116 -292 -323 -408 -408 -174 -128 -431 -257 -606 -303
-64 -17 -69 -17 -113 0 -58 22 -83 58 -107 149 -68 260 -39 561 75 803 169
356 496 609 876 679 103 18 318 18 425 0z"/>
</g>
</svg>
