<?xml version="1.0" standalone="no"?>
<!DOCTYPE svg PUBLIC "-//W3C//DTD SVG 20010904//EN"
 "http://www.w3.org/TR/2001/REC-SVG-20010904/DTD/svg10.dtd">
<svg version="1.0" xmlns="http://www.w3.org/2000/svg"
 width="512.000000pt" height="512.000000pt" viewBox="0 0 512.000000 512.000000"
 preserveAspectRatio="xMidYMid meet">

<g transform="translate(0.000000,512.000000) scale(0.100000,-0.100000)"
fill="#000000" stroke="none">
<path d="M3707 5110 c-283 -51 -514 -225 -633 -475 -67 -142 -79 -196 -79
-372 l0 -152 -534 -246 -534 -246 -78 84 c-166 179 -360 287 -601 333 -122 24
-331 14 -458 -21 -448 -123 -763 -515 -786 -980 -22 -413 209 -810 578 -996
403 -203 872 -137 1209 169 l54 49 403 -246 c342 -209 402 -249 398 -266 -3
-11 -17 -58 -31 -105 -94 -307 -60 -666 91 -950 155 -291 420 -519 722 -620
152 -50 242 -64 412 -64 170 0 260 14 412 64 364 122 676 433 797 795 51 155
65 244 65 415 0 171 -14 260 -65 415 -121 362 -433 673 -797 795 -153 51 -242
65 -412 64 -166 0 -260 -14 -400 -60 -177 -58 -375 -181 -503 -312 l-59 -59
-401 247 c-309 190 -402 252 -401 266 1 11 11 55 23 99 28 105 38 288 21 401
-6 46 -11 87 -9 91 2 5 243 119 537 254 l533 246 62 -61 c184 -184 433 -273
685 -245 116 12 208 41 317 97 74 38 108 65 190 147 105 105 148 167 196 285
47 115 62 215 56 354 -7 142 -23 208 -81 331 -137 288 -415 470 -736 480 -63
2 -137 0 -163 -5z"/>
</g>
</svg>
