<?xml version="1.0" standalone="no"?>
<!DOCTYPE svg PUBLIC "-//W3C//DTD SVG 20010904//EN"
 "http://www.w3.org/TR/2001/REC-SVG-20010904/DTD/svg10.dtd">
<svg version="1.0" xmlns="http://www.w3.org/2000/svg"
 width="987.000000pt" height="869.000000pt" viewBox="0 0 987.000000 869.000000"
 preserveAspectRatio="xMidYMid meet">

<g transform="translate(0.000000,869.000000) scale(0.100000,-0.100000)"
fill="#000000" stroke="none">
<path d="M1340 8595 c-318 -36 -574 -136 -780 -303 -228 -185 -378 -496 -426
-881 -21 -172 -21 -5940 0 -6112 35 -280 122 -519 254 -696 78 -104 121 -148
224 -224 197 -146 431 -230 738 -265 188 -21 6614 -21 6800 0 300 35 508 106
717 247 298 201 475 558 513 1033 14 180 14 5748 -1 5923 -57 699 -399 1113
-1029 1248 -213 46 -129 45 -3610 44 -2623 -1 -3308 -4 -3400 -14z m6765
-2228 c83 -25 134 -52 203 -108 64 -52 115 -136 149 -244 17 -58 18 -154 18
-2320 l0 -2260 -22 -70 c-64 -200 -196 -313 -410 -350 -78 -13 -470 -15 -3333
-13 -3090 3 -3248 4 -3305 21 -191 57 -306 169 -361 352 -18 57 -19 169 -22
2285 -3 2452 -6 2309 58 2448 41 88 126 174 214 217 141 68 -127 64 3481 62
3117 -2 3273 -3 3330 -20z"/>
<path d="M3753 5499 c-39 -11 -79 -58 -93 -107 -13 -49 -13 -406 1 -457 13
-49 51 -91 98 -107 25 -9 103 -13 256 -13 202 0 223 2 260 21 27 14 47 34 63
65 22 43 23 51 20 276 -3 254 -4 257 -72 307 -26 20 -42 21 -264 23 -130 1
-251 -2 -269 -8z"/>
<path d="M5246 5500 c-35 -11 -63 -36 -84 -75 -13 -24 -17 -68 -20 -214 -5
-216 1 -278 31 -323 44 -65 77 -73 307 -73 113 0 222 4 243 8 20 4 53 21 72
38 49 43 58 98 53 337 -4 228 -10 250 -88 290 -42 21 -55 22 -265 21 -121 0
-233 -5 -249 -9z"/>
<path d="M6736 5500 c-35 -11 -63 -36 -84 -75 -13 -24 -17 -68 -20 -214 -5
-216 1 -278 31 -323 44 -65 77 -73 307 -73 113 0 222 4 243 8 20 4 53 21 72
38 49 44 58 95 53 334 -4 231 -10 253 -88 293 -42 21 -55 22 -265 21 -121 0
-233 -5 -249 -9z"/>
<path d="M2328 4041 c-71 -10 -115 -36 -139 -81 -17 -31 -19 -59 -19 -260 0
-201 2 -230 20 -268 15 -33 29 -47 62 -62 38 -17 67 -20 259 -20 135 0 229 4
250 11 47 16 87 56 99 98 5 20 10 131 10 246 0 249 -8 278 -82 316 -39 20 -60
23 -223 25 -99 1 -205 -1 -237 -5z"/>
<path d="M3810 4040 c-71 -10 -105 -30 -135 -81 -18 -31 -20 -52 -20 -264 0
-212 2 -233 20 -264 11 -19 33 -43 48 -55 27 -20 43 -21 255 -24 248 -3 294 3
336 47 42 44 46 71 46 300 0 205 -1 219 -22 261 -38 74 -68 83 -282 86 -100 2
-210 -1 -246 -6z"/>
<path d="M5300 4040 c-71 -10 -105 -30 -135 -81 -18 -31 -20 -52 -20 -264 0
-212 2 -233 20 -264 11 -19 33 -43 48 -55 27 -20 43 -21 265 -24 230 -3 238
-2 282 20 81 41 85 58 85 323 0 270 -5 289 -83 327 -42 20 -63 22 -222 24 -96
2 -204 -1 -240 -6z"/>
<path d="M6785 4039 c-68 -10 -101 -31 -130 -80 -18 -31 -20 -52 -20 -264 0
-212 2 -233 20 -264 11 -19 33 -43 48 -55 27 -20 40 -21 275 -21 230 0 249 1
282 20 19 12 43 36 55 55 19 32 20 52 20 265 0 270 -5 289 -83 327 -43 20 -63
22 -227 24 -99 2 -207 -1 -240 -7z"/>
<path d="M2252 2560 c-34 -15 -47 -29 -63 -65 -19 -43 -20 -63 -17 -280 3
-264 5 -270 84 -310 36 -18 59 -20 264 -20 264 0 288 6 328 85 22 44 23 52 20
277 -3 254 -4 257 -72 307 -26 20 -43 21 -264 24 -218 2 -240 1 -280 -18z"/>
<path d="M3753 2569 c-40 -12 -79 -58 -93 -111 -7 -25 -10 -118 -8 -247 4
-243 10 -265 86 -303 45 -22 58 -23 272 -23 264 0 288 6 328 85 22 44 23 52
20 277 -3 254 -4 257 -72 307 -26 20 -42 21 -264 23 -130 1 -251 -3 -269 -8z"/>
<path d="M5230 2558 c-81 -41 -85 -58 -85 -323 0 -271 5 -292 84 -329 42 -19
63 -21 266 -21 203 0 224 2 266 21 78 36 84 59 84 324 0 264 -6 288 -85 328
-42 21 -56 22 -265 22 -209 0 -223 -1 -265 -22z"/>
</g>
</svg>
