<?xml version="1.0" standalone="no"?>
<!DOCTYPE svg PUBLIC "-//W3C//DTD SVG 20010904//EN"
 "http://www.w3.org/TR/2001/REC-SVG-20010904/DTD/svg10.dtd">
<svg version="1.0" xmlns="http://www.w3.org/2000/svg"
 width="512.000000pt" height="512.000000pt" viewBox="0 0 512.000000 512.000000"
 preserveAspectRatio="xMidYMid meet">

<g transform="translate(0.000000,512.000000) scale(0.100000,-0.100000)"
fill="#000000" stroke="none">
<path d="M2252 4670 c-236 -48 -505 -167 -694 -310 -98 -74 -161 -140 -730
-773 -343 -381 -639 -712 -659 -737 -76 -96 -129 -220 -154 -367 -19 -107 -19
-181 -1 -275 16 -80 394 -1344 425 -1420 56 -137 183 -256 346 -324 l70 -29
1955 -3 c1792 -2 1958 -1 2005 14 148 49 256 164 291 309 11 51 14 362 14
1998 l0 1937 -1387 -1 c-1312 -1 -1393 -2 -1481 -19z m2438 -1150 l0 -750
-2012 0 -2011 0 20 23 c11 12 246 274 523 582 277 308 529 583 561 610 148
130 414 249 611 274 35 5 568 9 1186 10 l1122 1 0 -750z m0 -1385 l0 -215
-425 0 -425 0 0 215 0 215 425 0 425 0 0 -215z"/>
</g>
</svg>
