<?xml version="1.0" standalone="no"?>
<!DOCTYPE svg PUBLIC "-//W3C//DTD SVG 20010904//EN"
 "http://www.w3.org/TR/2001/REC-SVG-20010904/DTD/svg10.dtd">
<svg version="1.0" xmlns="http://www.w3.org/2000/svg"
 width="1200.000000pt" height="1200.000000pt" viewBox="0 0 1200.000000 1200.000000"
 preserveAspectRatio="xMidYMid meet">

<g transform="translate(0.000000,1200.000000) scale(0.100000,-0.100000)"
fill="#000000" stroke="none">
<path d="M9760 11805 c-821 -151 -1300 -250 -1745 -361 -1013 -252 -1823 -573
-2360 -934 -722 -485 -1085 -1058 -1085 -1715 0 -367 92 -686 390 -1360 238
-538 332 -818 387 -1150 22 -136 25 -489 5 -605 -101 -575 -416 -1015 -1054
-1472 -343 -245 -585 -369 -1748 -893 -954 -430 -1376 -623 -1744 -799 -360
-171 -388 -186 -363 -195 35 -14 162 -45 1457 -356 2012 -484 2610 -625 2648
-625 92 0 119 15 782 428 814 507 1088 704 1457 1048 68 63 129 114 136 114
24 0 689 -119 694 -124 7 -6 -162 -227 -260 -339 -114 -132 -311 -330 -462
-466 -234 -210 -364 -315 -1022 -825 -84 -65 -153 -121 -153 -125 0 -4 91 -28
203 -55 275 -66 2328 -562 3040 -735 318 -78 596 -141 617 -141 21 0 50 4 64
9 13 6 78 74 144 153 66 79 162 193 213 253 141 167 346 445 505 685 454 686
739 1355 868 2040 159 841 52 1615 -323 2335 -185 356 -417 668 -734 987 -161
162 -288 279 -608 554 -543 469 -784 720 -1000 1042 -336 501 -341 907 -16
1348 76 103 410 432 592 583 545 453 936 694 1889 1160 249 123 411 208 404
212 -7 4 -309 95 -670 203 -484 144 -670 196 -705 195 -26 -1 -226 -34 -443
-74z m695 -196 c20 -12 33 -25 28 -30 -9 -9 -431 -196 -543 -241 -85 -35 -109
-36 -169 -12 -33 13 -41 21 -39 38 3 18 51 39 328 143 179 67 333 122 342 123
9 0 33 -10 53 -21z m-889 -360 c82 -37 70 -47 -193 -152 -131 -52 -290 -117
-354 -145 -151 -65 -168 -68 -221 -44 -40 18 -86 57 -77 66 7 7 325 135 549
222 124 48 223 81 233 78 11 -3 39 -15 63 -25z m-998 -450 c54 -18 62 -24 62
-46 0 -22 -30 -39 -344 -193 -189 -92 -370 -185 -402 -205 -141 -91 -211 -104
-300 -60 -28 14 -61 36 -73 49 l-22 23 48 31 c69 43 927 421 959 422 5 0 38
-9 72 -21z m-1380 -788 c52 -27 120 -91 104 -98 -7 -2 -52 -31 -101 -63 -215
-141 -362 -332 -434 -565 -41 -133 -52 -218 -52 -402 l1 -173 -157 0 -158 0
-7 56 c-3 31 -4 129 -1 217 4 129 10 182 30 259 69 261 223 475 482 667 170
126 216 142 293 102z m8 -2486 c189 -401 342 -730 341 -731 -10 -11 -463 -152
-468 -146 -4 4 -134 345 -289 757 -155 413 -284 753 -286 756 -4 7 335 99 350
95 5 -1 163 -330 352 -731z m627 -1620 c322 -797 417 -1418 287 -1884 -30
-107 -55 -150 -97 -167 -33 -14 -46 -13 -217 25 -99 22 -232 50 -294 62 -95
18 -112 25 -107 38 32 78 79 244 97 339 19 98 22 152 22 332 0 305 -21 435
-162 1018 -44 177 -79 322 -78 322 17 9 430 88 450 87 29 -2 32 -8 99 -172z"/>
</g>
</svg>
