<?xml version="1.0" standalone="no"?>
<!DOCTYPE svg PUBLIC "-//W3C//DTD SVG 20010904//EN"
 "http://www.w3.org/TR/2001/REC-SVG-20010904/DTD/svg10.dtd">
<svg version="1.0" xmlns="http://www.w3.org/2000/svg"
 width="422.000000pt" height="59.000000pt" viewBox="0 0 422.000000 59.000000"
 preserveAspectRatio="xMidYMid meet">

<g transform="translate(0.000000,59.000000) scale(0.100000,-0.100000)"
fill="#000000" stroke="none">
<path d="M29 559 c-17 -17 -20 -30 -17 -64 4 -34 27 -74 108 -191 146 -210
161 -228 232 -263 l61 -31 1697 0 1697 0 61 31 c71 35 86 53 232 263 81 117
104 157 108 191 3 34 0 47 -17 64 l-21 21 -2060 0 -2060 0 -21 -21z"/>
</g>
</svg>
