<?xml version="1.0" standalone="no"?>
<!DOCTYPE svg PUBLIC "-//W3C//DTD SVG 1.1//EN" "http://www.w3.org/Graphics/SVG/1.1/DTD/svg11.dtd" >
<svg xmlns="http://www.w3.org/2000/svg">
<metadata>Generated by IcoMoon</metadata>
<defs>
<font id="omeustand" horiz-adv-x="1024">
<font-face units-per-em="1024" ascent="960" descent="-64" />
<missing-glyph horiz-adv-x="1024" />
<glyph unicode="&#x20;" horiz-adv-x="512" d="" />
<glyph unicode="&#xe900;" glyph-name="google-map" d="M806.502 672.973c-3.174 11.878-9.626 24.781-14.438 35.84-57.344 137.83-182.579 187.187-283.75 187.187-135.475 0-284.57-90.726-304.435-277.914v-38.298c0-1.638 0.512-15.974 1.331-23.142 11.162-89.19 81.51-183.91 134.144-273.203 56.525-95.642 115.2-189.542 173.363-283.546 35.84 61.338 71.578 123.494 106.598 183.194 9.626 17.51 20.582 35.021 30.208 51.814 6.349 11.162 18.534 22.323 24.064 32.666 56.525 103.526 147.558 207.872 147.558 310.579v42.291c0 11.162-13.824 50.176-14.643 52.531zM510.771 481.075c-39.834 0-83.354 19.866-104.858 74.854-3.277 8.806-2.97 26.317-2.97 27.853v24.678c0 70.042 59.494 101.99 111.309 101.99 63.693 0 112.947-50.995 112.947-114.688s-52.736-114.688-116.429-114.688z" />
<glyph unicode="&#xe901;" glyph-name="email" d="M532.89 597.504c-6.554-0.614-12.186-2.662-16.896-6.042-4.813-3.482-8.704-7.782-11.776-13.005s-5.325-11.059-6.554-17.715c-1.331-6.656-1.638-13.312-0.922-20.275 0.819-8.909 3.379-15.155 7.68-18.739 4.198-3.584 9.523-5.018 15.872-4.506 3.891 0.41 7.373 1.024 10.138 1.843s5.837 1.946 9.114 3.277l5.734 74.752c-2.253 0.41-4.301 0.614-6.246 0.614-1.843 0.102-3.891 0-6.144-0.205zM70.861 660.89c142.131-141.824 283.955-283.853 425.984-425.677 11.981-12.083 17.408-11.981 29.594 0.102l402.637 402.637c9.83 9.83 23.45 18.227 28.262 30.106 4.915 12.186 1.536 27.955 1.536 42.291 0.102 28.16-13.722 41.882-41.984 41.882h-811.93c-26.726 0-40.653-14.234-40.755-41.165 0-11.264 0.41-22.528-0.205-33.792-0.307-6.861 2.048-11.571 6.861-16.384zM396.39 578.458c4.71 18.534 13.005 35.84 24.781 51.61 11.878 15.872 27.648 29.286 47.206 40.448s43.418 18.022 71.475 20.787c15.053 1.434 29.389 0.717 43.11-1.946 13.824-2.765 26.010-7.782 36.762-15.155s19.661-16.998 26.726-28.979c6.963-12.083 11.366-26.522 13.005-43.52 1.229-12.288 0.307-24.576-2.56-36.966s-7.475-23.654-13.926-33.792c-6.349-10.138-14.438-18.739-24.371-25.702-9.83-6.963-20.992-11.059-33.587-12.493-14.438-1.434-25.702 1.331-33.997 8.090-5.632-3.584-11.571-6.758-17.92-9.626s-14.438-4.813-24.371-5.734c-6.246-0.614-12.39-0.205-18.022 1.024-5.734 1.331-10.752 3.891-15.36 7.475-4.506 3.686-8.294 8.397-11.366 14.336s-5.018 13.107-5.837 21.606c-1.331 13.414-0.205 26.010 3.174 37.581s8.499 21.811 15.462 30.72c6.861 8.806 15.258 15.974 24.986 21.504s20.378 8.909 32.051 10.035c8.909 0.819 17.715 1.024 26.419 0.512 8.704-0.41 16.998-1.638 24.781-3.686l-9.318-102.4c2.15-1.331 5.427-1.843 10.035-1.434 7.373 0.717 13.619 3.482 18.944 8.397s9.523 10.957 12.698 18.33c3.277 7.27 5.427 15.155 6.554 23.859 1.229 8.602 1.331 16.896 0.512 25.088-2.15 22.733-10.752 39.424-25.702 50.176-15.053 10.752-35.021 14.848-60.211 12.493-19.354-1.843-36.25-6.861-50.79-14.848-14.541-8.090-26.419-18.227-35.635-30.413s-15.974-25.702-20.070-40.858c-3.994-15.053-5.325-30.31-3.891-45.978 1.331-14.234 4.608-26.214 9.933-35.84 5.222-9.728 11.776-17.408 19.661-23.040 7.987-5.734 16.896-9.626 27.034-11.674 10.035-1.946 20.582-2.458 31.744-1.434 10.24 1.024 19.661 2.56 28.262 4.608 8.602 2.15 16.282 4.915 23.142 8.397 2.15-4.198 4.301-8.499 6.349-13.005 1.946-4.506 3.891-8.909 5.427-13.414-3.379-2.15-7.475-4.198-12.288-6.042-4.813-1.946-10.035-3.686-15.667-5.12-5.632-1.536-11.674-2.765-18.022-3.891s-12.8-1.946-19.046-2.56c-15.258-1.434-29.901-0.614-43.93 2.458-14.131 3.072-26.726 8.602-37.888 16.589-11.059 7.987-20.275 18.534-27.546 31.539-7.27 13.107-11.776 29.082-13.619 47.821-1.536 17.306 0 35.43 4.71 54.067zM756.634 387.482c-2.355 2.355-4.71 4.506-8.806 8.499-2.355-3.072-4.198-6.349-6.758-8.806-61.338-61.44-122.675-122.778-184.115-184.218-28.774-28.774-61.952-28.877-90.522-0.307-61.338 61.338-122.778 122.778-184.115 184.218-2.56 2.56-4.506 5.734-7.066 9.114-2.97-2.662-3.994-3.482-4.915-4.403-66.97-66.97-133.939-134.042-201.114-200.909-6.042-6.042-5.632-12.288-3.891-19.046 4.71-18.227 18.33-27.546 39.526-27.546h813.056c2.662 0 5.325-0.205 7.987 0.102 13.005 1.536 23.45 7.475 28.979 19.661 5.632 12.39 6.963 19.354-4.608 30.822-65.024 63.693-129.229 128.41-193.638 192.819zM64.922 251.699l174.080 174.080c-58.061 58.573-116.224 117.146-174.080 175.514v-349.594zM958.157 252.826v348.672l-174.285-174.285 174.285-174.387z" />
<glyph unicode="&#xe902;" glyph-name="phone" d="M400.077 598.221c-123.187-71.168 64.717-423.526 199.578-345.702l125.030-216.474c-56.934-32.87-104.96-53.555-170.906-15.872-183.091 104.653-384.614 453.53-378.88 661.606 1.946 72.294 44.646 100.659 100.25 132.813 23.859-41.37 100.966-174.899 124.928-216.371zM451.686 604.058c-13.312-7.68-30.413-3.174-38.195 10.24l-117.76 204.083c-7.68 13.312-3.174 30.413 10.24 38.195l61.952 35.738c13.312 7.68 30.413 3.174 38.195-10.24l117.862-204.083c7.68-13.312 3.174-30.413-10.24-38.093l-62.054-35.84zM773.632 46.49c-13.312-7.68-30.413-3.174-38.195 10.24l-117.76 204.083c-7.68 13.312-3.174 30.413 10.24 38.195l61.952 35.738c13.312 7.68 30.413 3.174 38.195-10.24l117.862-204.083c7.68-13.312 3.174-30.413-10.24-38.195l-62.054-35.738z" />
<glyph unicode="&#xe903;" glyph-name="printer" d="M297.8 957c-29-5.8-53.6-19-76-41-33.4-32.8-45.6-68.4-45.8-133.4v-20.6h670.6l-1.2 34.6c-1 24.6-2.4 38.8-5.4 50.2-11 43-39.2 77.6-79 97.2-32.2 16-15.4 14.8-245 15.4-164.4 0.2-207.6-0.2-218.2-2.4zM121.8 699c-29-5.8-53.6-19-76-41-26.8-26.4-40.4-56-44-97-1.4-14-1.8-70-1.4-146.4 0.8-119.6 1-124.2 5.2-139.4 12.2-43.8 39.8-77.6 79.4-97.2 22.4-11 36-14.2 66.6-15.4l26.4-1.2v160.6h-12.4c-8 0-15.2 1.2-19.6 3.6-21.4 10.6-21.4 42.2 0 52.8 6.6 3.4 28.2 3.6 365 3.6s358.4-0.2 365-3.6c21.4-10.6 21.4-42.2 0-52.8-4.4-2.4-11.6-3.6-19.4-3.6h-12.6v-160.6l27.6 1.2c31.6 1.2 44.8 4.2 67.4 15.4 39.6 19.4 67 53 79.4 97.2 4.4 15.6 4.6 17 4.6 156.8s-0.2 141.2-4.6 156.8c-12.4 44.2-39.8 77.8-79.4 97.2-33 16.4 6.4 15-422 15.4-311 0.2-384.4-0.2-395.2-2.4zM268 570.4c10-5 16-15 16-26.4s-6-21.4-16-26.4c-6.2-3.2-13.6-3.6-61-3.6s-54.8 0.4-61 3.6c-21.4 10.6-21.4 42.2 0 52.8 6.2 3.2 13.6 3.6 61 3.6s54.8-0.4 61-3.6zM236.4 152.6l0.6-169.6 4.8-10.6c6.2-13.8 22.4-28.6 36.2-33 9.6-3.2 29.2-3.4 233-3.4s223.4 0.2 233 3.4c13.8 4.4 30 19.2 36.2 33l4.8 10.6 0.6 169.6 0.6 169.4h-550.4l0.6-169.4zM604 250.4c21.4-10.6 21.4-42.2 0-52.8-6.4-3.2-15.2-3.6-93-3.6-95.8 0-95.2 0-104.4 13.8-9.6 14.2-4 35 11.4 42.6 6.4 3.2 15.2 3.6 93 3.6s86.6-0.4 93-3.6zM604 122.4c21.4-10.6 21.4-42.2 0-52.8-6.4-3.2-15.2-3.6-93-3.6-95.8 0-95.2 0-104.4 13.8-9.6 14.2-4 35 11.4 42.6 6.4 3.2 15.2 3.6 93 3.6s86.6-0.4 93-3.6z" />
<glyph unicode="&#xe904;" glyph-name="share" d="M741.4 958c-56.6-10.2-102.8-45-126.6-95-13.4-28.4-15.8-39.2-15.8-74.4v-30.4l-213.6-98.4-15.6 16.8c-33.2 35.8-72 57.4-120.2 66.6-24.4 4.8-66.2 2.8-91.6-4.2-89.6-24.6-152.6-103-157.2-196-4.4-82.6 41.8-162 115.6-199.2 80.6-40.6 174.4-27.4 241.8 33.8l10.8 9.8 80.6-49.2c68.4-41.8 80.4-49.8 79.6-53.2-0.6-2.2-3.4-11.6-6.2-21-18.8-61.4-12-133.2 18.2-190 31-58.2 84-103.8 144.4-124 30.4-10 48.4-12.8 82.4-12.8s52 2.8 82.4 12.8c72.8 24.4 135.2 86.6 159.4 159 10.2 31 13 48.8 13 83s-2.8 52-13 83c-24.2 72.4-86.6 134.6-159.4 159-30.6 10.2-48.4 13-82.4 12.8-33.2 0-52-2.8-80-12-35.4-11.6-75-36.2-100.6-62.4l-11.8-11.8-80.2 49.4c-61.8 38-80.4 50.4-80.2 53.2 0.2 2.2 2.2 11 4.6 19.8 5.6 21 7.6 57.6 4.2 80.2-1.2 9.2-2.2 17.4-1.8 18.2 0.4 1 48.6 23.8 107.4 50.8l106.6 49.2 12.4-12.2c36.8-36.8 86.6-54.6 137-49 23.2 2.4 41.6 8.2 63.4 19.4 14.8 7.6 21.6 13 38 29.4 21 21 29.6 33.4 39.2 57 9.4 23 12.4 43 11.2 70.8-1.4 28.4-4.6 41.6-16.2 66.2-27.4 57.6-83 94-147.2 96-12.6 0.4-27.4 0-32.6-1z" />
<glyph unicode="&#xe905;" glyph-name="servico1" d="M396.4 877.6l0.6-82.6 57.4-0.6 57.6-0.4 0.4-49.8 0.6-49.8 59.6 49.8 59.8 49.8h159.6v166h-396l0.4-82.4zM760 877v-49h-138.4l-74.6-62.2-2 61.2-57.4 0.6-57.6 0.4v98h330v-49zM462.4 877.6l0.6-16.6h32l0.6 16.6 0.6 16.4h-34.4l0.6-16.4zM528.4 877.6l0.6-16.6 65.6-0.6 65.4-0.4v34h-132.2l0.6-16.4zM694 877v-17h32v34h-32v-17zM336.8 708.2c-30.8-8.8-56-32.8-67.2-63.8-3.2-9-4.4-18-5-41.4-1.4-43.6 3.8-62.8 24.4-88 9-11 9.2-11.2 8.6-24.6l-0.6-13.4-38-11c-40.8-11.8-48.4-15.6-60-28.2-14.4-16-16-22-16.6-66.2l-0.8-39.6h-65.6v-98h32v-264h-148v-34h1024v34h-92c-86.2 0-92 0.2-92 3.6 0 1.8-2.8 30-6 62.4s-6 60.8-6 63.2c0 3.2 2 4.6 9.8 6.4 19.4 4.4 36.2 14.2 52.2 30.2 16.6 16.8 24.4 29.6 30.2 49.8 3.6 12.6 3.8 21 3.8 129.8v116.6h-65.6l-0.8 20.6c-0.6 17.8-1.4 21.6-6.2 29.8-2.8 5-9.4 12.8-14.6 17.4l-9.2 8 8 9.6c18 21.8 22.4 37 22.4 79.6 0 25.4-0.8 34.4-3.8 44.2-15.6 51.2-69.8 81.4-120.6 67-33.8-9.8-60-36.2-69.8-71.2-2-6.8-2.8-20.2-2.6-42 0.2-34.6 2.8-47 14-66.4 7-11.8 28.4-31.2 40.6-36.8l10.4-4.6-89.2-89.2h-93v5.6c0 8-10.4 28.2-19 37.2-10.2 10.4-21 15-61 26.4l-34 9.6v14.8c0 14.2 0.2 15 7.6 23.4 10 11.4 17.6 25.6 21.4 40 4.2 16.8 4.2 68.4-0.2 83.2-16.2 54.2-69.8 85-122 70zM390.2 672.6c27.2-11.8 39.8-35.8 39.8-75.6 0-41-11.8-63.6-39.8-76.6-16.4-7.6-38.6-7.6-54.4 0.2-14.8 7.2-28 21.6-33.6 36-3.6 9.8-4.2 15.8-4.2 40.4 0 24 0.6 30.6 4 39.6 7.8 20.6 26 36 48 40.6 14 3 26 1.6 40.2-4.6zM779.6 675.6c16.2-4 32.6-19 41-37 4-8.6 4.4-12.8 4.4-41.6 0-30.2-0.2-32.6-5.2-43-7.2-15.6-16-24.8-30-31.8-27.8-13.8-58.6-8.4-78.8 14.2-13.4 14.6-15.8 23-16.6 55.4-0.8 32.8 0.8 42 11 57.6 16.4 25 42.4 34.2 74.2 26.2zM363 483c11 0 23 0.8 26.6 1.6l6.4 1.8v-9c0-11-6-19.2-18.6-25.2-11-5.2-18.4-5.2-28.4 0-12.6 6.4-19 15-19 25.4v9l6.6-1.8c3.4-1 15.4-1.8 26.4-1.8zM787 475c3.6-3.4 5-7 5-12.4 0-7.2-2.4-10-61.4-69l-61.6-61.6h-87.6c-92.2 0-96.8 0.4-100.2 9-1.8 4.8-1.4 12.8 0.8 17 3.8 7.2 12.2 8 91.8 8h77l57.2 57c57 56.6 57.4 57 65.8 57 6.2 0 9.6-1.2 13.2-5zM824 238.4c-4.2-17.4-17.8-31.4-35.2-36.2-4.8-1.4-33.2-2.2-76.2-2.2h-68.6v34h50v75l60.8 61c57.2 57.4 68.2 70.2 69.6 81.4 0.4 2 0.8-43.2 1.2-100.4 0.4-68.6-0.2-107-1.6-112.6zM496.8 421.2c6.2-4 13.2-14.4 13.2-19.6 0-3-2-3.6-12.4-3.6-20.6-0.2-37-9.8-46.2-27-3.4-6.2-4.4-11.4-4.4-23.4l0.2-15.6h-233.6l0.8 35.6c1 51.2 1.2 51.6 52.8 66.6 18.6 5.2 35 9.8 36.4 9.8s8.2-4.8 15.2-10.8c14.6-12.4 28-17.6 44.8-17.4 19.4 0.2 34.6 6.8 49 21.8l7.6 7.8 35.6-10.2c19.6-5.8 38-12 41-14zM891.6 298.6c-0.6-98.4-0.6-99.8-5.2-111-8.8-21.8-26.2-39.2-48-48-11.2-4.4-13-4.6-102.8-5.2l-91.6-0.6v34l153 1.2 13.4 6.4c17.6 8.2 32 22.6 40.2 40.2l6.4 13.4 0.6 84.6 0.6 84.4h34l-0.6-99.4zM660 283v-17h-512v15.6c0 8.6 0.6 16.4 1.4 17 0.6 0.8 115.8 1.4 256 1.4h254.6v-17zM611 217v-16l-347-1v-32l347-1 0.6-98.4 0.4-98.6h-41l-16.6 33-16.4 33h-284l-16.4-33-16.6-33h-39v198h50v32h-50v34l429-1v-16zM728.8 94.6c0.6-4.2 3.4-31.4 6.2-60.6s5.4-55.4 6-58.4l1-5.6h-98v132h83.6l1.2-7.4zM794.8 94.6c0.6-4.2 3.4-31.4 6.2-60.6s5.4-55.4 6-58.4l1-5.6h-17c-14.8 0-17 0.4-17 3.6 0 1.8-2.8 30-6 62.4s-6 60.6-6 62.6c0 3 2 3.4 15.8 3.4h15.8l1.2-7.4zM526-14l8-16h-276l16 32h244l8-16z" />
<glyph unicode="&#xe906;" d="M291 961c-76.598-77.597-153.597-154.931-231-232-4-7.334-4-14.666 0-22 129-129 258-258 387-387 8-4 16-4 24 0 68 68 136 136 204 204 61.404 0.034 109.404 25.368 144 76 64.666 0.666 129.334 1.334 194 2 3.724 2.732 7.056 5.732 10 9 0 90.666 0 181.333 0 272-3.94 6.654-9.94 10.321-18 11-41.334 1.333-82.666 1.333-124 0-6.096-1.213-11.096-4.213-15-9-2.618-9.132-3.618-18.465-3-28-20.678 0.333-41.344 0-62-1-10.46-5.012-15.126-13.345-14-25-13.016 1.421-25.684 4.421-38 9-50.874 28.771-102.874 55.437-156 80-31.3 11.014-63.3 13.681-96 8-37.666-12-74.998-25-112-39-24.762 24.097-49.428 48.097-74 72-6.666 0-13.334 0-20 0zM299 909c15.848-12.51 30.516-26.51 44-42-28.292-16.303-56.292-15.97-84 1 13.738 13.404 27.072 27.070 40 41zM513 889c22.666 1.708 44.666-1.292 66-9 50.178-22.753 98.844-48.086 146-76 19.836-8.434 40.504-13.434 62-15 0.334-54.004 0-108.004-1-162-47.102-66.488-104.768-77.488-173-33-8.736 8.066-16.736 16.732-24 26-59.12 19.484-117.786 40.15-176 62-20.090 14.264-25.090 32.598-15 55 8.040 10.686 18.706 16.686 32 18 65.554-19.184 130.888-39.184 196-60 22.506 6.768 26.84 19.768 13 39-49.31 15.996-98.644 31.996-148 48-23.666 23.667-47.334 47.333-71 71-0.912 2.488 0.088 4.155 3 5 30.196 10.618 60.196 20.951 90 31zM905 853c26 0 52 0 78 0 0-70.667 0-141.334 0-212-26 0-52 0-78 0 0 70.666 0 141.333 0 212zM225 835c11.208-4.93 22.542-9.93 34-15 40.644-12.28 78.978-7.28 115 15 14.248-12.244 27.914-25.244 41-39-25.74-6.428-45.074-21.095-58-44-52-12.952-82.334-45.952-91-99-3.354-63.298 24.98-104.964 85-125 69.336-11.508 116.336 15.492 141 81 20.892-7.52 41.892-14.854 63-22-5.35-35.952 1.984-69.286 22-100-13.638-14.638-27.638-28.972-42-43-12.154 5.72-24.82 11.054-38 16-22.514 5.696-45.182 6.362-68 2-16.258-4.514-31.592-10.514-46-18-66.666 66.666-133.334 133.334-200 200 31.986 49.372 31.986 98.704 0 148 14.405 14.070 28.406 28.404 42 43zM829 815c11.334 0 22.666 0 34 0 0-58 0-116 0-174-11.334 0-22.666 0-34 0 0 58 0 116 0 174zM151 761c18.17-28.118 18.503-56.784 1-86-14.333 14.334-28.667 28.666-43 43 14.405 14.070 28.405 28.404 42 43zM347 705c2.5-0.154 4.166-1.488 5-4 7.526-27.514 23.858-47.848 49-61 16.968-5.764 33.634-12.096 50-19-18.274-45.138-50.942-61.47-98-49-46.064 25.538-57.064 61.872-33 109 8.198 9.216 17.198 17.216 27 24zM597 553c9.946-5.642 19.946-11.31 30-17-6.334-6.334-12.666-12.666-19-19-6.7 11.096-10.366 23.096-11 36zM445 423c20.172 2.368 38.838-1.632 56-12-13.334-14.666-27.334-28.666-42-42-14.666 13.334-28.666 27.334-42 42 8.704 5.994 18.036 9.994 28 12z" />
<glyph unicode="&#xe907;" d="M691 715c22.308 0.042 30.64-10.626 25-32-13.472-13.692-26.14-13.026-38 2-4.27 14.1 0.064 24.1 13 30z" />
<glyph unicode="&#xe908;" d="M517-63c114.736 39.25 229.402 79.584 344 121 38.802 14.452 60.802 42.12 66 83-7.352 57.68-40.018 84.014-98 79-52.744-14.020-105.412-28.352-158-43-1.884 0.216-3.55 0.882-5 2-10.282 23.616-27.282 40.616-51 51-51.184 17.728-102.518 35.062-154 52-9.292 9.954-19.292 19.288-30 28-88.696 54.078-164.696 40.078-228-42-64-0.666-128-1.334-192-2-5.045-2.72-9.045-6.386-12-11 0-90 0-180 0-270 3.138-5.456 7.805-9.124 14-11 44-1.334 88-1.334 132 0 5.667 3 10 7.334 13 13 0.998 7.972 1.331 15.972 1 24 21.344-0.334 42.678 0 64 1 8.452 5.234 12.452 12.9 12 23 16.142-0.228 31.474-3.896 46-11 41.398-24.704 84.066-47.37 128-68 18.71-9.016 38.044-15.35 58-19 16.666 0 33.334 0 50 0zM325 301c43.6 0.532 78.266-16.468 104-51 55.032-20.122 110.366-39.456 166-58 35.262-15.082 42.594-38.416 22-70-10.718-8.146-22.718-10.812-36-8-61.344 20.226-123.010 39.226-185 57-16.372-2.004-23.040-11.338-20-28 2.244-4.248 5.244-7.914 9-11 60.666-19.334 121.334-38.666 182-58 40.536-9.612 72.202 2.722 95 37 3.348 7.042 5.68 14.374 7 22 54.688 14.782 109.354 29.782 164 45 35.346 3.986 51.68-11.682 49-47-7.122-15.788-18.79-26.788-35-33-111.084-40.138-222.418-79.472-334-118-24.694-3.124-48.694-0.456-72 8-50.88 24.44-100.88 50.44-150 78-17.96 7.326-36.628 10.994-56 11-0.334 54.004 0 108.004 1 162 20.362 34.322 50.028 54.99 89 62zM39 225c26 0 52 0 78 0 0-70 0-140 0-210-26 0-52 0-78 0 0 70 0 140 0 210zM159 225c11.333 0 22.667 0 34 0 0-57.334 0-114.666 0-172-11.333 0-22.667 0-34 0 0 57.334 0 114.666 0 172z" />
<glyph unicode="&#xe909;" d="M321 195c18.592-1.596 26.26-11.596 23-30-6.554-11.218-16.22-14.884-29-11-12.266 8.818-14.6 19.818-7 33 4.026 3.496 8.36 6.164 13 8z" />
<glyph unicode="&#xe90a;" glyph-name="servico3" d="M160.6 915.8c-7.8-5-14.6-18.4-14.6-29 0-21.6 19.6-67.4 51.6-120.2 20-33 22-39.4 13.8-47.2-2.6-2.4-12.8-10-22.8-17-98.4-68.2-181.6-224-188-351.6-3.6-72 21.6-138.8 71.4-188.8 53.4-53.8 124-84.2 213.6-92.2 14.4-1.2 33.6-1.8 42.4-1.4 15 0.6 16.8 1.2 21.2 6.2 6.2 7.2 6.2 14.2-0.2 20.4-4.4 4.6-6.4 5-23.4 5-127.8 0.2-227.4 51.4-270.6 139-17.8 36.2-24.4 69.8-22.4 111 6.2 114.8 77.6 253.6 164.8 319.4 29.8 22.6 20.8 20.6 95.2 20.6 66 0 73.4 0.8 78.6 7.6 4.2 5.6 3.4 15.2-1.8 20-4.6 4.4-5.8 4.4-63 4.4h-58.4v10.6c0 12.2-2 16.6-23.8 52.2-24.8 40.2-46.2 86.4-46.2 99.6 0 3 1.6 3.6 10.2 3.6 15 0 35.8-3.6 65.8-11.4 46.4-12 86.6-11.6 140.8 1.6 24.8 6.2 60.2 11.4 62.2 9.4 3.6-3.6-17.8-53.4-40.2-93.8l-13.2-23.8h-127.8l-4.8-5c-6-5.8-6.4-14.8-1.2-21.2l3.8-4.8 116.4-1.2v-8.4c0-10.6 7.6-27 15.4-33.4 3.4-2.8 14.6-10.8 24.8-18 24.4-16.8 70.4-62.8 88.2-88 7.4-10.4 18-27.4 23.8-37.6 5.6-10.2 12-19.4 14-20.4 10.4-5.8 23.8 1.6 23.8 13 0 8-20.6 43.6-40.8 70.4-20.4 27.6-56.2 63.4-83.2 83.2-11.6 8.6-24 17.8-27.4 20.6-10.6 8-9.2 14 9.8 47.2 30 52.2 48 94.2 50.8 118.2 1.6 13.6-3.8 26.4-13.4 32.2-5.6 3.4-9 3.6-28.6 2.6-12.2-0.8-32-3.6-44.2-6.4-51.6-12-51-12-85-11.8-31 0-34.4 0.4-57 6.6-47 12.8-87.8 16.2-100.4 8zM776 641.8c-95.2-4-165.2-27.6-180.2-60.8-3.4-7.2-3.8-14.4-3.8-77 0-78.6 0-78.2 16.6-93.4 20.4-18.8 62.8-33 122.4-41 26.8-3.6 127-3.6 154 0 40.6 5.4 72.2 13.8 103.6 27.4 3 1.2 3.4 0.2 3.4-9.4 0-12.8-2.6-16-21-25.2-35.8-17.8-90.2-26.4-165.8-26.6-24 0-45.2-0.8-47.2-1.8-5.6-3-9-13.2-6.4-19 4.8-10.6 8.6-11.2 55.8-11.2 72.8 0 132.2 9.2 170.4 26.4 7 3.2 13 5.8 13.4 5.8s0.8-4.8 0.8-10.8c0-9.8-0.6-11.4-6.4-16.4-21.6-18-78.2-31.4-149.6-35-22.6-1.2-43-3-45.6-4-10.4-4.2-10.6-18.6 0-26.4 5.2-4 6.6-4 47-1.6 66.4 3.6 114 12.8 143 27.4 5.2 2.6 10 4.8 10.6 4.8s1-4.8 1-10.6c0-13-4.6-18.4-24-27-31.2-14.2-76.6-22.4-138.8-25.6-25.6-1.2-28.4-1.8-32.6-6-6.4-6.4-5.8-13.8 1.2-21 6.8-6.8 8-6.8 52.2-3.8 53.8 3.8 92.2 11.4 125 24.6l17 6.8v-11.6c0-10.8-0.4-11.8-7.4-17.6-22-18.2-84-31.8-158.6-35.2-32-1.4-36.8-3-39-13-1.6-7.6 2.8-15.2 10.6-18.2 6.6-2.6 71.2 0.8 101.2 5.4 61 9 104.2 27.4 118.2 49.8l6 9.6 0.6 195.2c0.6 220.4 1.6 204.8-15.4 220.8-14.8 13.8-49.4 29.4-65.4 29.4-12.6 0-19.6-17-10.2-25.4 2.4-2.4 10.2-6.2 17.4-8.6 17.4-5.8 35.8-15.8 39.4-21.2 3.8-6 1-11.2-10-17.6-31-18.2-84.2-28.8-153.4-30.6-80-2.2-152 9.2-187.6 29.6-13 7.4-16.6 14-11.2 20.2 10 11.2 52.6 25.8 95 32.6 29.4 4.8 111.8 6.4 146.4 2.8 14.6-1.6 28.2-2.6 30.4-2.2 5.4 0.6 13 9.6 13 15.4 0 2.6-2 7-4.4 9.8-5.6 6.4-19.6 8.6-60.6 10.2-15.4 0.6-30.6 1.4-34 1.6-3.2 0.4-20 0-37-0.8zM659 509c86.4-28.2 248.8-24.2 318.2 8l14.8 6.8v-11c0-8.8-1-11.8-4.8-15.8-14.8-14.8-65.8-29.6-121-35-26.6-2.6-89.8-2.6-116.4 0-55.2 5.4-106.2 20.2-121 35-4 4-4.8 7-4.8 16v11l10-5c5.4-2.8 16.6-7.2 25-10zM637 455c43.2-19.2 108.8-28.4 188.8-26.4 72 1.8 116.4 10 163.8 30.8 2 0.8 2.4-1.6 2-10.6-0.6-11.6-0.8-12-10-18-17.6-11.8-48.4-21.4-90.6-28.2-31.6-5.2-134.4-5.2-166 0-42.2 6.8-73 16.4-90.6 28.2-9.2 6-9.4 6.4-10 17.8-0.4 6.2-0.2 11.4 0.2 11.4 0.6 0 6-2.2 12.4-5zM548 394.8c-2.8-0.4-11.2-1.8-19-3-24.8-4-62.4-19-71-28.2-5.4-6-5.2-14.6 1-20.6 6.6-6.8 12-6.2 31.4 3 27 13 44 16.6 76.6 16.6 34 0 50.2-3.8 80-18.4 35.4-17.4 61.2-43.2 79-79.2 14.2-28.4 18.4-46 18.6-78 0.2-20.6-0.6-29.6-4.2-43.6-16.8-67-69.8-118.4-136.6-132.4-20.6-4.4-57-3.8-77.6 1-51.6 12.4-94.6 47-119 95.4-20 40-23.4 90.4-9 133.6 7.6 23 16.6 38.8 34 60.4 14.2 17.8 16.4 24 11 31-3.8 5-12.4 7.8-17.6 5.8-13.6-5.4-41.2-43.8-53.6-74.8-42-105 8.6-227 112.6-270.8 30.4-12.8 44.6-15.4 82.4-15.6 30.8 0 35.8 0.6 53.4 5.4 73.4 20.4 127.4 73.8 148.6 146.6 9 31.6 9.8 72.2 2 106-15 65-65.8 122.6-129 146.2-9.8 3.8-24.4 8.2-32.4 9.8-14.6 3.2-52.2 5.4-61.6 3.8zM554 281.2c-27.2-7.8-48.6-29-57.4-56.4l-3.4-10.8h-23.2v-24h10.2c9.6 0 10.2-0.2 9-4.4-0.6-2.6-1.2-8.4-1.2-13v-8.6h-18v-24h21.8l3-10.8c7-23.6 24.8-42.6 48-50.6 16-5.6 50.2-4.8 67.2 1.6l13 4.8 0.6 17.8c0.6 16.4 0.2 17.6-3 16.2-24.6-10.2-41.6-13-56.2-9.2-12.6 3.4-28.4 19-28.4 28.2 0 1.2 9.8 2 28 2h28v24h-62v26h62v24h-28c-18 0-28 0.8-28 2 0 4.8 8.2 17.8 14.8 23.6 12.4 10.8 29.8 13 53.2 6.6 7.2-2 14.6-4.2 16.6-5 3-1.4 3.4 0 3.4 17.4v19.2l-7.4 2.2c-11.8 3.6-52 4.4-62.6 1.2z" />
<glyph unicode="&#xe90b;" d="M1023 461c-12.318 59.904-25.318 119.904-39 180-14.808 32.812-39.142 55.146-73 67 15.7 15.062 25.366 33.394 29 55 1.334 33.333 1.334 66.667 0 100-1.334 5.333-2.666 10.667-4 16-23.38 52.861-63.714 73.861-121 63-45.986-14.994-70.652-46.66-74-95-16.666 0-33.334 0-50 0 0-12 0-24 0-36 16.666 0 33.334 0 50 0-0.332-14.682 0-29.348 1-44 6.358-38.38 27.358-65.38 63-81-48.666-48.666-97.334-97.334-146-146-42.758 4.68-85.426 10.68-128 18-9.076 0.544-17.41 2.876-25 7-17.45 40.902-35.45 81.568-54 122-1.334 2-1.334 4 0 6 28.126 43.47 55.458 87.469 82 132 38.324 55.008 91.324 83.675 159 86 0 11.333 0 22.667 0 34-81.764-2.038-145.43-36.705-191-104-48-77.333-96-154.666-144-232-84.396 81.064-169.396 161.398-255 241-30.874 22.722-65.541 32.389-104 29 0-200.666 0-401.334 0-602 16.207 17.21 32.874 34.21 50 51 16.313 13.834 34.313 25.168 54 34 86.24 34.51 166.24 23.842 240-32 67.658-61.264 95.658-137.598 84-229 120.008 0.666 240.008 0 360-2-3.79-16.618-7.458-33.284-11-50-18.492-9.412-36.824-19.078-55-29-4.912-4.816-8.578-10.482-11-17-5.628-23.748 2.704-40.080 25-49 88.666-1.334 177.334-1.334 266 0 9.71 4.714 17.042 11.714 22 21 0 162 0 324 0 486zM835 911c40.948-1.122 64.948-21.789 72-62-43.312-1.999-86.646-2.666-130-2 4.040 35.366 23.374 56.7 58 64zM33 843c17.698-3.184 33.698-10.184 48-21 83.396-80.064 167.396-159.398 252-238-16.666-1.334-33.334-1.334-50 0-18.1 14.77-36.768 28.77-56 42-56.667 56.666-113.333 113.334-170 170-7.504 4.587-15.171 8.92-23 13-0.999 11.314-1.332 22.647-1 34zM777 811c43.334 0 86.666 0 130 0 3.15-24.902-1.184-48.235-13-70-27.434-29.462-58.434-33.796-93-13-11.752 9.76-19.418 22.094-23 37-1 15.319-1.332 30.652-1 46zM33 767c35.496-32.492 70.163-66.158 104-101-47.136 1.85-71.136-20.484-72-67-10.667 0-21.333 0-32 0 0 56 0 112 0 168zM853 679c31.306-1.288 41.638-16.62 31-46-43-43-86-86-129-129-11.994 7.008-24.66 13.674-38 20-6 2-12 4-18 6 46.666 46.666 93.334 93.334 140 140 4.52 3.576 9.186 6.576 14 9zM925 661c13.9-10.93 23.566-24.93 29-42 10.758-53.126 21.758-106.126 33-159-57.784-26.424-118.452-40.758-182-43-4.020 22.076-12.688 42.076-26 60 44.638 45.64 89.638 90.972 135 136 8.708 14.834 12.374 30.834 11 48zM427 653c13.116-26.912 25.784-54.246 38-82-1.334-0.666-2.666-1.334-4-2-22.626 3.882-45.294 7.548-68 11-3.088 0.58-5.754 1.912-8 4 14.776 22.556 28.776 45.556 42 69zM115 629c20.011 0.332 40.011 0 60-1 14.887-16.9 31.554-31.566 50-44-36.667-1.334-73.333-1.334-110 0-14.123 7.022-18.457 18.022-13 33 3.828 4.712 8.161 8.712 13 12zM33 563c16.68 0.332 33.347 0 50-1 8.693-7.346 18.693-12.012 30-14 49.329-1 98.662-1.334 148-1-1.23-44.812-9.896-88.146-26-130-74.265 6.688-141.265-11.978-201-56-1 67.33-1.333 134.664-1 202zM297 547c29.34 0.334 58.674 0 88-1 102.070-16.296 204.070-32.962 306-50 26.364-8.368 47.698-23.702 64-46-53.996-1-107.996-1.334-162-1 0-32.666 0-65.334 0-98 67.538-11.174 134.872-23.508 202-37 3.974-2.638 6.308-6.304 7-11 0.564-22.708 1.564-45.374 3-68-118.674-0.666-237.34 0-356 2-33.080 85.416-93.080 142.416-180 171 16.884 44.754 26.218 91.086 28 139zM983 421c2 0 4 0 6 0 0-116.666 0-233.334 0-350-21.334 0-42.666 0-64 0 2.628 107.414-6.704 213.746-28 319 0.29 1.544 0.956 2.878 2 4 29.312 5.662 57.312 14.662 84 27zM627 415c48 0 96 0 144 0 3.22-19.85 4.554-39.85 4-60-49.41 8.236-98.744 16.902-148 26 0 11.334 0 22.666 0 34zM855 387c2.666 0 5.334 0 8 0 20.454-104.34 29.122-209.674 26-316-24 0-48 0-72 0 1.944 11.388 4.278 22.72 7 34 12.538 7.732 18.872 19.066 19 34-2.192 57.998-4.526 115.998-7 174-3.5 14.494-11.834 25.16-25 32-1.992 12.596-2.66 25.264-2 38 15.764-0.278 31.098 1.056 46 4zM459 201c115.334 0 230.666 0 346 0 1.198-21.312 1.866-42.646 2-64-114.666 0-229.334 0-344 0-0.274 21.406-1.608 42.738-4 64zM809 35c18.012 0.332 36.012 0 54-1-11.502-4.578-21.836-10.91-31-19-5.374-8.508-8.374-17.842-9-28-26.984-0.96-53.65 0.040-80 3 16.696 10.35 34.030 19.684 52 28 5.846 4.832 10.514 10.5 14 17zM921 35c22.666 0 45.334 0 68 0 0-16 0-32 0-48-43.334 0-86.666 0-130 0-0.438 2.35 0.228 4.35 2 6 17.648 8.49 34.98 17.49 52 27 4.080 4.37 6.748 9.37 8 15z" />
<glyph unicode="&#xe90c;" d="M-1 123c13.239-72.254 53.239-123.922 120-155 61.871-23.256 121.87-19.256 180 12 79.71 53.802 110.042 128.134 91 223-30.364 93.338-94.698 142.67-193 148-108.301-7.766-174.301-64.432-198-170 0-19.334 0-38.666 0-58zM175 315c3.892-9.792 5.226-20.458 4-32 12 0 24 0 36 0-0.656 10.75 0.010 21.416 2 32 15.974-2.658 31.308-7.326 46-14-4.934-8.204-9.6-16.536-14-25 8.112-7.754 17.446-14.088 28-19 6.118 7.156 11.118 15.156 15 24 1.436 1.902 3.102 2.234 5 1 12.752-9.418 23.418-20.75 32-34-8.5-4.748-16.832-9.748-25-15 0.064-4.196 1.398-8.196 4-12 3.378-6.782 7.712-12.782 13-18 8.172 4.92 16.506 9.586 25 14 8.066-14.924 12.398-30.924 13-48-10 0-20 0-30 0 0-11.334 0-22.666 0-34 10.688 0.332 21.354-0.002 32-1-2.308-15.514-6.642-30.514-13-45-0.828-0.914-1.828-1.582-3-2-8 4.666-16 9.334-24 14-6.634-7.91-12.302-16.576-17-26-1.498-2.27-1.166-4.27 1-6 8.336-4.5 16.336-9.5 24-15-10.334-13-22-24.666-35-35-3.492 7.654-7.492 14.986-12 22-1.44 3.51-3.774 5.178-7 5-7.482-5.464-15.482-10.132-24-14-1.044-1.122-1.71-2.456-2-4 4.634-8.646 9.3-17.314 14-26-15.358-6.738-31.358-11.072-48-13 0 10.666 0 21.334 0 32-12 0-24 0-36 0 0-10.666 0-21.334 0-32-16.641 1.928-32.641 6.262-48 13 5.585 8.836 10.919 17.836 16 27-9.669 6.504-19.669 12.504-30 18-5.532-9.090-11.532-17.756-18-26-13.071 8.736-23.737 19.736-32 33 6.58 5.968 13.913 10.968 22 15 2.165 1.73 2.499 3.73 1 6-4.554 9.524-10.221 18.19-17 26-8-4.666-16-9.334-24-14-8.64 14.612-13.306 30.612-14 48 10.667 0 21.333 0 32 0 0 11.334 0 22.666 0 34-10.667 0-21.333 0-32 0 0.981 17.29 5.648 33.29 14 48 8.204-4.934 16.537-9.6 25-14 6.304 7.252 11.638 15.252 16 24 1.561 2.888 1.228 5.554-1 8-7.748 4.736-15.748 9.068-24 13 10.333 13 22 24.666 35 35 5.667-8.666 11.333-17.334 17-26 10.331 5.496 20.331 11.496 30 18-4.333 7.334-8.667 14.666-13 22-1.499 2.27-1.165 4.27 1 6 13.213 5.286 26.546 9.286 40 12zM193 201c37.896-3.558 54.896-24.224 51-62-15.728-34.696-40.728-43.696-75-27-22.895 21.186-25.895 44.852-9 71 9.033 10.010 20.033 16.010 33 18z" />
<glyph unicode="&#xe90d;" d="M183 235c52.576 2.91 84.908-21.090 97-72 3.222-48.596-18.444-79.596-65-93-49.878-6.75-82.878 13.584-99 61-7.306 54.108 15.028 88.774 67 104zM193 201c-12.967-1.99-23.967-7.99-33-18-16.895-26.148-13.895-49.814 9-71 34.272-16.696 59.272-7.696 75 27 3.896 37.776-13.104 58.442-51 62z" />
<glyph unicode="&#xe90e;" d="M179 169c12 0 24 0 36 0 0-11.334 0-22.666 0-34-12 0-24 0-36 0 0 11.334 0 22.666 0 34z" />
<glyph unicode="&#xe90f;" d="M141 919c-5.679-2.373-10.013-6.373-13-12-0.667-91.333-1.333-182.666-2-274-25.097-20.434-50.764-40.1-77-59-3.082-3.158-5.416-6.826-7-11-1.953-42.178-1.287-84.178 2-126 3.086-3.756 6.752-6.756 11-9 23.991-1 47.991-1.334 72-1-0.333-145.334 0-290.668 1-436 2.501-5.762 6.835-9.428 13-11 99.334-1.334 198.666-1.334 298 0 22.086 6.090 38.086 19.424 48 40 101.334 1.334 202.666 1.334 304 0 8.154-18.084 21.486-30.75 40-38 39.41-9.46 67.076 4.206 83 41 34.454-0.256 56.454 16.41 66 50 1.334 18.666 1.334 37.334 0 56-11.186 43.79-39.52 65.79-85 66 0 77.334 0 154.666 0 232 24.010-0.334 48.010 0 72 1 4.248 2.244 7.914 5.244 11 9 2.29 21.48 3.29 43.146 3 65-0.334 20.334-0.666 40.666-1 61-1.334 2.666-2.666 5.334-4 8-150.206 113.606-299.874 227.939-449 343-10.666 6.667-21.334 6.667-32 0-64.43-50.433-129.43-100.1-195-149-0.666 46-1.334 92-2 138-1.38 5.392-4.38 9.725-9 13-49.154 2.961-98.487 3.961-148 3zM171 875c28 0 56 0 84 0 0.666-48.685 0-97.352-2-146-26.82-20.91-53.82-41.576-81-62-1 69.33-1.333 138.663-1 208zM507 867c2.746 0.313 5.414-0.020 8-1 140-106.666 280-213.334 420-320 1.978-24.84 2.644-49.84 2-75-24.010 0.334-48.010 0-72-1-6.456-3.126-10.79-8.126-13-15-0.666-71.334-1.334-142.666-2-214-10.942 16.95-25.942 28.616-45 35-40.576 2.88-81.242 3.88-122 3 0.334 58.67 0 117.338-1 176-1.38 5.392-4.38 9.726-9 13-53.83 2.318-107.83 3.318-162 3-53.416-0.008-106.75-0.676-160-2-5.512-3.182-9.178-7.848-11-14-0.666-94.666-1.334-189.334-2-284-29.144-17.284-42.812-42.95-41-77-2.66-35.386 12.674-58.72 46-70-57.33-1-114.662-1.334-172-1 0.333 144.002 0 288.002-1 432-2.155 6.826-6.488 11.826-13 15-23.991 1-47.991 1.334-72 1-0.644 25.16 0.022 50.16 2 75 140.496 106.556 280.496 213.556 420 321zM499 703c30.984 3.342 48.984-10.324 54-41-4.592-29.928-21.926-43.26-52-40-22.132 7.938-32.464 23.606-31 47 4.376 16.028 14.042 27.362 29 34zM383 427c85.334 0 170.666 0 256 0 0-49.334 0-98.666 0-148-30.674 0.334-61.34 0-92-1-21.016-3.674-38.016-14.008-51-31-12.22-19.474-26.554-37.14-43-53-23.014-5.622-46.348-9.288-70-11 0 81.334 0 162.666 0 244zM555 235c80.096 0.954 160.096-0.046 240-3 5.59-3.586 10.59-7.92 15-13 12.060-19.406 26.394-37.072 43-53 19.392-12.684 40.726-19.352 64-20 10.102-5.44 16.436-13.774 19-25 1.334-13.334 1.334-26.666 0-40-3.17-9.598-9.836-14.932-20-16-24.264 43.866-58.598 54.2-103 31-10.288-7.94-17.62-17.94-22-30-101.334-1.334-202.666-1.334-304 0-22.092 42.252-54.758 52.918-98 32-11.274-8.94-19.94-19.94-26-33-16.262 2.848-23.596 12.514-22 29-0.15 24.512 11.85 38.512 36 42 26.726 3.628 53.394 7.628 80 12 7.098 1.548 13.764 4.214 20 8 21.64 16.994 39.306 37.328 53 61 6.598 8.764 14.932 14.764 25 18zM417 63c20.976 2.026 29.976-7.308 27-28-14.534-16.87-27.2-15.536-38 4-1.144 10.248 2.524 18.248 11 24zM845 63c13.784 2.522 22.784-2.81 27-16-0.932-18.972-10.598-25.972-29-21-9.306 5.884-12.306 14.218-9 25 2.72 5.046 6.386 9.046 11 12z" />
<glyph unicode="&#xe910;" d="M501 749c51.006 1.31 82.672-22.69 95-72 4.566-51.402-17.768-84.402-67-99-54.28-6.34-88.612 16.66-103 69-4.148 55.782 20.852 89.782 75 102zM499 703c-14.958-6.638-24.624-17.972-29-34-1.464-23.394 8.868-39.062 31-47 30.074-3.26 47.408 10.072 52 40-5.016 30.676-23.016 44.342-54 41z" />
<glyph unicode="&#xe911;" d="M501 961c-131.020-78.153-270.354-137.82-418-179-4.787-3.904-7.787-8.904-9-15-1.333-82-1.333-164 0-246 7.282-193.546 84.282-352.546 231-477 56.238-48.122 119.572-83.79 190-107 10.666 0 21.334 0 32 0 31.972 9.234 62.638 22.234 92 39 205.864 122.594 315.53 304.26 329 545 1.334 82 1.334 164 0 246-1.212 6.096-4.212 11.096-9 15-147.604 41.281-286.936 100.947-418 179-6.666 0-13.334 0-20 0zM509 913c124.47-71.224 255.804-126.557 394-166 0.334-82.67 0-165.336-1-248-20.066-213.252-121.732-374.252-305-483-26.912-16.128-55.578-27.794-86-35-43.74 12.538-84.406 31.538-122 57-161.93 110.776-251.596 264.444-269 461-1 82.664-1.333 165.33-1 248 137.492 38.431 267.492 93.765 390 166zM699 607c26.94 0.736 37.272-11.93 31-38-92.388-93.056-185.388-185.388-279-277-10.388-2.484-19.72-0.484-28 6-44.39 43.722-88.058 88.056-131 133-6.372 26.296 3.962 38.63 31 37 36.548-32.544 71.88-66.544 106-102 7.078-3.008 14.41-3.674 22-2 80.612 78.61 160.612 157.944 240 238 3.132 1.216 5.8 2.884 8 5z" />
<glyph unicode="&#xe912;" d="M353 789c23.872 2.272 33.538-8.395 29-32-10.162-12.986-22.496-15.32-37-7-9.912 15.799-7.246 28.799 8 39z" />
<glyph unicode="&#xe913;" d="M299 765c22.63-6.24 28.298-19.574 17-40-36.266-15.758-73.266-29.758-111-42-1.666-25.308-2.666-50.64-3-76-14.963-18.844-28.963-18.178-42 2-1.333 32.666-1.333 65.334 0 98 1.572 6.166 5.239 10.498 11 13 43.444 13.698 86.112 28.698 128 45z" />
<glyph unicode="&#xe914;" d="M699 653c47.058-0.726 73.724-24.392 80-71-1.094-14.716-5.428-28.384-13-41-90.944-92.944-182.612-185.278-275-277-27.524-21.724-56.856-24.39-88-8-47.61 45.61-94.61 91.944-141 139-20.892 26.928-23.56 55.594-8 86 23.536 31.472 53.868 40.472 91 27 5.334-3.334 10.666-6.666 16-10 27-27 54-54 81-81 73.666 73.666 147.334 147.334 221 221 11.042 7.872 23.042 12.872 36 15zM699 607c-2.2-2.116-4.868-3.784-8-5-79.388-80.056-159.388-159.39-240-238-7.59-1.674-14.922-1.008-22 2-34.12 35.456-69.452 69.456-106 102-27.038 1.63-37.372-10.704-31-37 42.942-44.944 86.61-89.278 131-133 8.28-6.484 17.612-8.484 28-6 93.612 91.612 186.612 183.944 279 277 6.272 26.070-4.060 38.736-31 38z" />
<glyph unicode="&#xe915;" d="M749 271c27.724-2.024 35.39-15.356 23-40-36.012-52.020-79.012-97.686-129-137-10.534-6.546-21.2-6.546-32 0-6.624 9.042-7.624 18.708-3 29 51.078 39.736 94.412 86.402 130 140 3.624 2.954 7.29 5.62 11 8z" />
<glyph unicode="&#xe916;" d="M565 97c23.872 3.792 34.206-6.208 31-30-6.646-12.816-16.978-17.15-31-13-18.58 14.238-18.58 28.572 0 43z" />
<glyph unicode="&#xe917;" glyph-name="servico7" d="M480 877.8c-123.6-11-232.4-86.2-287.2-198.6-21-43.2-30.8-79.8-35.2-131-2.4-27.8-2.6-28.6-7.6-30.6-18-6.6-34.2-19.8-43-34.6-2.6-4.4-13-35.4-23-69-21-70.2-23.2-84.2-17.2-113.8 4-19.4 17.2-51.6 23.4-56.6 5.6-4.8 14-4.6 19.4 0.4 7.4 6.8 7.2 11.8-1.4 32-10 24-13.2 40-11.6 58.6 1.4 17 33 123.8 39.6 134.8 4.8 7.8 18.4 17.6 21.6 15.6 1.2-0.6 2.2-4 2.2-7.4 0-3.2 1.8-15 4-26l4.2-20-9-8.4c-20-18.6-20-27.4 1.2-91l16.2-49.2-0.2-21.6c-0.2-19 0.2-22 3.6-25.4 4-4 12.6-5.2 19-2.8 10.4 4 12.8 34.2 5.2 65.6-2.4 9.8-9.6 33.6-16.2 52.8s-12 37-12 39.4c0 9 13.8 15 21 9 1.6-1.4 16.2-23.8 32.2-49.8 16.2-26 35.6-56.6 43-68.2 21.6-33.4 28.4-52.8 28.4-81 0-22.8-3.6-34.8-35-117-4.4-11.4-7.4-46.8-4.8-57 1.6-6.2 11.4-11.6 18.2-9.8 9.4 2.4 12.8 9.4 12.8 26.4 0.2 18.6 2 25.4 19.2 70.2 15.8 41.6 21.4 63.4 21.6 85.8 0 9 0.6 16.2 1.2 16 67.2-34.2 117.4-47.6 178.2-47.6s111 13.4 178.2 47.6c0.6 0.2 1.2-7 1.2-16 0.2-22.2 5.8-44.2 21.6-85.8 17.2-45.2 19-51.8 19.2-70.2 0-17 3.4-24 12.8-26.4 6-1.6 16 3 17.8 8.2 0.8 2 1.4 11.2 1.4 20.6-0.2 20.8-5 39-22 81.6-15.2 38-18.6 51.4-18.8 72.4 0 20.2 4.2 38 13.2 56 8 15.6 84.2 137.4 89.4 142.8 7 7.2 22 2.2 22-7.4 0-2.4-6.6-24.4-14.8-49.2-19.6-59.4-23.2-85-14.2-102.2 4.6-9 17.8-11.2 25-4 3.4 3.4 3.8 6.4 3.6 25.4l-0.2 21.6 16.2 49.2c21.2 63.6 21.2 72.4 1.2 91.2l-9 8.4 4 20c2.4 11 4.2 22.6 4.2 26 0 3.2 1 6.6 2.2 7.2 3.2 2 16.8-7.8 21.6-15.6 2.4-3.8 12-32.6 21.4-63.8 19.2-63.8 21.6-78.8 16.2-101.6-1.8-7.2-14.4-38.8-28-70-32-73-36.4-91.6-31.6-129.2 2.8-20.6 20-73.4 26-79.6 5.6-5.6 16-4.8 21.8 1.8 2.4 2.8 4.4 6.8 4.4 8.6 0 2-4 15.4-8.8 30-14 41.4-15.8 62.6-8 93 1.6 6.4 13.2 34.8 25.6 63.2 26.2 59.2 28.4 65 31.4 84.8 4.2 26.2 1.6 41.4-18.4 107.8-10 33.4-20.2 64.4-22.8 68.8-7.2 12.2-25.4 28-37.6 32.4l-10.4 4-2.4 28c-4.4 50.4-14 87.4-33.8 128.4-37 77-93 132.8-171 170-37.6 17.8-76.6 28-121.8 32-25.8 2.2-32.8 2.2-60-0.2zM552.2 841.8c144.2-14.6 247-109.6 275.6-254.8 9.6-49.2 9.6-86.2 0-132.4l-4.2-20.4-8.6-4.2c-4.6-2.2-10.2-6-12.6-8.6-2.2-2.4-20.4-31-40.6-63.4-20-32.4-38.4-61.6-40.8-65-2.6-3.2-7.4-11.4-10.8-18-7.8-14.6-20-23.6-55.2-41-28-14-52.2-22-83.4-28.4-32.4-6.4-86.8-6.4-119.2 0-41.6 8.4-84.4 25.6-116.6 46.8-14 9.2-16.8 12.2-22.2 22.6-3.2 6.6-8 14.8-10.4 18-2.6 3.4-21 32.6-41 65-35.4 57.4-45.4 70.8-55.6 73.2-5.2 1.4-6.4 5-12 34.8-2.6 14.6-3.4 29.4-3.4 64 0 39.4 0.6 47.6 4.4 66 6.4 28.8 12.6 47.2 25.2 73 27 55.4 70.6 99.8 130 132.8 30.6 17 82.2 33.6 118.2 38 10 1.2 20.2 2.6 23 3 11 1.6 40.6 1 60.2-1zM522.8 795.4c-3.8-3.4-5.4-6.6-5.4-11.2 0-10.8 5.4-14 29.8-18.2 53.4-9.2 95.8-30 132.6-65 21.2-20 36.8-40.8 49.6-66.2 9.8-18.8 21.8-52.2 19.8-54.4-0.6-0.4-8 0.2-16.6 1.4-11.4 1.8-21.8 5.2-39 13.2-113.8 53.6-241.8 53.4-355.8-0.6-21.8-10.4-33.2-13.2-47.2-11.8-15.2 1.6-16 3-11.8 16.8 18.8 60.8 69.6 118.8 127.6 145.6 18 8.2 40.8 15.8 57.6 19.2 13.6 2.6 20 8.4 20 17.8 0 5.4-6 12.4-12.4 14.6-1.8 0.6-12.6-1-23.6-3.8-107.6-26-183.2-103.4-206.4-211.4-5.8-27.2-6.4-83.4-1-110.2 21.8-108.6 95.2-186.8 201.8-215 94.4-25 193 1.2 262.8 69.8 38 37.2 62 79.2 76 132.6 7.2 27.8 9 78.8 3.8 109.8-9.2 55.6-33.8 105.2-72.8 146.2-40.8 42.8-96.2 72.2-155 82.4-23.8 4-28 3.8-34.4-1.6zM566.2 599c40.8-5.4 75.4-15.2 109.6-31.2 26.8-12.6 42.4-17.4 62.4-19 8.8-0.8 16.6-2.4 17.2-3.4 1.4-2.4 1.2-45.4-0.2-47-0.6-0.4-15 0.6-32 2.4-24 2.8-33.2 3-42.4 1.4-14.6-2.8-33.6-11.6-43.4-20.2-8.8-7.8-63.6-78.2-70.4-90.4-6.8-12.6-8.2-18.2-17-66.4-4.4-24.2-8.4-44.2-9-44.8-1.4-1.4-56.6-1.4-58 0-0.6 0.6-4.6 20.6-9 44.8-8.8 48-10.2 53.8-17 66-6.6 12.2-61.6 83.2-70.4 90.8-9.8 8.6-28.8 17.4-43.4 20.2-9.2 1.6-18.4 1.4-42.4-1.4-17-1.8-31.4-2.8-32-2.2-1.2 1.2-1.4 53.4-0.2 54.6 0.4 0.6 4.8 0 9.6-1 22.4-5.2 46.4-1 73.4 12.8 28.8 14.8 70.2 27.6 106.4 32.8 8.2 1.2 17.2 2.6 20 3 13.2 1.8 69.4 0.8 88.2-1.8zM350.8 467.2c3.6-1.4 9.8-5.6 14-9.2 8.6-7.8 57.4-70.2 64.2-82.6 3.4-5.8 7-20.6 11.8-47.2 4-21.4 6.8-39.4 6.2-39.8-1.4-1.6-30.8 9.4-47 17.6-46.6 23.6-87.6 66.2-109.8 114.4-7.2 15.6-17 43.4-15.6 44.8 0.2 0.4 11.2 2 24.4 3.6 26 3.2 41.6 2.6 51.8-1.6zM721.6 468.8c15-1.8 27.6-3.4 28-3.6 1.4-1.6-9.2-30.8-17.8-48.6-22.2-46.6-62.2-87.6-107.8-110.6-16.2-8.2-45.6-19.2-47-17.6-2 1.8 13.2 78.2 17 85.4 4 8 48.6 66.8 58.8 77.8 9.2 10 16.8 15 27 17.6 12 3.2 10.2 3.2 41.8-0.4zM487.8 566.8c-55.2-17-67.2-97.6-19-129.6 26.4-17.4 60.6-17.4 86.6 0 48.2 32.8 36 113.2-20 129.8-12.6 3.8-35.4 3.6-47.6-0.2zM533.4 532.8c21.8-12.6 26.6-43.8 9.4-62.8-9-9.8-18-14-30.6-14-13.6 0-21.6 3.6-30.6 13.6-13 14.2-14.6 32.6-4.6 49.8 11.4 19.2 36 25.2 56.4 13.4zM118 209.4c-7-3.4-9.6-11.8-6.2-20 9-21.8 12.2-33 14.2-48 3-22.4 0.4-40.2-11-75.2-5-15.2-9-29-9-30.8s2.2-5.6 4.6-8.6c5.6-6.4 15.2-7.4 21.2-2 4 3.6 18 41.8 23.4 64.2 4.6 18.4 4.6 55.2 0 73.6-4.4 19-14.8 42.8-19.8 46.4-5.2 3.6-10.8 3.8-17.4 0.4z" />
<glyph unicode="&#xe918;" glyph-name="servico8" d="M444 930.4v-29.6l-78.4-55c-43.2-30.2-81.4-57.4-85-60.6-8.4-7.2-9.2-18-2-24.8l4.6-4.4h458.2l4.2 4.6c6.8 7.2 6 17.6-2.2 24.6-3.6 3.2-41.8 30.4-85 60.6l-78.4 55v59.2h-34v-52h-68v52h-34v-29.6zM618.2 832.4l59.2-41.4-82.6-0.6c-45.6-0.2-120-0.2-165.6 0l-82.6 0.6 59.2 41.4 59.2 41.6h94l59.2-41.6zM215.6 722.8c-8-7.4-16.4-15-18.4-17-3.6-3.4-3.4-3.8 7.8-15.6l11.6-12 4.8 3.8c2.8 2.2 11.2 9.8 19 17l14 13.2-10.8 11.4c-5.8 6.2-11.2 11.6-12 12s-8-5.4-16-12.8zM781.2 721.2l-11.2-12.8 18.4-17.2 18.6-17 5.6 5.4c3.2 3 8.4 8.6 11.6 12.6l5.8 7.2-18.8 17.2-18.8 17.4-11.2-12.8zM314.8 715.6c-7.4-9.2-14.6-18-16.2-19.8-2.4-3-1.4-4.4 9.4-13.6 6.8-5.6 13-10.2 13.8-10.2 2.8 0 32.6 38.4 31 39.8-1 0.8-6.8 5.6-13.2 10.8l-11.2 9.4-13.6-16.4zM684 718.8c-6-5-11.8-9.8-12.8-10.8-1.6-1.6 28-39 31-39 1 0 7.2 4.4 13.8 9.8 10.4 8.4 11.8 10.2 9.6 13-5.8 7.2-29.8 36.2-30.2 36.2-0.2 0-5.4-4.2-11.4-9.2zM410 725.2c0-0.4-3.2-11.2-7-24.4-3.8-13-7-23.8-7-24 0-0.8 32.2-9.2 32.8-8.6 2.4 2.6 13.2 46.6 11.8 47.8-1.6 1.6-30.6 10.2-30.6 9.2zM495.4 720.8c-0.8-0.8-1.4-12.6-1.4-26.2v-24.6h36.2l-0.6 25.6-0.6 25.4-16 0.6c-9 0.2-16.8 0-17.6-0.8zM597 717.4c-7.6-2.2-14.4-4.4-14.8-4.8-0.8-0.6 11.6-46.4 13-48.2 0.4-0.6 31.2 7.4 32.4 8.4 0.2 0.4-2.8 11.2-6.6 24.4-3.8 13-7 24-7 24.2 0 1-2.4 0.4-17-4zM149 661.2l-18-16.8 9.8-10.6c5.4-6 10.6-11.6 11.4-12.6 1.8-2 37.8 30 37.8 33.6 0 2.2-20 23.2-22 23.2-0.6 0-9-7.6-19-16.8zM843.6 663l-11.4-12.4 37.2-34.4 23.4 23.8-7.8 8.2c-4.4 4.4-13 12.4-19 17.6l-11 9.6-11.4-12.4zM260.8 649.6c-7.4-9.2-14.8-18-16.4-20-2.4-2.8-1.4-4.4 9.6-13.4 6.6-5.6 12.8-10.2 13.8-10.2 2.8 0 32.6 38.4 31 39.8-1 0.8-6.8 5.6-13.2 10.8l-11.2 9.4-13.6-16.4zM738 652.8c-6-5-11.8-9.8-12.8-10.8-1.6-1.6 28-39 31-39 1 0 7.2 4.4 13.8 9.6 10.4 8.6 11.6 10.2 9.4 13.2-5.6 8-28.4 36-29.4 36-0.6 0-6-4-12-9zM386 643.6c0-0.6-3.2-11.6-7-24.6s-6.8-23.8-6.4-24.2c1.4-1.2 31.6-9.2 32.2-8.6 1 1 13.2 44.4 13.2 47 0 1-5.8 3.6-12.8 5.4-7.2 1.8-14.4 4-16 4.6-1.8 0.6-3.2 0.8-3.2 0.4zM619.6 635.4c-7.6-2.2-13.6-5-13.6-6.2 0-2.2 12.2-45.6 13.2-46.8 0.4-0.6 28.6 7.4 31.2 8.8 1.2 0.8-0.2 6-9.2 37.4-2 6.2-4.6 11.2-5.8 11.2-1.4-0.2-8.4-2.2-15.8-4.4zM494.8 633.4c-0.4-1.4-0.6-13-0.4-25.6l0.6-22.8h34v50l-16.6 0.6c-12.4 0.4-16.8-0.2-17.6-2.2zM86.6 603.6l-18-16.6 10.8-12.4c7.2-8.2 12-12 13.6-11 1.4 0.8 10 8.4 19 16.8l16.6 15.6-9.8 11.4c-5.6 6.2-11 11.6-12.2 12s-10.2-6.6-20-15.8zM906.2 605c-5.8-6.2-10.2-11.8-9.8-12.6 0.4-1 8.6-9 18.4-18l17.8-16.6 11.6 12.6 11.4 12.6-17.4 16.4c-9.4 9-18.2 16.4-19.4 16.6-1.2 0-7-5-12.6-11zM206.8 583.6c-7.4-9.2-14.8-18-16.4-20-2.4-2.8-1.4-4.4 9.6-13.4 6.6-5.6 12.8-10.2 13.8-10.2 2.8 0 32.6 38.4 31 39.8-1 0.8-6.8 5.6-13.2 10.8l-11.2 9.4-13.6-16.4zM791.6 586.4c-6.2-5.2-11.8-10-12.6-10.8-1.4-1.4 28.6-38.6 31.4-38.6 0.8 0 7 4.4 13.6 9.6 10.4 8.6 11.6 10.2 9.4 13.2-5.8 8.2-28.4 36-29.4 36-0.6 0-6.2-4.2-12.4-9.4zM24.2 546.2l-18.8-17.6 23.6-24.8 18.4 17.6 18.6 17.6-11.6 12.4-11.4 12.4-18.8-17.6zM969.2 547.6l-11.4-12.6 18.6-17.4 18.6-17.6 11.4 12.4c13.2 14.6 14.2 11.4-10.8 33.8l-15.2 13.8-11.2-12.4zM321.4 547.8c-11.4-2.8-26.8-11.2-36.6-20.2-4.8-4.4-33.8-42.4-64-84.4-30.4-41.8-57.2-78.2-59.6-80.6s-13.6-8-25.2-12.6c-11.6-4.6-24.4-10.4-28.6-13.2-18.6-12.2-32.8-33.2-37.4-55.8-1.4-6.6-2-62.2-1.6-166.4l0.6-156.2 6.2-7.8c11.6-14.4 12.6-14.6 77.8-14.6 56.4 0 58.4 0.2 67 4.6 16.4 8.2 17 10 17.6 56.6l0.6 40.8h547.6l0.6-40.8c0.6-46.6 1.2-48.4 17.6-56.6 8.6-4.4 10.6-4.6 67-4.6 65.2 0 66.2 0.2 77.8 14.6l6.2 7.8 0.6 156.2c0.4 104.2-0.2 159.8-1.6 166.4-4.6 22.6-18.8 43.6-37.4 55.8-4.2 2.8-17 8.6-28.6 13.2s-22.8 10.2-25.2 12.6c-2.4 2.4-29.2 38.8-59.6 80.6-30.2 42-59.2 80-64.4 84.8-5 4.6-15 11.2-22.4 14.6l-13.4 6.4-187 0.4c-104.8 0.2-190.4-0.6-194.6-1.6zM698.6 512.8c5.2-1.8 13.4-7 18.2-11.4 8-7.6 98-129.8 100.6-136.6 0.8-2.4-40.2-2.8-305.4-2.8s-306.2 0.4-305.4 2.8c2.6 7 92.6 129 100.6 136.6 16 15 4.8 14.2 204 14.4 158.2 0.2 179.2-0.2 187.4-3zM873 319.2c24.2-9.6 36.4-18.6 43.6-31.8 4.4-8.2 4.4-10 4.4-77.4v-69h-818v69c0 67.4 0 69.2 4.4 77.4 7 12.8 19.4 22.2 42.6 31.6l21 8.6 680.2 0.4 21.8-8.8zM922 97c0-12-4.4-20-12.2-22.8-9-3.2-786.6-3.2-795.6 0-7.8 2.8-12.2 10.8-12.2 22.8v9h820v-9zM162.2 38h41.8v-68h-102v70.6l9.2-1.4c5.2-0.6 28.2-1.2 51-1.2zM922 5v-35h-102v68l45.6 0.6c25 0.2 47.8 0.6 51 1l5.4 0.4v-35zM167 289.2c-11.8-5.4-23.4-17.6-27.2-28.4-1.6-4.6-2.8-15.8-2.8-26.8 0-16.8 0.6-20.4 5.6-30.4 5.8-11.6 14-19.4 27-25 9.8-4.4 57.6-5 69.2-0.8 10.4 3.6 25 17.2 29.4 27.2 10.6 24.6 5 60.4-12.4 76.4-11 10-20.8 12.6-50.8 12.6-25.2 0-29-0.6-38-4.8zM233 255c4.4-4.2 5-6.6 5-20.2 0-13.2-0.6-16.2-4.4-20.2-4-4.4-5.8-4.6-28.6-4.6-23.6 0-24.4 0.2-29.2 5.2-4.2 4.4-4.8 7-4.8 20.2 0 14 0.4 15.2 5.6 19.8 5.2 4.4 7.2 4.8 28.6 4.8 21.8 0 23.2-0.2 27.8-5zM337 289.2c-20.8-9.8-28.8-24.6-29-53.2 0-10.4 1-22.2 2-26.2 2.8-10 16-24.4 27.6-30.2l9.4-4.6h330l9.4 4.6c11.6 5.8 24.8 20.2 27.6 30.2 1 4 2 15.8 2 26.2 0 15.8-0.8 20.6-4.8 29-5.6 12-13.2 19.4-25.2 24.8-8.8 4-12.4 4.2-174 4.2h-165l-10-4.8zM677 255c4.4-4.2 5-6.6 5-19.6 0-12-0.8-15.8-4.2-20.2l-4-5.2h-323.6l-4 5.2c-3.4 4.4-4.2 8.2-4.2 20.2 0 13 0.6 15.4 5 19.6l4.8 5h320.4l4.8-5zM782 289.8c-10.6-4.8-16.8-10.2-23.2-20-9.4-14.8-10.8-46.6-3-64.8 4.4-10 19-23.6 29.4-27.2 5.2-1.8 16.8-2.8 34.8-2.8 22.8 0.2 28.4 0.8 36 4.2 11.6 5.2 21.6 15.2 26.8 26.8 5 11 5.8 42.4 1.4 54.8-3.8 10.8-15.4 23-27.2 28.4-9 4.2-12.8 4.8-38 4.8-23.8 0-29.4-0.6-37-4.2zM847.4 255.2c5.2-4.6 5.6-5.8 5.6-19.8 0-13.2-0.6-15.8-4.8-20.2-4.8-5-5.6-5.2-29-5.2-21.8 0-24.4 0.4-28.6 4.4-4 3.8-4.6 6.2-4.6 20 0 14 0.6 16.4 5 20.6 4.6 4.8 6 5 27.8 5 21.4 0 23.4-0.4 28.6-4.8zM149 513c-8.6-10.6-15.2-19.4-14.8-19.6s5.8-4.8 12.2-10c6.2-5.2 12-9.4 13-9.4 1.8 0 33.4 38 32.2 38.8-0.2 0.2-5.6 4.6-11.8 9.8s-12.2 9.4-13.4 9.4c-1 0-9-8.6-17.4-19zM845.6 520.4c-6.2-5.2-11.8-10-12.6-10.8-1.2-1 14.8-22 29.2-38.4 1.4-1.6 20.6 11.4 25.6 17.6 1.6 1.8-2.2 7.6-14 21.8-8.6 10.6-16 19.4-16.4 19.2-0.2 0-5.6-4.2-11.8-9.4z" />
<glyph unicode="&#xe919;" glyph-name="servico9" d="M675 957.6c-9-5.2-8.8-3.6-9-112 0-108.4 0.6-118 9.4-139.8 12-30.4 37.6-58.6 65.4-72.2l9.2-4.4v-27.2h-102v16h-34v-23.2l-30.2-14.8c-16.6-8.2-32-17.2-34-19.8-3.2-4-3.8-8.2-3.8-25.4 0-11.2 0.8-22.8 2-25.6 1.4-4 9-8.6 34-21.2l32-16v-24h33.8l0.6 8.6 0.6 8.4 47.6 0.6c42 0.4 47.4 0.2 47.4-2.6 0-5.8-17.8-65.4-21-70.4-3.8-5.6-14.4-12.6-19.4-12.6-3.2 0-3.6-2.2-3.6-17.2v-17.4l9 1.2c20.8 3 41.4 19.6 48.2 39.2l3.8 10.2h58l30.4-152h-47.4v-34h27c26.2 0 27-0.2 28-4.4 0.6-2.6 4.2-19.8 7.8-38.6 8.6-43.2 8.6-43 37.4-43h19.8v-18c0-21.2-2.8-28.4-12.2-31.8-4.2-1.4-33.8-2.2-89-2.2-95.2 0-95.8 0-115.4-18-14.8-13.4-21.8-29.4-21.8-48.8 0-27.8 13.4-49.6 38-61.6l13.4-6.6 289-1.2v34.2h-279.2l-8.8 4.6c-23.8 12-25.4 41.6-3.2 58.2 5.2 4 8.6 4.2 94.8 5.2 88.6 1 89.4 1 98.8 5.6 12.2 6 22.8 18.6 26.6 31.2 1.8 5.8 3 18 3 29.6v19.6h20c18.8 0 20.6 0.4 25 5 3.4 3.2 5 7 5 12 0 3.8-10.8 71.8-24 151s-24 144.6-24 145.6c0 1 12.8 7.8 28.4 15.4 15.6 7.4 30.4 15.6 33 18.2 4.4 4.4 4.6 6 4.6 34.8 0 30.4-1.2 36.2-7.8 41.4-2.2 1.8-14.8 2.4-42.6 2.6h-39.2l-7.4 21.8c-4 12-9 23.4-11.2 25.4-3.6 3.2-8.2 3.8-33 4.4l-28.8 0.6v26.8l13.6 7c19.2 9.8 45 36.2 54.8 56 15.6 31.6 15.6 31.8 15.6 150.2 0 58-0.6 107-1.2 108.8-3.4 8.8-5.6 9-135.2 9-88.4-0.2-123.8-0.8-126.6-2.4zM904 909v-17h-204v34h204v-17zM904 799.6c0-42.4-0.8-61.4-2.8-68.6-8.2-31.2-28.4-54.8-59.4-69.6-10.6-5-19.8-10.6-20.6-12.4-0.6-1.8-1.2-13.2-1.2-25.2v-21.8h-34l-0.2 18.6c0 21.4-2.8 31.2-9.8 34.8-2.8 1.4-11.2 5.4-19 9-17.2 8.2-35.6 25.8-44.4 42.6-11.4 22-12.6 30.4-12.6 93.8v57.2h204v-58.4zM899.8 545.6c4-11.8 8.8-23 10.8-25 3-3.2 8.2-3.6 41.4-4.2l38-0.6v-22.8l-31-15.4c-35.8-18-38.2-20.4-36.2-36.6l1.2-11h-36v-34h41.8l1.2-6.4c0.6-3.6 1.8-10.8 2.8-16s1.2-10 0.6-10.6c-0.6-0.6-7.6-1-15.8-1h-14.6v-34h37.4l2.4-13.8c3.4-21.2 4-20.2-9.8-20.2h-12v-33.8l31-1.2 2.4-14c3.4-20.2 3.8-19-7.4-19h-10v-34h12.8c14.4 0 13.2 1.4 16.4-19 0.6-4.4 1.6-9.6 2.2-11.6 0.8-3.2-1.4-3.4-33.6-3l-34.6 0.6-33.2 165.4c-28.8 144.4-33.6 166-37.6 170l-4.6 4.6-177.8 1.2v67.8l244.6-1 7.2-21.4zM614 533v-23l-17 8.4c-16.2 8-17 8.8-17 15s1 7 15.6 14.4c8.4 4.4 16 8 17 8.2 0.8 0 1.4-10.4 1.4-23zM807.2 454.8c1.2-5.8 2.8-13.6 3.6-17.6l1.4-7.2h-20.2c-13.6 0-20 0.8-20 2.2 0 2.6 8 30 9.4 32.4 0.6 0.8 6 1.4 12.2 1l11.4-0.6 2.2-10.2zM734 807v-17h34v34h-34v-17zM734.8 746.6c4.2-30.4 33.2-58.6 60.2-58.6h7v33.4l-8.2 1.4c-11 1.8-20.8 11.6-24.2 24l-2.4 9.2h-33.8l1.4-9.4zM250.6 735.2c-4.6-1.6-11.4-4.6-15.2-7-16.6-10.2-21.4-18.2-83.2-141.8l-60.2-120.2-9.4-1.2c-33.2-4.2-52.8-15.6-68.6-39.6-14.6-22.6-14.2-14.4-13.6-246.4l0.6-206 4.4-8c5-9.4 14.8-19 24.6-24.2 6.4-3.4 13.4-3.8 85-4.4 56-0.4 80.4 0 86.6 1.8 12 3.4 23.2 12 29.8 23.2l5.6 9.6 2 118 409 1v34h-286.4c-283.8 0-286.6 0.2-295.6 4.2-10 4.6-21 14-25.2 22.2-1.6 3-2.8 5.8-2.8 6.6 0 0.6 137.2 1 305 1h305v34h-614v96.6c0 64.2 0.8 99 2.2 104.4 3.4 12 12.8 24.2 23.4 30.4l9.4 5.6 306 2v34l-245 1 55 109.8c30.2 60.4 57.6 113 60.8 116.8 3.4 3.6 9.6 7.8 13.8 9 5.8 1.8 56.6 2.4 190.2 2.4h182.2v34l-186.4-0.2c-147.6 0-188.4-0.6-195-2.6zM65.4 92c2 0 2.6-12.8 2.6-61v-61h-11.2c-9.6 0-11.8 0.8-17 5.8l-5.8 5.8v124.2l14.4-6.8c8-3.8 15.6-7 17-7zM136 30v-60h-34v120h34v-60zM204 36.2c0-29.6-0.6-55.4-1.2-57.2-2-5-11.8-9-22.8-9h-10v120h34v-53.8zM342 653v-17h34v34h-34v-17zM409.4 635l-7.4-15 50-25c27.4-13.8 50.6-25 51.6-25 0.8 0 4.8 6.8 9 15l7.4 15-50 25c-27.4 13.8-50.6 25-51.6 25-0.8 0-4.8-6.8-9-15zM290 601v-17h34v34h-34v-17zM324 533v-17h34v34h-34v-17zM392 533v-17h120v34h-120v-17zM451.4 470.8l-49.4-24.8 7.2-14.6c4-7.8 7.6-14.6 7.8-15 0.4-0.4 23.6 10.8 51.6 24.8l51 25.6-7.2 14.6c-4 8-8.2 14.6-9.4 14.4-1 0-24.2-11.2-51.6-25zM100.4 393c-11-4.8-19.6-12.6-25.6-23.4l-5.8-10.6-0.6-42.4c-0.8-50.2 1-59.6 13.8-73.6 14.6-15.8 20.6-17 87.6-17 63.6 0 71.4 1.2 84.6 12 4 3.4 9.8 11.2 13 17.6l5.6 11.4v45c0 43.2-0.2 45.4-4.6 54.4-5.8 11.6-20.2 24.8-30.2 27.6-4.2 1.2-33.6 2-69.2 2-49-0.2-63.4-0.8-68.6-3zM232.8 357.8l5.2-4v-42c0-39-0.2-42-4-45.8-2.2-2.2-6-4.4-8.4-5-2.6-0.6-29.2-1-59-0.6-69.4 0.8-63.4-3.6-64.2 45.2-0.8 40 0 46.8 6 52.4 4.2 3.8 7.2 4 61.8 4 55 0 57.4-0.2 62.6-4.2zM337 391.2c-12-5.6-19.4-13.2-24.8-25.2-3.8-8.2-4.2-13-4.2-55.2 0-45.8 0-46 5.2-56.6 6.2-12.2 19.2-22.8 32.2-26 5.6-1.4 58.6-2.2 155.4-2.2h147.2v34h-146.2c-107.2 0-147.2 0.6-150.4 2.4-7.4 3.8-9.2 8-9.4 20.2v11.4h306v34h-306v12c0 10.2 0.8 13 5 17l4.8 5h296.2v34h-301l-10-4.8z" />
<glyph unicode="&#xe91a;" glyph-name="servico10" d="M470.6 905.6c-3.4-3.6-4.6-8.4-5.8-21.6-1.6-19.6-3.4-26-7.8-26-1.6 0-11.2-3.6-21.4-8-14.8-6.4-19-7.4-21.4-5.4-1.8 1.2-8.8 7-15.8 12.8-19.4 16.2-19.8 16-51.8-16-20.8-20.6-26.6-27.8-26.6-31.8 0-3.6 4.4-10.8 13.8-22l13.8-16.8-5.2-9.8c-2.8-5.6-7.2-15.4-9.6-22l-4.4-12-14.6-1.6c-24.4-2.6-27.8-3.4-32-7.6-3.4-3.4-3.8-6.8-3.8-40.8 0-36.2 0.2-37.4 4.6-41.8 3.8-3.8 7.8-5 20.6-6 26.4-2.2 25.6-2 29.8-14.8 1.8-6.2 5.6-15.6 8.2-20.8s4.8-10.4 4.8-11.4c0-1.2-4.4-7.2-9.6-13.6-14-16.8-17-22-15.8-27 1.8-6.6 53.8-57.6 58.8-57.6 4.4 0 9.2 3.2 26.8 18.2l11 9.6 11.6-5.8c6.4-3.4 16.4-7.4 22.2-9.2 12-3.8 11.6-3 14.2-31.4 2-23.4 2.2-23.4 48-23.4 47 0 44-2.4 48 38.2 1.2 12.8 1.4 13.4 7.2 14.6 3.2 0.6 13.4 4.6 22.4 8.8l16.4 7.8 16.8-13.8c22.6-18.6 21.8-18.8 54.6 14 31.2 31.6 31.2 31.2 12.4 53.6-7.2 8.6-13 16.4-13 17.2 0 1 2.6 6.8 5.8 13.2 3.2 6.2 7 15.2 8.4 20s4 9.4 5.6 10.2c1.8 1 11.2 2.4 21 3.2 14.8 1.2 18.6 2.2 22.4 6.2 4.6 4.6 4.8 5.4 4.8 41.8 0 42.2-0.6 43.8-16.4 45.8-4.8 0.6-14.4 1.8-21.4 2.6l-12.6 1.6-4.4 12c-2.4 6.6-6.8 16.4-9.6 22l-5.2 9.8 13.8 16.8c9.2 11.2 13.8 18.4 13.8 21.8 0 4-6.2 11.4-26.4 32-31.8 32.2-31.6 32-52.4 15-7.8-6.4-15.2-12.2-16.6-13s-6.8 0.6-12 3.2c-5.2 2.8-15.2 7-22 9.4l-12.4 4.4-1.2 13.4c-3.6 38.2-0.8 36.2-48.6 36.2-36.6 0-37.8-0.2-41.8-4.4zM532.8 869.6c3.2-31 4-32.2 22.6-36.8 6.4-1.8 20.8-7.6 32-13.2 23.6-11.8 22.8-12 42.2 4.2 6.8 5.6 13 10.2 13.8 10.2 1 0 7.4-5.8 14.4-12.8l12.8-13-12.4-15.4c-6.6-8.4-12.2-17.2-12.2-19.6 0-2.2 4.4-13 10-23.8 5.4-10.8 10.8-24.6 12.2-30.6 3.2-14 7.2-18.2 19.2-19.6 5.2-0.6 14.4-1.6 20.2-2.4l10.4-1.2v-39.2l-19-1.4c-13.2-1-20.2-2.4-22.8-4.6-2-2-5.8-10.2-8.2-18.4s-8.2-22.4-13.2-31.4c-4.8-9.2-8.8-18.4-8.8-20.6 0-2 5.8-11 12.8-19.6l12.8-15.8-13.6-13.6-13.8-13.6-15 12.2c-9.8 8.2-16.6 12.4-20.2 12.4-2.8 0-11.6-3.6-19.6-7.8-8-4.4-22.4-10.4-32-13.2-11.2-3.6-18.2-6.8-19.6-9.2-1.6-3.2-5.8-30.8-5.8-39.2 0-2-5.2-2.6-19.6-2.6h-19.8l-2 19.8c-1 11-3 21.4-4.4 23-1.6 1.8-9 5-17 7.4-7.8 2.4-21.8 8.2-31.4 13-9.4 4.8-19.4 8.8-22.2 8.8-3.4 0-10.2-4-19.6-12-7.8-6.6-15-12-15.6-12-2 0-26.4 24.6-26.4 26.6 0 0.8 5.4 8 12 15.8 14.2 17 14.8 20.8 5.2 36.8-3.8 6.2-9.8 20.4-13.4 31.4-4.2 12.8-8 20.8-10.6 22.6-2.4 1.4-12.6 3.2-22.6 4l-18.6 1.4v39l9.6 1.2c5.2 0.6 14.2 1.6 20 2.4 13 1.4 17 5.4 20.2 19.6 1.4 6 6.8 19.8 12.2 30.6 5.6 10.8 10 21.6 10 23.8 0 2.4-5.6 11.2-12.2 19.6l-12.4 15.4 13.6 13.8 13.6 13.6 15.8-12.8c8.6-7 17.6-12.8 20-12.8 2.2 0 8.6 2.6 13.8 6 10.8 6.6 29.6 14.8 38.8 16.8 18 4 20 6.8 22 31.8l1.4 17.4h39.2l1.2-12.4zM482.8 813.2c-40.2-9.2-77.2-37.8-94.6-73.4-11.4-23.6-15-38.6-15-63.8 0.2-24.4 3.8-40.4 14-61.2 25.6-52.4 83.6-83.8 141.2-76.6 33.8 4.2 57.6 16 82.8 41 13.6 13.4 17.8 19.2 25.4 35 11.8 24.2 16.4 46 14.8 70.8-3.4 57.2-41.8 106.4-96.8 124.4-19.2 6.4-52.8 8-71.8 3.8zM539 785c49.4-13 84.8-58 85-108.2 0-15.2-6.2-40-13.4-53.4-8.6-16-28.6-35.8-44.2-44-19.4-10.2-34.4-14-54.6-14-53.4 0.2-97.8 37-109 90.6-11.6 55.8 26.4 115.2 82.4 128.8 15.8 3.8 39.4 3.8 53.8 0.2zM560 722.6c-1.6-0.8-16.4-14.2-32.6-30l-29.8-28.6-16.2 15c-17.8 16.2-24 18.4-31.4 11-8.4-8.4-5.8-13.6 18.6-37.6 17.6-17.4 24-22.4 28.2-22.4s13.2 7.4 42.2 35.2c20.2 19.2 37.2 36.4 37.8 38.2 4.2 10.8-6.6 23-16.8 19.2zM695 370c-13-2-20-5-55.4-24.2l-29.6-16.2-47.6 0.8c-52.2 0.8-48.8 0.2-85.6 16.4-27.4 12.2-44 15.6-74.8 15.6-33 0-49.8-3.8-79-18.2-14.8-7.4-25.4-14.6-41-28-21.4-18.6-39.2-30-41.8-27-0.8 1-4.6 12-8.2 24.4-4.6 15.2-8 23.6-10.8 25.6-3.4 2.2-15.8 2.8-68.2 2.8-61.8 0-64.4-0.2-68.6-4-2.8-2.8-4.4-6.6-4.4-11 0-6 36.6-311 39.2-326.6 0.6-3.6 2.8-8.4 5-10.6 3.6-3.6 7.4-3.8 98-3.8 60.2 0 95.4 0.8 97.8 2 9.2 4.8 9 8-4 50.4-6.8 22-12 40.4-11.6 40.6 5.2 5.2 75.6 47.4 81.4 49 7.2 2 18.6 0.2 96.8-14.2l88.4-16.2 28 1c22.4 0.8 31.4 2 45.6 6.2 29 8.6 10.2-3.4 247 159.2 51.8 35.6 54.4 38 51.6 48.6-2 8-16.4 22.4-29.6 29.4-11 5.8-15 7-30.2 7.6-14.4 0.8-19.6 0.2-29.6-3.4l-12-4.4-7.6 6.2c-19.6 15.4-45 19.4-65.4 10.2l-10.4-4.4-10.6 5.8c-17.8 9.8-34.2 13-52.8 10.4zM722.2 340.8c3.2-0.6 5.8-2 5.4-3-0.4-1.2-9.6-6.8-20.6-12.6l-20-10.8-11.8 6c-13 6.6-13.2 6.2 3.6 14.8 15.4 8 24.6 9.2 43.4 5.6zM441.6 330c7.8-2.2 22.2-7.6 31.6-12 32-14.8 30.4-14.6 107.8-15.8l70-1.2 11.4-5.6c6.2-3 14.2-8.8 17.6-12.8 6.2-7 15.6-23.8 13.8-25.2-0.4-0.4-22 0.2-47.8 1.2-49.2 2.2-95.2 0.2-103.8-4.6-5.8-3-8.2-9.6-5.8-16.6 3.2-8.8 6.8-9.6 34.6-7 19.8 1.8 38.2 1.8 84.4-0.2l59.2-2.4 4.6 4.4c2.6 2.4 4.8 6.4 4.8 8.8 0 3.8 10.6 10.2 69.6 42 65.4 35.4 70.2 37.8 82 38.6 13 1 27.6-3 32.2-8.4 1.8-2-25-21.2-120.4-86.8-67.6-46.4-127.2-86.2-132.6-88.4-17.4-7.6-40.4-12-61.8-12-23 0-17.8-0.8-119 17.8-80 14.8-84.6 15.2-102.4 9-4.2-1.4-22.6-12.2-40.8-23.8s-33.8-21-34.6-21c-0.8 0-11.8 33.6-24.2 74.6-12.4 40.8-23 75.4-23.2 76.4-0.4 1.2 5.2 4.6 12.2 7.8 7.6 3.4 19.4 11.4 28.2 19 37.6 32.6 60.4 44 96.8 48.8 12.8 1.8 41.2-0.6 55.6-4.6zM807.2 331.6c3.2-1.4 5.6-3.6 5.6-4.6-0.2-1.2-13.6-9.2-30-18s-37.6-20.4-47-25.6l-17.4-9.4-5.2 9.8-5.2 10 14.6 7.8c34.2 18.8 58.6 31.8 61.4 33 4.4 1.8 16.6 0.2 23.2-3zM247.8 166.4c24.6-81 45.2-148.6 45.8-150 0.6-1.8-14.8-2.4-73.2-2.4h-74.2l-1.2 6.6c-1.6 9.8-35 285.4-35 289.6 0 3.6 2.2 3.8 46.6 3.8h46.4l44.8-147.6zM196.4 89.8c-23.2-11.4-27-44.4-7.2-61.6 27.8-24.6 70.8 2.8 60.8 38.8-6.2 22.4-32 33.4-53.6 22.8zM222 62.2c3.2-6.2 2.4-9.8-3-13.4-4.6-3-5.4-3-10 0-5.4 3.6-6.6 10.8-2.6 14.8 3.8 3.8 13.2 3 15.6-1.4z" />
<glyph unicode="&#xe91b;" glyph-name="servico11" d="M309 716.6c-36.4-3-64.4-10.8-103-28.6-84.2-38.8-75.2-35.4-96-36.4-34.4-1.8-45.6-12.4-51-48.4-1-6.2-2.8-10-6-12-2.4-1.6-6.6-7.2-9-12.4-4.2-8.4-4.4-11.2-3.4-28.2 1.6-21.8 5.8-31.6 17.2-39.4 8.8-6 65.6-27.2 73-27.2 12 0 18 17 8.8 25.4-2.6 2.2-17.6 8.8-33.6 14.8-16 5.8-30 11.4-31.2 12.6-1.4 1.2-3 7.2-3.6 13.4-1.4 11-1.2 11.4 6.6 20.4 8.6 10.2 8.8 10.4 12.2 30 1.8 9.2 3.6 14.2 6.2 15.4 2 1.2 10.6 2 19.4 2 18.4 0 28.4 3.6 87 31.8 58.2 28 76.6 32.8 125.4 33 25.6 0.2 33-0.4 43-3.8 14.4-4.6 38.6-20.6 67-44.2 32.2-26.8 26.4-24.8 75-24.8 61.6 0 98.2-6.4 140.6-24 27.6-11.6 26.4-9.8 26.4-40.2 0-29-0.4-29.8-15.8-29.8-9.4 0-16.2-6.8-16.2-16.2 0-12.4 14.2-18.2 33.8-13.8 13.6 3 26.6 14.6 30 27 2.8 10.2 2.8 57.6 0 67.6-1 4.2-4.8 10.6-8.2 14.6-11.4 13-48.6 28.8-87.8 37.6-31.6 7-55.6 9.2-97.8 9.2h-36l-17.6 14.6c-43.4 36.6-70.6 52.8-97.4 58.4-12.8 2.6-37.6 3.4-58 1.6zM797 709.2c-18.6-6-33.4-19-41.4-36.2-4.6-10-4.6-10-5.2-121.4l-0.6-111.6-702.8-1-10.2-5.4c-15.2-8-21.4-14-29-28l-6.8-12.6v-41c0-40.8 0-41 5.6-52.4 6.4-13 17.8-24.2 31.2-30.4 8.2-3.8 13.4-4.2 46.6-4.8l37.4-0.8 5.2 5.2c7.2 7.2 7 19.4-0.2 25-5 3.8-8 4.2-38.8 4.2-31.4 0-33.8 0.2-40 4.6-14.2 9.6-15 12-15.6 49-0.4 31.6-0.2 33.8 4 41.4 3 5.2 7.8 9.6 13.6 12.6l8.8 4.4h715.4l4.8 5 5 4.8v237.2l4.6 8c2.8 5.2 7.4 9.6 13.4 12.6 8.4 4.2 11.2 4.4 50.6 4.4 50 0 56.2-1.2 69.6-13.8 9.4-8.8 10.8-11.6 38-78.2 38.4-93.6 35.8-85.2 35.8-119.8v-29.4l-20.6 0.8c-25 1-35-1.4-45.8-11.2-10-9-13.6-17-13.6-30.8 0-14.4 6-25.8 18.2-34.8 14.8-10.8 28.2-15.2 46.4-15.4l15.4-0.2v-11.2c0-13-6-26.6-14.6-32.8-3.6-2.6-10.2-4.4-19.4-5.4-17.2-1.4-22-5-22-16.2 0-12.2 5-15.6 22.6-15.6 19 0 31 4.2 43.4 15.4 19 17 18 10 18 127-0.2 79.4-0.8 104.2-2.8 109.6-6.8 18-56.2 136.4-61.6 147.6-8 16-25.2 32.4-41 38.6-11 4.4-14.6 4.8-62.6 5.2-37.4 0.4-53.2-0.2-59-2.2zM988.8 406.2c5.4-6 3.6-20.2-2.8-24-4.4-2.4-6.6-2.4-16.4 0.6-11.8 3.4-23.6 11.6-23.6 16.4 0 1.6 1.8 4.6 4 6.8 5.8 5.8 33.6 5.8 38.8 0.2zM852 649.2c-12.8-3.4-23-11.8-29-23.8-5-10-5-10.8-5-57.4s0-47.4 5-57.4c3-5.6 8.4-12.8 12.4-15.8 12.2-9.2 22.8-10.8 74.8-10.8 48.8 0 58.2 1.2 61.8 8 2.8 5.4 2.4 14.6-0.8 19.2-2.6 3.6-6.4 3.8-57.8 4.8-50.4 1-55.4 1.4-59.2 4.8-4 3.6-4.2 5.6-4.2 46.2 0 55.2-2.2 51.8 34.8 52.6 26.4 0.6 27.2 0.8 31.2 5.8 7.4 9.4 4.4 20.6-6.2 24.4-8.4 3-46.4 2.6-57.8-0.6zM193.6 579.4c-19.8-7.6-31.4-17.6-41.2-36.2-4.8-9-5.4-12.4-5.4-29.2s0.6-20.4 5.6-30.2c13.2-27 43.2-42.6 72.6-37.8 15 2.4 27 8.6 37.6 19.2 33 33 23.6 89.6-18.4 110.2-13.2 6.4-38.6 8.4-50.8 4zM235.6 543.6c9.8-6.6 15.2-17.4 15-30.8-0.2-20.8-14.6-35.2-35.6-35.4-24.6-0.4-40.8 20.2-36.2 45.6 1.6 8.4 11.6 20.4 20.2 24.4 9.4 4.2 27.2 2.4 36.6-3.8zM555 579.4c-19.4-6.4-36-22.2-43.2-41.2-6-15.8-4.8-41 2.6-55.2 21.4-41.2 76.2-50.6 109.2-18.4 13.6 13.2 19 25.2 20 45.4 1 21.2-3.6 35.2-16.8 49.8-12.8 14.2-27.4 20.8-47.8 21.6-9.6 0.4-19.2-0.4-24-2zM589.4 547.8c6.8-2.6 16-11 19.8-18.2 6.8-13.2 1.2-36.8-10.6-45.2-18.8-13.2-44.8-7.6-54.6 11.6-4.8 9.2-5.2 25.8-1.2 33.6 3.6 7 12.8 15.6 19.2 18.2 6.8 2.6 20.4 2.6 27.4 0zM289 504c-5.2-5.8-5-17 0.6-22.6l4.6-4.4h203.6l4.6 4.4c5.6 5.6 5.8 16.8 0.6 22.6-3.6 4-5.4 4-107 4s-103.4 0-107-4zM822.4 457.4c-4-4.2-4.4-6.8-4.4-25.6 0-19.4 0.4-21.4 4.6-25.4 5.8-5.4 15.4-5.6 21.6-0.6 4.6 3.6 4.8 5.2 4.8 26.2s-0.2 22.6-4.8 26.2c-6.4 5.2-16.4 5-21.8-0.8zM218 375.4c-42.6-14.4-68.6-51.2-68.4-96.2 0.4-45 28.2-82.6 71-95.4 17.4-5.4 46.4-4.6 63.8 1.6 38.8 14.2 65.6 52.8 65.6 94.6 0 45.4-30.8 85.6-74.2 97-16.6 4.4-42.2 3.8-57.8-1.6zM275.4 343.6c14-5.2 29.6-20 36.4-34.6 7-14.8 8-36.4 2.2-51.4-5.4-14.4-21-32-34.8-39-13.4-6.8-36.2-8.6-50.4-3.8-27.4 9.2-47 35.8-47.4 64.2-0.4 28.6 18.8 56 46.2 66 11.8 4.4 34.4 3.8 47.8-1.4zM790 376.2c-18.2-5.8-28.4-12.2-42.2-26-14.8-14.8-22.6-29.2-27-49.8-3.4-16.8-3.4-24 0-40.8 4.4-20.6 12.2-35 27-49.8 20.6-20.6 42.6-29.8 71-29.8 9 0 20.8 1.2 26.4 2.8 42.6 11.4 74.8 53.2 74.8 97.2 0 44.4-32 85.8-75 97.2-14.2 3.8-41.6 3.4-55-1zM845.4 343.8c14.4-5.6 28.8-18.8 36-33.6 4.8-9.8 5.6-13.6 5.6-29.2-0.2-15.8-0.8-19.4-6-29.6-7.6-15.2-23.4-29.8-38.6-35.4-15.2-5.8-37.2-5-50.8 1.6-14.8 7.4-26.8 19.2-34 34-5.6 11.4-6.6 15.2-6.6 28.4 0.2 23.2 10.6 42.6 30.2 56.2 12.8 8.6 21.8 11.4 38.2 11.6 10.2 0.2 17.8-1 26-4zM373 291c-3.2-3-5-7.2-5-11s1.8-8 5-11l4.8-5h314.4l4.8 5c7 6.8 6.8 17.2-0.2 22.8-5.2 4.2-6.6 4.2-162.2 4.2h-156.8l-4.8-5z" />
<glyph unicode="&#xe91c;" glyph-name="servico12" d="M641 906.8c-72.8-31.6-123.4-54.4-125.4-57-3.2-3.8-3.6-9-3.6-41v-36.6l-279-1.2-13.6-6.4c-15.8-7.6-32.8-22.8-39.8-36-2.8-5.4-28-74.6-55.8-154.2l-50.8-144.4-11.6-3.4c-24.4-6.8-46-26.6-56-51-4.4-10.4-4.4-12-5-151.6l-0.6-141 4.6-9c6.2-11.8 14.8-16.8 32.6-18l14-1 1-42c1-41.6 1-42 6.6-51.6 6.6-11.2 17.8-19.8 29.8-23.2 6-1.8 26.6-2.2 69.6-1.8 58.2 0.6 61.4 0.8 69 5 9.4 5 19 14.8 24.2 24.6 3.2 6 3.8 12.6 4.4 48.6l0.6 41.4h409.6l0.6-42.6c0.6-46.8 1.2-48.8 14.4-62 14.2-14.4 14.8-14.4 87.2-14.4 73.2 0 73.2 0 88.2 15.4 12 12.4 13.8 20.6 13.8 65v38.6h13.2c15.8 0 25.4 4.6 32.8 15.4l5 7.4 0.6 135c0.4 95.8 0 138.6-1.6 147.2-2.8 14-9.8 28.6-19.6 40.6-4 5-6.2 9.2-5.2 10.2s16.2 12 33.8 24.4c17.6 12.4 38 28.6 45.4 36.2 15.8 16 29.8 37.8 37.8 58.4 11.2 29.2 11.8 37 11.8 182.2 0 123.2-0.2 132.8-3.4 136.8-4.2 5-246.4 110.2-253.2 110-2.4 0-59.2-24-126.4-53zM879 876.4l110-47.6 0.6-122.8c0.6-132.2 0-140.8-10.2-165-6.4-15.6-20-35.6-31.8-46.8-9-8.8-176.6-130.2-179.6-130.2-1 0.2-137.2 96.8-163.2 116.2-26.6 19.6-45.6 47-54.2 77.8-3.4 12-3.6 23.6-3.6 142v128.8l110 47.6c60.6 26.2 110.4 47.6 111 47.6s50.6-21.4 111-47.6zM444 721v-17h-28.8c-30.2 0-37-1.4-45-8.6-9.2-8.4-12.2-18.6-12.2-41.4 0-24.6 1.8-32.6 9.4-40.6 11-11.4 11-11.4 80.6-11.4h64v-10.8c0-16.2 5.4-44 11.8-60.4 13-33.2 37-62.4 70.8-85.8 9.6-6.6 17.4-12.6 17.4-13.4 0-1-113-1.6-251-1.6s-251 0.6-251 1.2c0 1.8 93.4 267.4 97.4 276.8 5 12.4 18.4 23.8 32.6 28.2 2.8 0.8 49.8 1.6 104.6 1.6l99.4 0.2v-17zM512 721v-17h-34v34h34v-17zM512 653v-17h-120v34h120v-17zM687.8 378.8c13.4-9.6 23.8-18 22.8-18.8-0.8-0.8-4.8-2.6-8.6-4-35.8-13.8-61-59-51.4-92 3.8-13.2 14.4-26.4 26.2-32.6 7.8-4.2 10.6-4.4 69.8-5 69.2-0.6 74.2 0 89 12.6 4.4 3.8 10.2 11.2 12.8 16.6 4.2 8.4 4.6 12 4.6 37.4 0 34.4-2.6 42.6-17.4 56-5.6 5-10.8 9-12 9-1 0-1.4 0.8-0.6 1.8 1.6 2.8 38.4 28.2 40.4 28.2 3.2 0 14.8-12.6 19.2-20.8s4.4-9 5-142.6l0.6-134.6h-52.2v20.6c0 25.6-4.2 35.6-18 42.8-7.6 4-11.4 4.6-32.4 4.6-26.2 0-33.2-1.8-42-11.2-8-8.6-9.6-15-9.6-37v-19.8h-546v18.6c0 22.8-2.2 30.8-10.4 38.8-9.6 9.2-15.2 10.6-41.2 10.6-27 0-36.6-3.2-44.6-14.2-4.2-6-4.8-9.2-5.4-30.4l-0.8-23.4h-51.6v130.6c0 143.4 0 143.2 12 157.8 3.2 4 10.6 9.6 16.4 12.4l10.4 5.2h590.4l24.6-17.2zM814.2 322.8c4.2-4.6 4.8-7.2 5.4-24.6 0.8-22.8-2.2-33-10.8-36.4-3.4-1.2-26-1.8-61-1.4-50.6 0.6-55.8 1-59.4 4.4-6.2 5.4-7.2 13.6-3.4 26.6 2.6 9.2 5.6 13.8 13.6 21.6 5.8 5.6 13.6 11.2 17.4 12.4 4.2 1.2 24.6 2.2 50.2 2.4l43.2 0.2 4.8-5.2zM154 107v-17h-34v34h34v-17zM802 107v-17h-34v34h34v-17zM222 18.8v-37.2l-11.6-11.6h-55.4c-57.8 0-64.6 1-67.8 9-0.6 1.8-1.2 20-1.2 40.2v36.8h136v-37.2zM836 18.6c-0.2-39.4-0.6-41.6-9.4-46.2-6-3.4-111.2-3.4-117.2 0-8.8 4.6-9.2 6.8-9.4 46.2v37.4h136v-37.4zM677 848c-59.8-25.8-89.4-39.6-92.4-43.2l-4.6-5v-107.4c0-119.6 0.4-124.4 13-148 4-7.8 12-18.4 18.6-24.8 6.2-6.2 42.6-33.4 80.6-60.4 56.2-39.8 70.6-49.2 75.8-49.2s19.4 9 73.6 47.6c76.4 54 90.6 66.2 101.2 86.4 12.8 24.2 13.2 28.4 13.2 148.4v107.4l-4.4 5.2c-3.2 3.4-31.6 16.6-90.6 42.2-47.2 20.4-88.2 37.4-91 38-3.4 0.6-32.6-11.2-93-37.2zM847.6 815.6l74.6-32.2-1.2-206.4-5.6-12.2c-3.2-7-9.8-16.2-15-21.2-11.8-11.4-128.4-94.4-132.4-94.4-4.2 0-120.8 83.2-132.4 94.4-5.4 5.2-11.8 14.2-15 21.2l-5.6 12.2-1.2 206.4 76.6 33.2c42.2 18.2 78 32.8 79.6 32.2s36.6-15.6 77.6-33.2zM864 753.4c-2.8-1.4-33-37.4-67.2-80s-63.2-78.6-64.2-79.6c-1.6-1.6-10 3.6-29 17.6-14.6 11-28.6 21.2-31.2 22.4-5.8 3-14.8 1.2-19.6-4-4.4-4.8-4.8-16-0.6-21 5.2-6.2 73.4-56.6 78.4-57.8 2.8-0.8 7.2-0.2 10 1.4 6.2 3.2 145 176.4 146.6 182.6 1.6 6.8-4.2 16.2-11.4 18.8-3.6 1.2-6.4 2.2-6.6 2.2s-2.4-1.2-5.2-2.6zM261.4 701.2c-9.2-3.4-19.8-11.2-25.2-19-2.4-3.2-19.4-49.2-38.2-102.4-31.4-88.8-33.8-97.2-31.8-103.2 2.4-7.8 7-10.6 16.4-10.6 4.4 0 8 1.6 10.8 4.6 2.2 2.4 17 41.2 33.6 88.4 37.8 107.6 36.6 104.4 41.6 108 3.2 2.2 9.8 3 24.6 3 19.2 0 20.6 0.2 25.6 5.2 8.4 8.6 6.6 20.8-4.2 26.4-6 3.2-43.6 3-53.2-0.4zM95.8 356.4c-12-6.2-22.2-19.2-26-33-3.6-13.2-1.6-58.8 3-67.4 5-9.8 14.8-19.6 24.2-24.6 7.6-4.2 10.8-4.4 68.6-5 68.4-0.6 75.4 0.2 89.6 12.4 26.8 22.8 21.6 72.4-10.6 101.4-21.6 19.4-31.2 21.8-90.8 21.8h-47.4l-10.6-5.6zM209 323.2c17.2-8 29-25 29-42.2 0-20.6-1.2-21-68.8-21h-55l-5.6 4.8c-5.4 4.6-5.6 5.8-6.2 25.2-0.8 23.4 0 28.4 6 34 4 3.8 7 4 47.4 4 41 0 43.8-0.2 53.2-4.8zM327 256.8c-18-9.4-19-12.6-19-64.8 0-49.4 0.4-51.6 13.4-61.4l7.2-5.6 260.4-1 8 4.6c4.4 2.4 10 8 12.4 12.4 4.4 7.6 4.6 10 4.6 51s-0.2 43.4-4.6 51c-2.6 4.4-8 9.8-12.4 12.4l-8 4.6h-128c-112.2 0-128.8-0.4-134-3.2zM580 192v-34h-238v68h238v-34z" />
<glyph unicode="&#xe91d;" glyph-name="send" d="M951 958.6c-8.2-2.2-904.4-290.8-912.4-293.8-11.4-4.2-25.8-17.4-32.2-29.6-7.2-14-7.6-37.6-0.8-51.4 5-10.4 16.4-22.6 25.4-27.4 3.4-1.6 86.6-29.8 185-62.8l178.8-59.6 11.2 7.8c69.8 48.6 319.6 221.8 321.8 223.2 4 2.4 10.8 12.4-111.8-163-61.2-87.4-112.8-161.4-114.8-164.4-3.6-5.4-3.6-5.6 55.8-184 32.8-98.2 61.2-181.8 63-185.6 5-9.8 16.8-21 27.8-26.4 13.8-6.8 37.4-6.4 51.4 0.8 12.2 6.4 25.4 20.8 29.6 32.2 1.8 4.6 68.6 211.4 148.6 459.4 138.4 429.6 145.4 451.8 145.4 466 0.2 24.4-11 42.8-32 53.2-10.6 5.2-30.6 8-39.8 5.4z" />
<glyph unicode="&#xe91e;" glyph-name="telefone" d="M435.814 550.093c-83.763-48.333 44.032-287.846 135.68-234.906l84.992-147.149c-38.707-22.323-71.373-36.352-116.224-10.752-124.518 71.066-261.427 308.224-257.536 449.741 1.331 49.152 30.31 68.403 68.198 90.214 16.179-28.16 68.608-118.989 84.89-147.149zM470.938 554.086c-9.011-5.222-20.685-2.15-25.907 6.963l-80.077 138.752c-5.222 9.011-2.15 20.685 6.963 25.907l42.086 24.269c9.011 5.222 20.685 2.15 25.907-6.963l80.077-138.752c5.222-9.011 2.15-20.685-6.963-25.907l-42.086-24.269zM689.766 175.104c-9.011-5.222-20.685-2.15-25.907 6.963l-80.077 138.752c-5.222 9.011-2.15 20.685 6.963 25.907l42.086 24.269c9.011 5.222 20.685 2.15 25.907-6.963l80.077-138.752c5.222-9.011 2.15-20.685-6.963-25.907l-42.086-24.269zM512 896v-0.102c123.802 0 235.725-50.074 316.723-131.174 80.998-80.998 131.072-193.024 131.174-316.723v0c0-123.802-50.074-235.725-131.174-316.723-80.998-80.998-193.024-131.072-316.723-131.174v0c-123.802 0-235.725 50.074-316.723 131.174-81.101 80.998-131.174 192.922-131.174 316.723v0c0 123.802 50.074 235.725 131.174 316.723 80.998 80.998 193.024 131.072 316.723 131.174v0.102zM512 842.547v0c-108.851 0-207.462-44.237-278.938-115.61-71.373-71.475-115.61-170.086-115.61-278.938v0c0-108.851 44.237-207.462 115.61-278.938 71.475-71.475 170.086-115.61 278.938-115.61v0c108.851 0 207.462 44.237 278.938 115.61 71.475 71.475 115.61 170.086 115.61 278.938v0c0 108.851-44.237 207.462-115.61 278.938-71.475 71.373-170.086 115.61-278.938 115.61z" />
<glyph unicode="&#xe91f;" glyph-name="telemovel" d="M732.979 960h-441.651c-48.947 0-89.088-40.141-89.088-89.088v-845.824c0-48.947 40.141-89.088 89.088-89.088h441.651c49.050 0 89.088 40.141 89.088 89.088v845.824c0 48.947-40.038 89.088-89.088 89.088zM439.296 923.238h145.818c7.373 0 13.312-4.096 13.312-9.011s-6.042-9.011-13.312-9.011h-145.818c-7.373 0-13.312 4.096-13.312 9.011-0.102 5.018 5.939 9.011 13.312 9.011zM512.205-18.842c-38.093 0-68.915 30.925-68.915 68.915s30.822 68.915 68.915 68.915 68.915-30.925 68.915-68.915c0-38.093-30.822-68.915-68.915-68.915zM771.072 191.898c0-24.474-20.070-44.544-44.544-44.544h-428.749c-24.474 0-44.544 20.070-44.544 44.544v634.778c0 24.474 20.070 44.544 44.544 44.544h428.749c24.474 0 44.544-20.070 44.544-44.544v-634.778z" />
<glyph unicode="&#xe920;" glyph-name="whatsapp" d="M520.090 896c-241.050 0-436.429-195.482-436.429-436.429 0-82.432 22.938-159.642 62.566-225.485l-78.746-234.086 241.664 77.414c62.566-34.509 134.349-54.374 210.944-54.374 241.050 0 436.429 195.482 436.429 436.429s-195.379 436.531-436.429 436.531zM733.901 308.326c-8.806-24.986-43.93-45.773-71.987-51.712-19.149-4.096-44.237-7.373-128.614 27.546-107.93 44.646-177.357 154.317-182.682 161.382-5.222 7.168-43.622 58.061-43.622 110.694s26.829 78.336 37.581 89.293c8.806 9.114 23.552 13.107 37.478 13.107 4.608 0 8.602-0.205 12.288-0.41 10.752-0.41 16.179-1.126 23.347-18.125 8.806-21.299 30.413-73.933 32.973-79.36 2.662-5.427 5.222-12.698 1.536-19.866-3.482-7.373-6.451-10.547-11.878-16.896-5.427-6.246-10.547-10.957-15.974-17.613-5.018-5.837-10.547-12.083-4.301-22.938 6.246-10.547 27.853-45.773 59.597-73.933 40.96-36.454 74.24-48.128 86.118-53.146 8.806-3.686 19.456-2.765 25.907 4.096 8.192 8.909 18.33 23.552 28.672 37.99 7.373 10.342 16.589 11.674 26.317 7.987 9.933-3.379 62.362-29.389 73.216-34.714 10.752-5.427 17.92-7.987 20.48-12.493 2.458-4.506 2.458-25.907-6.451-50.893z" />
<glyph unicode="&#xe921;" glyph-name="autocaravanas" d="M157.797 726.183c-53.718-10.792-97.364-60.193-101.92-115.35-1.919-21.583-0.24-22.542 37.171-22.542h30.456l41.967 41.967 88.731 0.719c60.433 0.48 92.088-0.24 99.043-2.158 13.909-3.597 31.176-21.583 34.773-36.452 1.919-7.674 2.878-48.202 2.878-132.137v-121.345h40.528l0.719 90.649c0.959 98.563 0.719 98.083 15.588 115.59 12.47 14.868 20.384 16.787 72.663 16.787 60.433 0 68.586-3.357 82.016-32.375 5.276-11.751 5.516-13.909 6.235-101.441l0.719-89.21h119.427l16.067 8.154c32.615 16.787 64.989 16.787 98.563 0.24l17.027-8.393 81.296 0.48 81.057 0.719 0.719 189.212c0.48 166.43 0 189.932-3.118 194.968l-3.597 5.516-421.591-0.24c-341.493-0.24-424.468-0.719-437.418-3.357zM935.509 600.521l6.955-6.955v-80.817c0-87.532-0.48-90.889-13.19-96.644-4.556-2.158-34.053-2.878-106.956-2.878-110.074 0-111.273 0.24-117.029 13.909-1.919 4.796-2.638 29.497-2.158 87.771l0.719 81.057 13.43 11.511h211.275l6.955-6.955zM726.632 516.347c0-36.931 0.959-67.148 2.158-67.148 0.959 0 7.434 5.516 14.389 12.47 21.343 21.343 33.814 55.397 33.814 93.047 0 29.977 0.959 28.778-26.619 28.778h-23.741v-67.148zM800.255 550.64c-1.679-47.243-11.271-74.822-35.492-102.16l-9.832-11.271h135.254l-11.031 12.23c-23.741 26.379-36.212 67.148-34.533 111.993l0.719 22.063h-43.646l-1.439-32.854zM869.081 569.825c-2.398-19.185 2.398-54.917 10.312-74.102 4.317-11.271 10.552-20.624 20.624-31.176 7.674-8.393 15.108-15.348 16.307-15.348s2.158 29.737 2.158 67.148v67.148h-47.723l-1.679-13.669zM90.409 526.659c-47.243-47.243-87.052-87.771-88.251-90.17-1.919-3.118-1.439-5.995 1.439-10.312l3.597-5.756h142.689c126.141 0 142.689 0.48 146.046 3.837 3.357 3.118 3.837 14.868 3.837 92.088v88.491l-5.276 3.597c-4.556 3.118-14.629 3.837-61.632 3.837h-56.356l-86.093-85.613zM320.15 516.826c0-104.798 0.24-102.64-14.868-112.472-5.995-4.077-17.267-4.317-156.118-4.317h-149.403l0.719-59.953c0.719-58.754 0.719-60.193 6.715-70.745 3.357-5.756 10.312-13.669 15.588-17.267 10.312-7.194 31.655-12.23 46.284-11.031l8.873 0.719 1.439 20.384c3.597 49.162 39.569 87.532 90.409 96.405 61.872 10.552 122.784-42.447 122.784-106.956v-11.751l17.986 1.439c29.497 2.158 50.361 15.828 56.116 36.931 1.679 5.995 2.638 61.872 2.638 158.996 0 146.046-0.24 150.123-4.796 157.797-5.756 9.593-21.343 17.027-34.773 17.267h-9.593v-95.445zM472.191 534.333c-13.43-7.194-13.909-11.511-14.149-106.956l-0.24-87.292 62.591-0.719 62.351-0.48v88.251c0 88.251 0 88.491-5.516 96.644-2.878 4.317-8.154 9.353-11.271 11.031-8.873 4.556-85.373 4.077-93.767-0.48zM502.647 452.796c5.516-8.633 3.837-36.452-2.638-41.008-5.756-4.317-8.633-4.317-14.389 0-6.715 4.796-8.393 35.492-2.398 42.207s14.629 5.995 19.425-1.199zM163.073 336.727c-44.845-14.629-71.224-57.075-62.351-100.002 7.434-36.691 33.094-61.632 70.265-68.347 36.931-6.955 73.383 12.23 91.848 48.202 6.235 11.751 6.955 15.588 6.955 35.972 0 20.144-0.719 24.461-6.715 36.452-8.633 17.506-24.221 33.334-41.727 41.727-10.552 5.276-17.506 6.715-32.854 7.434-10.792 0.24-22.063-0.24-25.42-1.439zM772.197 336.727c-25.18-8.154-46.284-26.859-57.075-50.121-5.276-11.271-6.235-17.267-6.235-32.854 0-25.9 6.955-43.406 23.741-60.193 15.108-15.108 26.859-21.343 47.483-25.18 53.718-9.832 103.119 34.773 99.522 89.93-2.878 45.564-36.691 78.179-82.256 79.858-10.552 0.24-21.823-0.24-25.18-1.439zM390.175 295.719c-1.679-20.144-8.393-39.809-16.307-47.003-2.398-2.158-4.556-5.036-4.556-6.235 0-0.959 71.704-1.919 159.475-1.919h159.475v15.108c0 16.787 5.036 36.212 12.23 47.963 2.398 4.317 4.556 8.393 4.556 9.593 0 0.959-70.505 1.679-156.837 1.679h-156.598l-1.439-19.185zM882.511 313.945c0-0.48 2.878-5.995 6.235-12.23 6.955-12.47 12.71-35.013 12.95-50.84v-10.312h56.356c70.985 0 65.948-3.118 65.948 41.967v32.375h-70.745c-38.85 0-70.745-0.48-70.745-0.959z" />
<glyph unicode="&#xe922;" glyph-name="barcos" d="M396.46 707.398c-59.809-10.648-124.149-44.857-155.186-82.917l-8.156-9.968h269.819v97.416l-41.232-0.227c-29.678 0-48.255-1.359-65.246-4.304zM564.106 660.276v-51.427l48.708-24.467 48.708-24.241h86.088c51.2 0 86.088 0.906 86.088 2.039s-7.929 21.975-17.897 46.442l-17.671 44.177 88.127 1.359 7.476 8.382c4.304 4.531 8.382 11.781 9.062 16.085 2.039 10.421-3.625 23.108-12.913 28.772-7.25 4.304-11.101 4.531-166.513 4.531h-159.264v-51.653zM18.35 549.267c-11.101-5.664-17.218-14.726-17.218-26.053 0-8.609 7.25-21.522 67.738-120.524 37.381-61.168 72.496-118.032 78.159-126.867 28.319-43.044 77.933-77.027 128-87.448 19.71-4.078 36.701-4.304 374.032-4.304 350.471 0 353.416 0 360.892 4.531 14.273 8.609 14.046 6.796 14.046 151.561 0 143.858 0 143.405-13.14 153.147-5.89 4.531-10.648 4.531-186.223 5.664l-180.106 1.133-52.786 26.733-52.786 26.506h-256.453c-239.688 0-256.906-0.227-264.156-4.078zM263.703 430.103c11.781-4.984 17.218-13.593 17.218-27.639 0-9.515-1.133-13.366-5.664-18.804-17.444-20.389-50.294-9.742-52.559 17.218-2.039 23.335 19.030 38.513 41.005 29.225zM383.773 430.103c11.781-4.984 17.218-13.593 17.218-27.639 0-9.515-1.133-13.366-5.664-18.804-17.444-20.389-50.294-9.742-52.559 17.218-2.039 23.335 19.030 38.513 41.005 29.225zM503.844 430.103c11.781-4.984 17.218-13.593 17.218-27.639 0-10.421-0.906-12.913-7.476-19.71-9.968-10.874-20.842-12.687-34.209-6.343-16.312 8.156-22.202 27.186-12.687 42.818 7.703 12.46 22.655 16.991 37.154 10.874z" />
<glyph unicode="&#xe923;" glyph-name="carros" d="M591.251 689.714c-4.588-0.417-19.187-1.877-32.326-3.128-44.213-4.171-88.010-14.39-111.576-26.486-5.631-2.711-47.55-26.903-92.807-53.598-49.219-28.989-87.593-50.262-95.309-52.764-7.091-2.503-30.24-7.716-51.096-11.888-62.983-12.722-116.999-32.952-144.319-54.433-16.684-13.139-33.16-34.203-44.005-56.101-11.262-23.149-15.433-38.374-16.893-62.566-2.711-41.294 13.765-75.288 47.133-96.769 10.428-6.674 13.139-7.299 30.032-8.134 16.684-0.834 18.353-0.626 17.31 2.503-6.465 16.893-6.674 51.304-0.417 75.079 21.064 79.876 108.031 126.592 186.447 100.314 42.336-14.182 77.374-49.219 91.972-91.972 6.674-19.187 9.385-43.796 6.465-61.523-1.251-8.551-2.92-17.519-3.545-20.23l-1.251-4.588h316.793l-2.711 12.096c-6.674 27.946-2.086 63.609 11.47 91.138 15.85 31.7 36.288 52.138 67.989 67.989 70.283 34.829 158.918 4.797 192.912-65.903 10.428-21.481 14.599-39 14.599-63.609l0.209-19.813 13.139 13.973c22.315 23.149 32.326 50.887 29.823 81.753-1.043 10.845-5.214 25.861-15.224 54.433-28.78 81.962-42.545 130.763-42.545 149.116 0.209 5.214 1.46 15.433 3.128 22.941s2.92 17.727 3.128 22.732c0 20.021-15.016 37.54-36.080 41.711-13.765 2.711-76.122 9.593-127.635 13.973-36.914 2.92-193.747 5.84-214.811 3.754zM615.234 592.945v-56.101l-6.674-1.043c-3.754-0.626-32.743-3.545-64.235-6.465s-87.176-7.925-123.464-11.47c-51.513-4.797-67.78-5.631-72.994-3.754-7.299 2.294-35.037 18.561-35.037 20.438 0.209 2.503 152.453 90.93 164.132 95.309 25.861 9.385 83.839 18.77 119.084 19.187l19.187 0.209v-56.31zM772.275 645.292c3.963-3.963 24.192-90.095 21.481-91.138-2.294-0.834-127.426-13.347-133.475-13.347-2.92 0-3.337 6.674-3.337 54.433v54.641l56.31-1.043c39.625-0.834 57.352-1.877 59.021-3.545zM208.763 403.995c-50.887-13.556-83.63-70.7-70.074-122.421 4.38-17.31 12.513-31.909 24.401-44.422 21.064-22.315 44.213-32.326 74.871-32.326 45.256-0.209 82.17 27.112 96.978 71.117 5.84 17.101 5.214 47.133-1.251 63.609-12.305 32.117-35.246 54.015-66.32 63.609-16.059 5.005-41.919 5.422-58.604 0.834zM807.312 403.995c-16.684-4.38-31.075-12.93-44.005-25.861-19.813-19.813-29.198-43.379-29.198-72.994 0-27.946 9.802-51.721 29.406-71.325 49.219-49.219 134.517-34.411 163.715 28.572 26.069 56.31-2.711 122.838-60.898 140.774-16.476 5.005-42.128 5.422-59.021 0.834z" />
<glyph unicode="&#xe924;" glyph-name="comerciais" d="M721.836 692.459c-189.692-7.344-308.039-40.918-433.731-122.964-33.364-21.823-47.843-28.538-81.626-38.61-58.125-17.416-114.151-44.066-162.413-77.22-16.157-11.121-21.613-16.787-28.538-30.636-8.603-16.157-11.541-28.118-12.8-50.78-1.259-23.502 1.049-40.708 9.023-66.098 8.184-26.23 23.292-39.449 44.905-39.659h9.443l-0.63 22.662c-0.42 15.528 0.42 27.489 2.728 37.141 16.577 72.184 88.97 118.138 161.574 102.82 38.61-7.974 75.751-36.931 93.167-72.393 11.121-22.872 15.318-43.226 14.479-69.875l-0.63-20.354h170.807c161.574 0 170.597 0.21 169.128 3.777-0.839 1.889-1.889 11.121-2.518 20.354-2.308 36.511 11.751 72.393 39.030 99.462 17.836 17.836 32.525 27.279 55.187 35.462 13.43 4.826 18.466 5.456 41.548 5.456s28.328-0.63 43.436-5.666c20.984-7.134 44.905-22.662 59.174-38.61 20.564-23.082 33.784-57.285 33.784-87.711 0-8.184 0.63-15.528 1.259-16.367 0.63-0.63 5.875 1.679 11.541 5.036 35.043 21.823 57.705 57.915 62.531 100.511 2.938 26.020-0.839 84.774-8.184 130.728-6.925 43.646-22.452 104.918-31.685 124.433-11.331 24.341-36.511 42.597-64.839 46.793-19.515 2.938-141.849 4.197-195.148 2.308zM538.859 553.548l-0.63-78.269-32.944-0.63c-18.256-0.21-33.154 0-33.154 0.63s7.134 11.751 15.738 24.761c13.22 19.725 15.738 24.761 15.738 32.315 0 16.997-19.725 25.6-33.154 14.269-3.357-2.728-15.948-20.144-27.908-38.61l-21.823-33.784h-36.511c-22.033 0-39.659 1.049-44.695 2.518-5.666 1.679-15.528 9.023-30.216 22.452-11.961 10.911-21.823 20.984-21.823 22.243 0.21 2.518 53.298 35.672 81.836 50.99 25.81 13.849 51.62 24.97 82.885 35.882 24.761 8.813 76.38 23.082 83.515 23.292 3.357 0 3.567-4.616 3.148-78.059zM176.262 385.259c-44.905-12.59-74.911-58.754-67.357-103.449 7.974-46.793 45.325-78.479 92.538-78.689 37.141 0 68.197 20.144 84.564 54.557 6.295 13.22 6.715 15.528 6.715 37.141 0 19.305-0.839 25.18-5.036 35.252-16.997 42.807-67.148 67.567-111.423 55.187zM782.689 383.37c-27.698-9.443-50.57-32.944-58.964-60.643-6.715-21.823-5.036-45.954 4.407-65.679 20.984-44.066 71.554-65.049 116.669-48.682 40.498 14.689 66.938 59.803 59.593 101.561-1.259 7.764-4.826 19.095-7.554 25.18-6.505 13.639-23.502 32.525-35.882 39.869-23.502 13.639-53.508 16.997-78.269 8.393z" />
<glyph unicode="&#xe925;" glyph-name="motas" d="M178.655 789.188c-3.486-1.307-10.894-6.536-16.123-11.329-9.151-8.279-10.022-12.637-10.022-61.876s0.871-53.597 10.022-61.876c13.072-12.201 27.016-15.687 37.91-10.022 8.279 4.357 8.715 3.486 8.279-35.731v-40.524l-59.697-41.396c-75.384-52.725-90.199-65.797-99.35-89.763-6.536-17.43-6.972-54.468-0.871-61.004 1.307-0.871 13.508 3.050 27.016 9.151 112.858 49.675 241.838-15.687 268.854-135.952l5.229-23.094h656.231l8.715 11.329c7.843 10.022 9.151 17.866 9.151 53.597 0 67.54-16.123 111.115-54.468 151.203-12.201 12.201-32.245 27.452-44.882 33.988l-22.223 11.329h-327.244l10.894-21.787c19.609-39.217 29.195-99.786 21.351-139.003l-2.614-13.508h-38.781c-47.060 0-76.691 5.665-111.115 22.223-50.111 23.53-88.892 72.334-109.808 139.003-11.329 36.603-18.737 204.8-8.715 204.8 3.050 0 24.837-6.1 48.803-13.072 25.273-7.408 47.060-11.765 53.161-10.458 22.223 5.665 35.295 37.474 22.223 54.468-8.279 10.894-18.301 14.815-94.557 37.91-39.653 12.201-77.563 24.837-84.534 28.323-17.866 9.586-44.010 13.072-54.032 7.843-6.536-3.486-12.637-3.050-24.402 1.743-8.279 3.486-16.123 6.536-16.558 6.1-0.871 0-4.357-1.307-7.843-2.614zM542.066 576.98c-9.151-7.408-12.201-14.38-12.201-25.709 0-30.066-3.922-29.195 147.717-29.195 125.93 0 136.388 0.436 142.924 7.843 10.894 12.201 9.151 33.988-3.486 46.625l-10.458 10.894h-252.732l-11.765-10.458zM119.394 361.287c-56.211-14.38-111.115-71.462-115.908-120.266l-1.307-13.072 154.254-1.307 154.254-0.871-2.614 15.687c-10.458 64.49-74.948 118.958-143.796 122.009-17.43 0.871-37.474 0-44.882-2.179zM47.932 183.067c0-10.894 22.223-40.96 40.089-54.032 41.831-30.938 97.171-30.066 139.874 2.614 12.201 9.586 37.91 47.496 37.91 56.647 0 1.307-48.803 2.614-108.936 2.614-103.271 0-108.936-0.436-108.936-7.843zM703.728 181.324c4.793-15.251 23.966-42.267 37.474-51.854 57.518-40.96 139.003-23.53 169.94 36.167 4.357 9.151 8.279 18.301 8.279 20.916 0 3.050-36.603 4.357-109.372 4.357h-108.936l2.614-9.586z" />
<glyph unicode="&#xe926;" glyph-name="stands" d="M470.2 949.8c-25.6-2.8-54.6-9.2-81.2-18-146.8-48.8-251.4-179.4-267-333.6-7.6-75 8.4-143 55-236.4 55.4-110.2 162.4-252 283.4-374.8l41.2-42h20.8l41.2 42c152.8 155.2 273.8 328 317.4 453.4 29.4 84.2 30.2 159.8 2.8 242.6-57.6 174.4-230.4 285.8-413.6 266.8zM568.4 834c55.8-11.6 99-35.4 140.6-77 25.8-25.8 38.4-43 53.6-73 20-40 28.2-75.8 28.2-124 0-59.8-14.6-108-47.8-158-12.8-19.4-53.6-60.2-73-73-142-94.2-327.4-47-407 103.4-10.8 20.8-19.6 45.8-25.4 72.2-6.2 29.2-6.2 81.6 0 110.8 11.6 54.2 34.8 98 72.2 137 20.8 21.8 39 36.4 63.2 50.2 29.8 17.4 68.4 30.4 103.4 35.2 22 3 69.2 1 92-3.8zM503 758c-4-1.6-180.8-161.4-187-169-1.8-2-3-7.6-3-13.2 0-8.4 1-10.6 6.6-16.2 6.2-6.2 7.4-6.6 23.4-7.4l16.8-0.6 1.2-161.6 6.6-6.4 6.4-6.6h76l6.4 6.6 6.6 6.4 2 108 6.6 6.4 6.4 6.6h68l6.4-6.6 6.6-6.4 2-108 6.6-6.4 6.4-6.6h76l6.4 6.6 6.6 6.4 1.2 161.6 16.8 0.6c16 0.8 17.2 1.2 23.4 7.4 5.6 5.6 6.6 7.8 6.6 16.2 0 7-1.2 11.2-4 14.4-9.8 11-182 166.2-186.4 168-5.8 2.2-12.2 2.2-17.6-0.2z" />
<glyph unicode="&#xe927;" glyph-name="bandeira" d="M62 448v-512h60v373.4l15.4 7.6c95.8 46.6 204 51.4 300.6 13 11.2-4.4 39.4-17.8 62.6-29.8 23.4-12 51.4-25.4 62.6-29.8 95.6-38 196.4-41 293.8-8.8 18 6 41.6 16 66 28.4l38 19 0.6 306.4 0.4 306.4-24.4-14.2c-83.4-47.8-141.6-65.6-215.6-65.6-34 0-62.2 3.6-93.8 12.2-32.6 8.6-52.8 17-109.2 45.8-52.6 26.6-76.6 36.2-115.8 46-60.8 15.4-130.4 16.2-192.6 2.2-23-5.2-52.2-14.4-72.8-23.2l-15.8-6.6v41.6h-60v-512z" />
<glyph unicode="&#xe928;" glyph-name="calendario" d="M139.023 888.932c-32.992-3.735-59.552-14.11-80.924-31.436-23.655-19.194-39.217-51.459-44.197-91.403-2.179-17.845-2.179-616.267 0-634.112 3.631-29.050 12.657-53.846 26.352-72.209 8.092-10.79 12.554-15.355 23.24-23.24 20.439-15.147 44.716-23.862 76.567-27.493 19.505-2.179 686.194-2.179 705.491 0 31.125 3.631 52.704 10.997 74.388 25.626 30.917 20.853 49.281 57.892 53.223 107.172 1.452 18.675 1.452 596.348-0.104 614.504-5.914 72.52-41.396 115.472-106.757 129.478-22.098 4.772-13.384 4.669-374.533 4.565-272.133-0.104-343.201-0.415-352.746-1.452zM840.883 657.78c8.611-2.594 13.902-5.395 21.061-11.205 6.64-5.395 11.931-14.11 15.459-25.315 1.764-6.017 1.867-15.977 1.867-240.697v-234.472l-2.282-7.262c-6.64-20.75-20.335-32.473-42.537-36.312-8.092-1.349-48.762-1.556-345.795-1.349-320.584 0.311-336.976 0.415-342.89 2.179-19.816 5.914-31.747 17.534-37.453 36.52-1.867 5.914-1.971 17.534-2.282 237.066-0.311 254.392-0.622 239.556 6.017 253.977 4.254 9.13 13.072 18.052 22.202 22.513 14.629 7.055-13.176 6.64 361.149 6.432 323.385-0.207 339.57-0.311 345.483-2.075zM389.369 567.726c-4.046-1.141-8.196-6.017-9.649-11.101-1.349-5.084-1.349-42.122 0.104-47.413 1.349-5.084 5.291-9.441 10.167-11.101 2.594-0.934 10.686-1.349 26.56-1.349 20.957 0 23.136 0.207 26.975 2.179 2.801 1.452 4.876 3.527 6.536 6.744 2.282 4.461 2.386 5.291 2.075 28.635-0.311 26.352-0.415 26.663-7.47 31.851-2.697 2.075-4.357 2.179-27.39 2.386-13.487 0.104-26.041-0.207-27.908-0.83zM544.266 567.83c-3.631-1.141-6.536-3.735-8.715-7.781-1.349-2.49-1.764-7.055-2.075-22.202-0.519-22.41 0.104-28.842 3.216-33.511 4.565-6.744 7.989-7.574 31.851-7.574 11.724 0 23.032 0.415 25.211 0.83 2.075 0.415 5.499 2.179 7.47 3.942 5.084 4.461 6.017 10.167 5.499 34.963-0.415 23.655-1.037 25.937-9.13 30.087-4.357 2.179-5.706 2.282-27.493 2.179-12.554 0-24.173-0.519-25.833-0.934zM698.851 567.83c-3.631-1.141-6.536-3.735-8.715-7.781-1.349-2.49-1.764-7.055-2.075-22.202-0.519-22.41 0.104-28.842 3.216-33.511 4.565-6.744 7.989-7.574 31.851-7.574 11.724 0 23.032 0.415 25.211 0.83 2.075 0.415 5.499 2.179 7.47 3.942 5.084 4.565 6.017 9.856 5.499 34.652-0.415 23.966-1.037 26.248-9.13 30.398-4.357 2.179-5.706 2.282-27.493 2.179-12.554 0-24.173-0.519-25.833-0.934zM241.527 416.46c-7.366-1.037-11.931-3.735-14.421-8.404-1.764-3.216-1.971-6.121-1.971-26.975s0.207-23.862 2.075-27.805c1.556-3.424 3.009-4.876 6.432-6.432 3.942-1.764 6.951-2.075 26.871-2.075 14.006 0 23.758 0.415 25.937 1.141 4.876 1.66 9.026 5.81 10.271 10.167 0.519 2.075 1.037 13.591 1.037 25.522 0 25.833-0.83 28.842-8.507 32.785-4.046 2.075-6.225 2.386-23.136 2.594-10.271 0.104-21.268-0.104-24.588-0.519zM395.283 416.357c-7.366-1.037-10.894-3.112-14.006-8.404-1.867-3.216-2.075-5.395-2.075-27.39s0.207-24.173 2.075-27.39c1.141-1.971 3.424-4.461 4.98-5.706 2.801-2.075 4.461-2.179 26.456-2.49 25.73-0.311 30.502 0.311 34.86 4.876s4.772 7.366 4.772 31.125c0 21.268-0.104 22.721-2.282 27.078-3.942 7.677-7.055 8.611-29.257 8.922-10.375 0.207-21.787-0.104-25.522-0.622zM549.868 416.357c-7.366-1.037-10.894-3.112-14.006-8.404-1.867-3.216-2.075-5.395-2.075-27.39s0.207-24.173 2.075-27.39c1.141-1.971 3.424-4.461 4.98-5.706 2.801-2.075 4.461-2.179 27.493-2.49 23.862-0.311 24.692-0.207 29.257 2.075 8.404 4.254 8.819 6.017 8.819 33.511 0 28.012-0.519 29.983-8.611 33.926-4.357 2.075-6.536 2.282-23.032 2.49-9.96 0.207-21.165-0.104-24.9-0.622zM703.935 416.253c-7.055-1.037-10.479-3.216-13.487-8.3-1.867-3.216-2.075-5.395-2.075-27.39s0.207-24.173 2.075-27.39c1.141-1.971 3.424-4.461 4.98-5.706 2.801-2.075 4.15-2.179 28.531-2.179 23.862 0 25.833 0.104 29.257 2.075 1.971 1.245 4.461 3.735 5.706 5.706 1.971 3.32 2.075 5.395 2.075 27.493 0 28.012-0.519 29.983-8.611 33.926-4.461 2.075-6.536 2.282-23.551 2.49-10.271 0.207-21.476-0.104-24.9-0.726zM233.642 262.809c-3.527-1.556-4.876-3.009-6.536-6.744-1.971-4.461-2.075-6.536-1.764-29.050 0.311-27.39 0.519-28.012 8.715-32.162 3.735-1.867 6.121-2.075 27.39-2.075 27.39 0 29.88 0.622 34.030 8.819 2.282 4.565 2.386 5.395 2.075 28.738-0.311 26.352-0.415 26.663-7.47 31.851-2.697 2.075-4.461 2.179-27.39 2.49-22.617 0.207-24.9 0.104-29.050-1.867zM389.369 263.742c-4.15-1.245-8.196-6.017-9.649-11.516-0.726-2.594-1.037-12.242-0.83-25.626 0.415-25.211 1.037-27.493 8.922-31.436 4.669-2.282 6.017-2.386 28.22-2.386 27.39 0 29.88 0.622 34.030 8.819 2.282 4.565 2.386 5.395 2.075 28.738-0.311 26.352-0.415 26.663-7.47 31.851-2.697 2.075-4.357 2.179-27.39 2.386-13.487 0.104-26.041-0.311-27.908-0.83zM542.606 262.601c-8.404-4.254-8.819-6.017-8.819-33.511 0-28.116 0.519-30.295 8.715-34.133 4.357-1.971 6.536-2.179 27.597-2.179s23.24 0.207 27.597 2.179c8.092 3.735 8.715 6.121 8.715 33.615 0 27.39-0.622 29.88-8.819 34.030-4.357 2.179-5.81 2.282-27.493 2.282s-23.136-0.104-27.493-2.282z" />
<glyph unicode="&#xe929;" glyph-name="chave" d="M717 951.8c-70.2-17-152-70-238.8-154.8-92-89.8-161.6-188.4-188.6-267-8.8-25.8-9.2-46.6-1.2-60 3-5 57.4-60.8 124-127.2 131.8-131.4 125.6-126.4 150.2-124.4 26.8 2.2 81.6 25.8 129 55.6 28 17.6 75.8 53.6 107.4 81 35.4 30.6 93.4 90.2 119.6 123 60.8 75.6 97.4 149 97.4 194.6 0 22.4 1 21.2-130.6 152.6-82.2 82-123 121.4-128.4 123.8-9.2 4.4-28.4 5.6-40 2.8zM728.4 856.4c2-0.8 45.8-44.6 97.6-97.2 106.6-108.6 99-98 88-123.8-31-72.8-128-182.2-227.8-257-43.2-32.4-100-64.4-114.4-64.4-4.4 0-22.2 17.2-98.6 94.8-86.8 88.4-93.2 95.2-93.2 101.8 0 9 18.6 45.6 39 76.6 71.4 108.8 186 217.2 275.6 261 19.2 9.4 26.4 11.2 33.8 8.2zM697.4 815.2c-36.8-19.2-84-54.4-120.4-89.6l-20-19.4 213.2-213.2 19.4 20c32.6 33.6 67.2 79.4 86.4 114 14.4 26 23.4 12.6-74.8 110.8l-86.6 86.6-17.2-9.2zM737.4 673.4c44.2-44 45.6-46.4 35.6-56.4-10-10.2-12.4-8.6-56.4 35.4-44.2 44.2-45.8 46.6-35.6 56.6 10 10 12.4 8.6 56.4-35.6zM515.6 662.4c-38.8-43.4-76.4-95.2-95.8-131.8l-8.8-16.4 82-82.2c45-45 83.2-82 84.6-82 4.2 0 40.2 20.6 64.2 36.8 22.4 14.8 70.2 52.8 92.2 73l13 12-105 105c-57.8 58-105.8 105.2-107 105.2-1 0-9.8-8.8-19.4-19.6zM581.4 517.6c34-34 36.6-37 36.6-43.8 0-8.8-5.6-14.4-14.2-14.4-5.2 0-11.2 5-43.2 37.2-32.2 32-37.2 38-37.2 43.2 0 8.6 5.6 14.2 14.4 14.2 6.6 0 10-2.8 43.6-36.4zM257 330l-62-62 58-58 125 125-28.4 28.4c-15.8 15.8-29 28.6-29.6 28.6s-29-27.8-63-62zM371 284l-28-28 56-56 56 56-56 56-28-28zM124.4 195.4l-48.4-48.4 57-57 98 98-28 28c-15.4 15.4-28.4 28-29 28s-22.8-21.8-49.6-48.6zM263 176l-58-58 56-56 116 116-56 56-58-58zM34.6 105.4c-23-24-28-33.8-26-52.4 1.4-13.8 6.6-23 21.8-39.6l12.6-13.6 34.6 34.6 34.4 34.6-57.2 57.2-20.2-20.8zM124.4 37.4l-58.4-58.4 13.4-13.4c7.6-7.2 16.6-14.8 20.4-16.6 10.4-5.2 26-6 38.4-2 9.8 3.2 15.2 8 56.4 48.8l45.6 45-25.6 25.8c-14.2 14-27 26.4-28.8 27.4-2.4 1.4-15.8-11-61.4-56.6z" />
<glyph unicode="&#xe92a;" glyph-name="co2" d="M378 826c-64-9-114.6-33.4-160.6-78-55.6-53.6-82.8-111.6-88.4-188.4l-1.4-19.6-12.4-8.2c-53.4-36.2-90-86-106.4-145.2-17-61.6-8.2-134.4 22.6-187.6 41.2-71.4 112-119.2 190.6-129 11-1.2 118.4-2 307-2 314.4 0 307.2-0.2 342.4 11 34 10.8 62.6 29.2 91.2 58.8 33.6 34.8 51.6 70.6 58.4 116.2 10.8 70.2-9.8 135.2-58.8 186.4-18.4 19.4-36 33-57.2 43.8-8.8 4.6-16.4 8.6-16.8 9-0.2 0.2 1 6.6 3 14.2 4.6 17.8 4.8 54.4 0.2 73-10.8 44-43.2 83.8-84.2 103.6-27.6 13.2-44.8 16.8-77 15.6-21.2-0.8-27.8-2-42.2-7-9.4-3.2-18.4-6.6-20-7.4-2.4-1-4.4 0.8-7.6 6.6-8.2 14.4-31.4 43-46.8 57.2-40 37.4-87.2 62-139.2 73-22.2 4.8-75.2 7-96.4 4zM356.4 469.8c16.8-3.6 35.4-13.4 46.8-24.8 8.4-8.4 11.2-13 14.6-24 7.8-25 4-43.6-9.8-48.4s-34.2-2.2-40.8 5.2c-1.8 2-4.2 8.8-5.2 15s-3.6 13.8-5.8 17c-4.8 6.8-17.2 12.2-27.8 12.2s-24.4-7.6-29.4-16c-3.8-6.6-4-10.4-4-71 0-61.2 0.2-64.4 4.2-72 5.8-11.2 14.6-15.8 29.6-15.8 21.2 0.2 29.4 7.8 33.2 32 1 6.2 3 12.6 4.4 14.4 4.2 5 14.8 8.4 25.6 8.4 23 0 31.4-9.8 29.4-34.6-3.6-41.8-36-68.2-87.4-70.8-23.8-1.2-37.6 1-54 8.6-21.8 10.2-34.8 25.8-41.2 49.6-3.4 12.4-4 143-0.8 156.8 6.8 28.8 26.8 48.8 58 57.6 11.4 3.2 46.4 3.4 60.4 0.6zM598.2 466.2c24.8-9.6 40-24.6 47.2-46.2 3.2-9.8 3.6-19 3.6-87 0-74.6 0-76.2-4.6-87.4-13.2-32.6-42.2-49.2-86.4-49.4-44.2-0.4-76.4 18-88.2 50.2-4.4 12-4.6 15.8-5.4 79.4-0.8 72.2 0.4 86.2 8.6 103.4 9 18.6 28 33.2 51.2 39.8 16.6 4.6 59.2 3 74-2.8zM764.8 363c39.6-10.4 50.2-50.2 21.8-82.4-3-3.4-15.8-13.6-28.2-22.6-21-15.4-26.4-20.6-26.4-25.8 0-1.4 9.8-2.2 28.8-2.2 16 0 31.2-0.8 33.8-1.8 8.2-3.2 10.8-19.2 4.2-26.4-3.2-3.6-6.8-3.8-48.2-3.8-44 0-51.2 0.8-55 6.8-2.6 3.8-1.8 31 1 37.8 4.4 10.4 12 18 36.4 36.4 12.8 9.6 25.4 20.6 28 24.6 10.2 15 3.8 30.4-12.4 30.4-8.2 0-16.6-7.4-16.6-14.8 0-8.4-8-15.6-17.6-16-12.2-0.2-17.4 5.4-17.2 19.4 0.4 16 8.6 28.2 24.2 36.2 14.4 7.2 27 8.4 43.4 4.2zM545.8 420.2c-10-3.2-14.2-6.6-18-14.8-3.4-7.6-3.8-14-3.8-71.2 0-58.6 0.2-63.4 4-71.2 5.4-11.2 13.8-15.8 29.2-15.8 15 0 23.8 4.6 29.6 15.8 4 7.6 4.2 10.8 4.2 71 0 59-0.2 63.6-4 71-6.6 13.2-25 20-41.2 15.2z" />
<glyph unicode="&#xe92b;" glyph-name="combustivel" d="M238 957.8c-32.8-6.4-61-37.2-66-72.2-1.2-7.2-2-176-2-396v-383.6h-6.4c-23.6-0.2-56-21-67.6-44-8.8-17.4-10-24.8-10-69.4v-42.6l5.8-6.4 5.8-6.6 366.8-0.6c252-0.4 368.8 0 373.8 1.6 13.8 3.8 14.8 7.6 14.8 54 0 44.8-1.4 53.6-11.2 71.2-12 21.4-39.4 39.8-62.6 42.2l-11.2 1.2v171.4h9.6c13.4 0 23.6-3.4 28.4-9.4 3.6-4.6 4-8 4-29.6 0-39.8 4.2-54.8 20-70.4 13.4-13.6 23.8-17.6 45-17.6 15.6 0 19.4 0.8 28 5.4 12 6.2 22.8 17.4 29.2 29.6l4.8 9 0.6 310.8c0.4 305 0.4 310.8-3.4 317-2.2 3.4-23.6 25.8-47.8 49.8-44.2 43.8-45.4 44.8-58.4 43.6-6.4-0.6-15.6-9.8-16.2-16.2-1-12.8 0-14.4 37.6-52.4l37.4-37.6-36.4-36.6c-26.6-26.6-37-38.4-38.4-43.4-2.4-8.6-2.6-62.6 0-79.6 5.2-37.2 34-66.8 70.8-72.8l13.2-2.2v-182.8c0-201.2 0.6-191-12.2-197.8-8.6-4.4-18.2-2.2-24.6 5.4-5 5.8-5.2 7.2-5.2 30.6 0 39.2-4.2 53.8-20.4 70.6-11.8 12.2-24.8 17.2-47 18.2l-18.6 0.8v279.6c0 178.8-0.8 283.4-2 290.2-6.4 33.8-34 61.4-68 67.8-13.2 2.4-447 2.4-460-0.2zM675.8 867.8l6.2-6.2v-136.2c0-126.2-0.4-136.8-3.6-140.6-1.8-2.4-5.4-5.4-7.8-6.6-3-1.6-60.4-2.2-202.4-2.2h-198.2l-6.4 5.8-6.6 5.8v274.8l6.6 5.8 6.4 5.8h399.6l6.2-6.2z" />
<glyph unicode="&#xe92c;" glyph-name="cor" d="M232 906v-54h248v108h-248v-54zM232 780c0-15.2 4.8-38.6 10.4-51.4 13.6-31 42.2-57.2 73.6-67.6l10-3.4v-35.6h-214v-40h-112v-178h112v-38h30.2c27.8 0 30-0.2 29-3.4-0.8-2-21.8-62-46.8-133.6l-45.6-130 46.2-0.6 46.4-0.4 1.2-18.6c1.4-20 4.2-32 11.6-50.4 14-34.4 46.4-66.8 80.8-80.8 29.8-12-1.4-11 395.6-11.6l363.4-0.6v60h-352.8c-231.4 0-356.4 0.8-363.4 2-43.2 8.2-75.8 48-75.8 92.2v7.8h59.6l10.4 29.4c5.6 16.4 16.2 46.4 23.4 67.2l13.2 37.4h141l15.4 45.6c8.6 25 19 54.8 23 66.4l7.2 21 42.8 1.2v255.8h-182v35.6l12.6 4.2c46.8 15.6 81.4 64 81.4 113.6v16.6h-248v-12zM460 363.6c0-1.4-5.2-18-11.4-37l-11.6-34.6h-38.4c-21.2 0-38.6 0.2-38.6 0.6 0 0.8 20.8 60.4 23.8 68l2.2 5.4h37c27.8 0 37-0.6 37-2.4zM957.4 640.8c-21.8-7-40.2-13.2-41.2-13.8-1.4-0.8 14.4-54 16.6-56.4 0.4-0.4 81.6 25.2 82.6 26 0.4 0.6-17 55.8-17.8 56.4-0.4 0.2-18.4-5.2-40.2-12.2zM628 494v-128h122v96h80v60h-80v100h-122v-128zM866.6 611.8c-14.2-4.6-24.6-9-24.6-10.4 0-2 12.4-40.6 16.8-52.8 0.8-1.6 8.4 0 25.6 5.8 13.6 4.4 25 8.4 25.4 8.8 1.2 1-16.2 56.8-17.6 56.6-0.6 0-12.2-3.6-25.6-8zM860 494v-30h54v60h-54v-30zM936 494v-30h88v60h-88v-30zM850 412c-4.8-15.4-8.2-28.4-7.8-28.8 1.2-1.2 46.6-15.2 49-15.2 3 0 19.8 53.8 17.6 55.8-1.4 1.4-46.6 16.2-49.2 16.2-0.4 0-4.8-12.6-9.6-28zM924 389.6c-4.6-14.6-8.6-27.4-8.6-28.2-0.4-1.8 78.4-27.8 81.2-26.8 2.4 0.8 19.6 54 17.8 55.6-1.4 1.4-78.2 25.8-80.8 25.8-0.8 0-5-12-9.6-26.4z" />
<glyph unicode="&#xe92d;" glyph-name="ferramentas" d="M152.6 874c-39.2-8.4-54.4-18.4-66.4-43.8l-5.2-11.2-0.6-78.4c-0.8-107-1.8-103.2 43.4-158.2l28-34 0.6-223.8 0.6-223.6 4.6-11.8c16.2-43 51.2-69.6 95.4-72.6 41.8-2.8 83.8 21 102 58 13.4 27.2 13 19.2 13 258.4v216l27.4 33c29.8 36.2 38.8 51.8 42.6 73.8 1.4 8.8 2 38.4 1.6 87.4-0.6 71.6-0.8 74.2-5.2 85.2-5.4 13.6-19.8 29.4-32.2 35.6-8 4-59 16-68 16-2 0-5.8-1.8-8.4-3.8l-4.8-3.8-1-70.6-1-70.4-29.6-20.8-29.4-20.8-29.6 20.6-29.4 20.8-1 68.8c-0.6 38-1.8 70.4-2.6 72.2-1.8 3.8-10 7.8-15 7.6-1.8 0-15.2-2.6-29.8-5.8zM416.2 556.8l-16.2-19.4v-111.4h420.4l-1.4 7.6c-0.6 4-3.8 13.6-7 21-25.2 60.2-76 102.4-141 116.8-11.4 2.6-34.4 3.2-126.4 4l-112.2 1-16.2-19.6zM399.4 247.6c-0.4-80.6-1.6-149.6-2.4-153.2l-1.4-6.4h538.6l10 10-0.8 88.6c-0.8 95.2-1 96.6-12.2 122.4-15.6 35-48.8 65.8-85.4 79.2l-16 5.8h-429.6l-0.8-146.4zM815 304.4c18.8-7.2 34-21.6 42.8-40.4 4.6-9.6 5.2-13.6 5.2-31 0-18-0.6-21.2-5.6-31.6-7.4-14.8-22-29.4-36.8-36.8-10.4-5-13.6-5.6-31.6-5.6-17.6 0-21.4 0.6-31.4 5.4-31 14.6-49.4 48.2-43.8 80.4 7.2 40.2 41.6 67.4 81.2 63.8 6.6-0.6 15.6-2.4 20-4.2zM722 47.2c0-9.6 5.4-19.2 14.6-26 5.6-4 7.8-4.2 80.4-4.2 72.4 0 74.8 0.2 80.2 4.2 9.2 6.8 13.4 14 14.4 24.6l1 10.2h-190.6v-8.8z" />
<glyph unicode="&#xe92e;" glyph-name="garantia" d="M488 919.2c-17.2-4.8-27.2-10.8-63-37.4-45.2-33.4-54.2-38.8-70.6-42.6-7.4-1.6-33.2-4-57.4-5.2-63.4-3.4-79.2-8.2-103.2-32-18.4-18.2-23-29.4-36.4-86.4-16-67.8-12.6-62.2-78.4-125.6-30.2-29-38-40-44-63-7.4-29-3.2-46.6 24.8-102.6 12-24 23.2-48.4 25-54.4 4.4-14.6 4-30.2-1.8-77-2.8-22-5-45-5-51 0-34.8 21.8-70 53.8-86.6 7.2-3.8 28.6-13.4 47.2-21.4 38.2-16 48-21.4 59.4-31.6 4.2-3.8 20.6-26.4 36.2-50.2 36.2-54.6 49.6-67 80.4-75.2 24.8-6.4 36.6-4.6 98 14.6 35 11 36.6 11.2 59 11.2 22.8 0 23.6-0.2 67-13.6 60-18.6 78.4-19.6 108.2-5.4 20 9.4 32.2 23 63.4 70.2 35.8 54.2 37.6 55.6 90.2 78.2 21 8.8 44.2 19.4 51.4 23.2 28 14.4 48 42.6 52.4 73.4 1.8 13 1.4 21.4-3.2 61.6-6 50.2-6.6 64-3.4 76.6 1.2 4.4 13 30 26 57 19.4 39.8 24.4 51.8 26.4 63.4 3.4 20.6 0.2 40.4-9.4 60.2-6.6 13.6-11 18.6-35.8 42.4-65.6 62.8-62.6 58-78.2 123.6-6 25-12.2 49.4-14 54.4-7.4 20.6-27.4 43-47.6 52.8-17 8.4-32 10.8-78.4 13.2-45.6 2.4-63.6 5.2-76.8 11.8-4 2.2-24.6 16.6-45.4 32.2-39.4 29.4-51.2 36.4-69 41-13 3.6-35.4 3.6-47.8 0.2zM555.6 771.8c23-2.8 57.8-11.8 79.4-20.6 108.2-44.6 185.2-143.8 201-259.4 3-21.6 3-66 0-87.6-14.8-108.2-83-202.6-180.8-250-38.8-18.8-77.2-29-119-31.8-133.8-9-255.8 59.8-316.4 178.8-38.8 76.4-45.2 175-16.4 255.8 18.2 51.2 53 102.2 93.2 136.8 73.4 63.2 161.4 89.6 259 78zM490 741.8c-136.4-9.8-247.2-111.8-269.2-247.8-4-24.4-4-67.6 0-92 20.8-128.6 120.8-227 250-246 22-3.2 64.6-2.8 87.2 0.8 136 22 237.8 132.8 247.8 269.6 13 180-135.6 328.4-315.8 315.4zM667 575.2c12-5.6 15.4-9.2 21.2-22.2 5-11.2 4.4-26-1.2-37-5.4-10.6-186.6-192-196-196.2-9.2-4.2-20.4-4.8-32-1.6-6.6 1.8-17.4 11.6-62.6 56.6-30 29.8-56.4 57-58.6 60.6-5 8-6.8 23.2-4 33.6 2.8 10.6 13 22.6 23 27.2s26.8 4.8 36.8 0.8c4.6-2 21-16.8 43.6-39.2l36-36 74.6 75.4c52.8 53.2 77 76.2 82.8 79 11.4 5 24.2 4.8 36.4-1z" />
<glyph unicode="&#xe92f;" glyph-name="lugares" d="M348.2 956.8c-34.6-9.2-61.6-38.6-68-73.6-3.2-17.2-2.8-64.6 0.6-75.6 3.8-13 11.8-22.6 23.8-28.6 9.4-4.6 12.2-5 38.8-5h28.6v-45.4l-22.4-1.2c-26.8-1.6-42.8-5.2-60.4-13.4-37.8-17.8-67.2-54-76.4-93.4-2.2-9.8-6.4-75.4-14.6-231.6-6.4-120-11.2-218.6-10.8-219.4 1.2-2.4 100.6-2 100.6 0.2 0 13.8 26.6 387.2 28 393.6 7.2 31.6 34.4 59 67 67.6 17.4 4.4 238.4 4.6 255.6 0 17.6-4.6 31.2-12.4 43.8-25.2 15-15.2 23.2-32.6 25.8-54.2 1-9.2 6.8-94.4 12.8-189.6s11.4-177.8 12.2-183.4l1-10.6h51c28 0 50.8 0.6 50.8 1.6 0 0.8-5.4 100.8-11.8 222.4-11.6 215.6-12 221.4-17 237-2.8 8.8-8.4 21.8-12.6 29-9.2 15.8-33.8 40.6-49 49.6-22.4 13.2-50.6 20.2-82 20.4h-13.6v46h28.6c25.6 0 29.4 0.4 38.4 4.8 12 5.6 17.4 11.2 22.8 23.2 3.6 7.8 4.2 13.2 4.2 42 0 23.4-0.8 36.6-3 45-9 34.2-34 59-68.4 68-16.8 4.4-308 4.2-324.4-0.2zM604 751v-23h-186v46h186v-23zM391.4 585.2c-11.8-4.2-20.6-12.4-26.2-23.6-4.8-10.4-5.2-14.8-17.8-200.6-7-104.4-12.4-190.6-12-191.6 0.4-0.8 79.6-1.4 175.8-1.4h174.8v8c0 4.2-5.4 90.8-12 192.4-11.4 176.2-12.2 185-16.6 193.6-5.2 10.2-18.2 20.8-29 24-12 3.2-227.4 2.6-237-0.8zM142.6 119.2c-37.8-12-56.6-47-47.8-89.2 8.6-41 35.6-71.8 76.8-87.8l13.4-5.2 319.4-0.6c351.6-0.6 334-1.2 361 11.8 18.4 8.6 43.2 33.4 52.2 52 23.4 48.4 12.4 95-27.2 115l-11.4 5.8-364 0.4c-297.2 0.2-365.6-0.2-372.4-2.2z" />
<glyph unicode="&#xe930;" glyph-name="mes-ano" d="M232.6 945c-6.6-3.4-12.2-8.2-15.8-13.6l-5.8-8.4-0.6-85c-0.4-58 0-87.4 1.6-92.6 2.6-8.8 12.2-20.4 20.4-24.6 3.2-1.6 11.4-3.4 18.6-4.2 23.4-2.2 40.6 5.4 49.6 22 4.4 8.2 4.4 10 5 88 0.6 88.2 0 96.2-10 108.2-9 11-19.4 15.2-37.8 15.2-12.2 0-17-1-25.2-5zM751 947.2c-8-3.6-16.8-12.6-20.8-21.2-2.8-6-3.2-18.4-3.8-84.4-0.8-97.8-0.2-101.4 18.4-116.4 6.8-5.6 9.2-6.2 24.8-7 19.6-0.8 29.6 1.6 38.6 9.2 13.6 11.6 13.8 12 13.8 106.6 0 84.4 0 85.2-4.4 94-2.6 4.8-8 11.6-12.2 14.8-7.4 5.8-8.8 6.2-28 6.8-14 0.2-22.2-0.4-26.4-2.4zM48 865.2c-18-4.8-34.4-19-42.8-37l-4.2-9.2v-824l5.4-11.4c6.2-13.2 18.2-25.6 31.2-32l9.4-4.6h930l9.4 4.6c13 6.4 25 18.8 31.2 32l5.4 11.4v824l-5.6 11.2c-6.4 13.2-19.8 26.4-33 32.4-8.8 4.2-12.8 4.4-69.8 5l-60.6 0.6v-66.8c0-55-0.6-68.2-3.2-75.8-7.2-21.6-28.6-36-59.2-39.8-43-5.6-74.6 9.2-90.4 42.2l-6.2 13-0.6 63.6-0.6 63.4h-355.8v-58.4c0-63.4-1.4-74.2-10.6-90-7-11.8-19.4-23-33.2-29.2-14.8-7-45.6-8.6-63.2-3.4-20.8 6-37 19.6-46.6 39l-5.4 11-0.6 65.6-0.6 65.4-60.4-0.2c-41 0-63.4-0.8-69.4-2.6zM958 309v-299h-892v598h892v-299zM539.4 524.6c-0.8-0.6-1.4-26.2-1.4-56.6 0-40.2 0.6-55.8 2.4-57.6 3.4-3.4 125.8-3.4 129.2 0s3.4 109.8 0 113.2c-1.8 1.8-19.2 2.4-65.6 2.4-34.8 0-64-0.6-64.6-1.4zM731.4 524.6c-0.8-0.6-1.4-26.2-1.4-56.6 0-40.2 0.6-55.8 2.4-57.6 3.4-3.4 125.8-3.4 129.2 0s3.4 109.8 0 113.2c-1.8 1.8-19.2 2.4-65.6 2.4-34.8 0-64-0.6-64.6-1.4zM156.2 357.2c-1.6-1.8-2.2-19-1.8-58.4l0.6-55.8 63.8-0.6c45.4-0.4 64.6 0.2 66.4 1.8 3.8 3.2 4.2 109.6 0.4 113.4s-126.2 3.4-129.4-0.4zM348.2 357.2c-1.6-1.8-2.2-19-1.8-58.4l0.6-55.8 63.8-0.6c45.4-0.4 64.6 0.2 66.4 1.8 3.8 3.2 4.2 109.6 0.4 113.4s-126.2 3.4-129.4-0.4zM540.2 357.2c-1.6-1.8-2.2-19-1.8-58.4l0.6-55.8 63.8-0.6c45.4-0.4 64.6 0.2 66.4 1.8 3.8 3.2 4.2 109.6 0.4 113.4s-126.2 3.4-129.4-0.4zM732.2 357.2c-1.6-1.8-2.2-19-1.8-58.4l0.6-55.8 63.8-0.6c45.4-0.4 64.6 0.2 66.4 1.8 3.8 3.2 4.2 109.6 0.4 113.4s-126.2 3.4-129.4-0.4zM157.6 191.8c-3.4-1.8-3.6-6.8-3.6-57.4 0-40.6 0.6-56.2 2.4-58s18.8-2.4 63.8-2.4c53.2 0 62 0.4 64.6 3.2 2.8 2.6 3.2 10.6 3.2 56.8 0 53.2 0 53.8-4.4 56.8-3.8 2.8-13.2 3.2-63.6 3.2-36.4 0-60.4-1-62.4-2.2zM349.6 191.8c-3.4-1.8-3.6-6.8-3.6-57.4 0-40.6 0.6-56.2 2.4-58s18.8-2.4 63.8-2.4c53.2 0 62 0.4 64.6 3.2 2.8 2.6 3.2 10.6 3.2 56.8 0 53.2 0 53.8-4.4 56.8-3.8 2.8-13.2 3.2-63.6 3.2-36.4 0-60.4-1-62.4-2.2zM541.6 191.8c-3.4-1.8-3.6-6.8-3.6-57.8 0-53.2 0.2-56 3.8-58 2.4-1.2 26.4-2 64-2 51.8 0 60.4 0.4 63 3.2 2.8 2.6 3.2 10.6 3.2 56.8 0 53.2 0 53.8-4.4 56.8-3.8 2.8-13.2 3.2-63.6 3.2-36.4 0-60.4-1-62.4-2.2zM733.6 191.8c-3.4-1.8-3.6-6.8-3.6-57.8 0-53.2 0.2-56 3.8-58 2.4-1.2 26.4-2 64-2 51.8 0 60.4 0.4 63 3.2 2.8 2.6 3.2 10.6 3.2 56.8 0 53.2 0 53.8-4.4 56.8-3.8 2.8-13.2 3.2-63.6 3.2-36.4 0-60.4-1-62.4-2.2z" />
<glyph unicode="&#xe931;" glyph-name="motor" d="M357 825.2c-18.2-8.2-26-29.6-17-47.2 7-13.6 14-16.8 37.6-17.6l20.4-0.8v-37.4l-72.4-0.6c-72.4-0.6-72.6-0.6-79.2-5.2-12.8-9.2-14.4-15.8-14.4-57.4v-37h-34.4c-39 0-47.6-1.6-56.8-10.8-9.4-9.4-10.8-17.6-10.8-62.8v-40.6l-61 1.2-2 110.4-5.4 7c-15.2 20-46.6 17.2-57.4-5-4.2-8.6-4.2-9.8-4.2-194.6 0-176.8 0.2-186.2 3.8-194 5.4-11.8 14.4-17.4 29.2-18.4 10-0.6 13 0 18.8 4 15.4 10.4 15.2 9.6 15.8 70.8l0.6 54.8h61.8v-40.4c0-43.8 1.2-52 9.4-61.8 9.4-11 13.8-11.8 65-11.8h46.6l62-76.6c51.6-63.4 63.6-77.2 71-81l8.8-4.4h193c191.8 0 193 0 201.6 4.2 5.8 2.8 10.4 7 13.6 12.6 4.6 8 5 10.4 5 35.8v27.4h33.6l0.8-27.6c0.4-23.2 1.2-28.4 4.8-34.4 4.8-8.4 14.8-15.4 24.2-17.2 14.4-2.8 19.8 0.8 85.4 57 52.2 44.8 63.2 55 65.8 62 3 7.4 3.4 21.4 3.4 132.8v124.6l-4.4 8.8c-4 7.6-13.6 15.8-64.6 54.4-33 25.2-62.8 47-66.4 48.6-18.2 8.8-40.8-2.2-46.6-22.6-1-4-2-19.8-2-35v-27.6l-33 1.2-1 33.4c-0.8 29.6-1.4 34-5.2 38.8-10.8 14.6-18.8 16.6-63.2 16.8h-33.6v66.4c0 63.2-0.2 66.8-4.2 75-2.2 4.6-7 10.6-10.4 13-6.2 4.4-8.2 4.6-66.4 5.6l-60 1v36l20 1c23.8 1.2 31.4 4.8 38.4 17.8 8.4 15.8 4.8 31.2-10 43l-7.8 6.2-120.2 0.4c-97.6 0.4-121.6 0-126.4-2.2z" />
<glyph unicode="&#xe932;" glyph-name="origem" d="M470 904.8c-2.8-0.4-13-1.8-23-3-24.6-3-73.4-15.6-99.8-25.8-147-57-254-184.4-285-339-5.8-29.6-8.2-55-8.2-90.8 0-121 48-236.2 134-322.2 67.4-67.6 150-110.4 247.8-128.2 28-5.2 91.2-7.2 122.4-4 173.8 18 320 130.6 383.2 295.2 8.2 21.8 19.4 63 23.6 89 4.6 26.6 6.2 87.6 3 117-15 146.2-95.6 273-222 349-55.2 33.2-117 53.8-186 62-15.6 1.8-78.6 2.4-90 0.8zM653.2 815.8c11-4.4 28-11.8 37.6-16.8 36.8-18.8 83.4-53.2 88.8-65.6 10.6-24.8 17.4-77.2 12.6-99.2-1.2-6-7.4-22.2-13.4-36-24.8-56-24.8-83.2 0.2-131.8 21.2-41.6 46.8-75.2 63.4-83 13.4-6.4 20.6-4.4 35.8 9.6 5 4.8 13 10.6 17.8 13l8.6 4.4-1.4-12.8c-2.2-19.6-10.8-56-18.6-78.4-39.8-114.2-129.6-204-244.2-244-15.2-5.2-20.4-6.4-20.4-4.4 0 5.6 20 42.6 30.4 56.2 5.8 7.8 26.8 30.6 46.6 51 40 41 45.4 48.8 46.6 69.2 1 13.8-2 21.6-12.4 32.4-13.4 14.2-44.4 27-79 32.2-31 4.8-38 11.4-58.2 53.6-12.8 26.6-15.2 30.2-29.4 44.4-27.8 27.6-44 31.6-101.8 25.2-36-4-58.8-3.2-75.8 2.8-23.6 8.2-33 22-37.8 54.6-3.2 23-7.4 32.2-22.2 49.6-6.4 7.4-12 16.4-13.2 20.8-7 26 16 50.8 41.8 45 4.8-1 21.4-8.4 36.8-16.2 23-11.8 30.2-14.6 39.6-15.2 15-1 26 4.4 33.8 16.6 7.6 12 9.6 25 11.2 70 1.4 43 4.6 62.4 13.2 80.6 10.6 22 22.6 31.4 61.8 48.6 14.8 6.6 27.6 17 36.8 30.2l7.6 11.2 18.2-5c10.2-2.8 27.4-8.4 38.6-12.8zM146 546.2c14.4-62.4 51-114.6 106.2-151.2 7.2-4.8 28.2-17 47-27 18.6-10 35.8-20.2 38.2-22.6 3.8-3.8 4.8-7.8 6.6-27.4 1-12.6 2-39.4 2-59.2 0-35.8 0-36.4 5.6-47 7.4-14.2 21.4-25.2 54.4-42.8s49.8-31 56.8-45.4c7.6-15.6 11.2-32.4 11.2-51.2v-17l-12.4 1.4c-36.8 4-84 18.4-122.6 37.2-43 21-75.6 44.6-110.2 80.2-53.6 55.4-87.4 119.8-104.2 198.8-5 24-5.4 29.6-5.6 73 0 51.8 1.6 65.4 13.4 108 7.2 25.8 5.8 26.4 13.6-7.8z" />
<glyph unicode="&#xe933;" glyph-name="portas" d="M450.4 870c-47.2-9.6-101-33.4-138.8-62-19.6-14.8-32.2-28-146-154.6-68.6-76.2-127.8-142.4-131.8-147.4-15.2-19.2-25.8-44-30.8-73.4-3.8-21.4-3.8-36.2-0.2-55 3.2-16 78.8-268.8 85-284 11.2-27.4 36.6-51.2 69.2-64.8l14-5.8 391-0.6c358.4-0.4 391.6-0.2 401 2.8 29.6 9.8 51.2 32.8 58.2 61.8 2.2 10.2 2.8 72.4 2.8 399.6v387.4l-277.4-0.2c-262.4-0.2-278.6-0.4-296.2-3.8zM938 640v-150h-804.6l4 4.6c2.2 2.4 49.2 54.8 104.6 116.4s105.8 116.6 112.2 122c29.6 26 82.8 49.8 122.2 54.8 7 1 113.6 1.8 237.2 2l224.4 0.2v-150zM938 363v-43h-170v86h170v-43z" />
</font>
</defs>
</svg>
