<?xml version="1.0" standalone="no"?>
<!DOCTYPE svg PUBLIC "-//W3C//DTD SVG 20010904//EN"
 "http://www.w3.org/TR/2001/REC-SVG-20010904/DTD/svg10.dtd">
<svg version="1.0" xmlns="http://www.w3.org/2000/svg"
 width="268.000000pt" height="512.000000pt" viewBox="0 0 268.000000 512.000000"
 preserveAspectRatio="xMidYMid meet">

<g transform="translate(0.000000,512.000000) scale(0.100000,-0.100000)"
fill="#000000" stroke="none">
<path d="M74 5110 c-38 -15 -64 -59 -64 -109 l0 -46 1197 -1197 1198 -1198
-1198 -1198 -1197 -1197 0 -51 c0 -42 5 -55 28 -77 37 -35 81 -43 123 -23 20
9 569 551 1271 1253 1297 1299 1250 1249 1240 1323 -4 30 -2459 2491 -2508
2515 -35 17 -59 18 -90 5z"/>
</g>
</svg>
